<svg viewBox="0 0 150 150" xmlns="http://www.w3.org/2000/svg" fill-rule="evenodd" clip-rule="evenodd" stroke-linejoin="round" stroke-miterlimit="1.414"><path fill="none" d="M0 0h150v150H0z"/><path fill="#c2e7d5" d="M0 0h150v150H0z"/><path d="M25 125l8.964-21.775 12.81 12.81L25 125zm62.762-75.572l12.81 12.81-51.234 51.235-12.81-12.81 51.666-51.668-.432.433zm29.46 1.283a1.81 1.81 0 0 1 2.562 0 1.806 1.806 0 0 1 0 2.56L86.482 86.572a1.81 1.81 0 1 1-2.563-2.56l21.775-21.775-17.932-17.932 7.685-7.685 17.932 17.933 3.843-3.843zm5.125-10.247l-8.968 8.964-12.807-12.807 8.965-8.968a9.06 9.06 0 0 1 12.81 12.81z" fill="#094222" fill-rule="nonzero"/></svg>