<?xml version="1.0" encoding="UTF-8" standalone="no"?>
<!DOCTYPE svg PUBLIC "-//W3C//DTD SVG 1.1//EN" "http://www.w3.org/Graphics/SVG/1.1/DTD/svg11.dtd">
<svg width="100%" height="100%" viewBox="0 0 5000 3334" version="1.1" xmlns="http://www.w3.org/2000/svg" xmlns:xlink="http://www.w3.org/1999/xlink" xml:space="preserve" xmlns:serif="http://www.serif.com/" style="fill-rule:evenodd;clip-rule:evenodd;stroke-linejoin:round;stroke-miterlimit:1.41421;">
    <g transform="matrix(5.55556,0,0,5.55556,0,0)">
        <g id="Artboard1" transform="matrix(1,0,0,0.963082,-62,8.66774)">
            <rect x="62" y="-9" width="900" height="623" style="fill:none;"/>
            <clipPath id="_clip1">
                <rect x="62" y="-9" width="900" height="623"/>
            </clipPath>
            <g clip-path="url(#_clip1)">
                <g transform="matrix(0.91001,0,0,0.9968,90.2103,15.92)">
                    <rect x="-31" y="-25" width="989" height="625" style="fill:rgb(232,180,173);"/>
                    <clipPath id="_clip2">
                        <rect x="-31" y="-25" width="989" height="625"/>
                    </clipPath>
                    <g clip-path="url(#_clip2)">
                        <g transform="matrix(1.09889,0,0,1.04167,-99.1311,-25.3674)">
                            <g transform="matrix(0.844428,0,0,0.844428,98.5909,47.395)">
                                <g id="Dokeza" transform="matrix(4.9142,0,0,31.5796,-351.977,-1871.95)">
                                    <rect x="175" y="57.5" width="105" height="22.5" style="fill:rgb(229,165,155);"/>
                                </g>
                                <g transform="matrix(0.578007,0,0,1.88755,505.314,55.6813)">
                                    <g transform="matrix(8.01706,0,0,2.45499,-5252.31,-428.389)">
                                        <path d="M701.882,215.282L697.274,215.282L697.274,250.013L703.117,250.013C711.347,250.013 719.577,246.475 719.577,232.648C719.577,220.387 713.486,215.282 701.882,215.282M703.611,261.125L686.82,261.125C685.175,261.125 684.188,260.715 684.188,258.574L684.188,206.642C684.188,204.83 684.68,204.008 686.901,204.008L699.906,204.008C720.319,204.008 733.566,210.838 733.566,232.733C733.566,252.484 720.319,261.125 703.611,261.125" style="fill:white;fill-rule:nonzero;"/>
                                    </g>
                                    <g transform="matrix(7.27868,0,0,2.22489,-636.017,-32.1649)">
                                        <g transform="matrix(1,0,0,1,6.76884,-11.0212)">
                                            <path d="M100.397,57.997L101.007,57.997C102.665,57.997 104.156,58.63 105.479,59.895C106.803,61.16 107.464,62.738 107.464,64.628C107.464,66.49 106.803,68.024 105.479,69.231C104.156,70.438 102.52,71.042 100.571,71.042C98.448,71.042 96.681,70.191 95.271,68.489C93.86,66.788 93.155,64.367 93.155,61.226C93.155,58.346 93.773,55.649 95.009,53.133C96.245,50.617 97.757,48.625 99.546,47.156C101.335,45.687 102.927,44.953 104.323,44.953C105.196,44.953 105.901,45.237 106.439,45.804C106.977,46.371 107.246,47.076 107.246,47.92C107.246,49.228 106.693,50.174 105.588,50.755C104.047,51.599 102.825,52.588 101.924,53.722C101.022,54.856 100.513,56.281 100.397,57.997Z" style="fill:white;fill-rule:nonzero;"/>
                                        </g>
                                        <g transform="matrix(1,0,0,1,-13.0096,-11.0212)">
                                            <path d="M194.324,58.172L193.67,58.172C192.041,58.172 190.565,57.51 189.242,56.187C187.919,54.863 187.257,53.3 187.257,51.497C187.257,49.636 187.919,48.08 189.242,46.829C190.565,45.578 192.201,44.953 194.15,44.953C195.488,44.953 196.738,45.338 197.902,46.109C199.065,46.88 199.967,48 200.607,49.468C201.247,50.937 201.566,52.733 201.566,54.856C201.566,57.736 200.956,60.433 199.734,62.949C198.513,65.465 197.022,67.457 195.262,68.926C193.503,70.394 191.91,71.129 190.485,71.129C189.584,71.129 188.849,70.845 188.282,70.278C187.715,69.711 187.431,69.02 187.431,68.206C187.431,66.897 188.028,65.937 189.22,65.327C190.762,64.425 191.969,63.436 192.841,62.36C193.714,61.284 194.208,59.888 194.324,58.172Z" style="fill:white;fill-rule:nonzero;"/>
                                        </g>
                                    </g>
                                </g>
                            </g>
                            <g transform="matrix(1.97137,0,0,1.97137,-1164.88,-835.778)">
                                <g id="background">
                                    <path d="M652.195,423.958L640.016,728.315L817.292,728.315L829.471,423.958L652.195,423.958Z" style="fill:rgb(96,191,149);fill-rule:nonzero;"/>
                                    <path d="M602.998,423.958L600.991,728.315L659.779,728.315L672.956,423.958L602.998,423.958Z" style="fill:rgb(128,128,128);fill-rule:nonzero;"/>
                                    <g transform="matrix(1,0.00421355,0,1,-6.2405,-3.38026)">
                                        <path d="M830.986,728.315L870.907,728.315L873.443,423.958L844.692,423.958L830.986,728.315Z" style="fill:rgb(229,165,155);fill-rule:nonzero;"/>
                                    </g>
                                </g>
                                <g transform="matrix(1,0,0,1,0.75495,0)">
                                    <g id="borders">
                                        <path d="M682.878,423.958L670.815,423.958L657.638,728.315L670.845,728.315L684.022,423.958L682.878,423.958Z" style="fill:white;fill-rule:nonzero;"/>
                                    </g>
                                </g>
                                <g transform="matrix(1,0,0,1,158.335,0)">
                                    <g id="borders1" serif:id="borders">
                                        <path d="M682.878,423.958L670.815,423.958L657.638,728.315L670.845,728.315L684.022,423.958L682.878,423.958Z" style="fill:white;fill-rule:nonzero;"/>
                                    </g>
                                </g>
                                <g id="shield" transform="matrix(0.961172,0,0,0.961172,29.1794,22.3621)">
                                    <path d="M772.144,539.775C772.818,541 773.478,542.27 774.105,543.555C774.685,544.737 775.234,545.921 775.742,547.081C771.186,557.893 768.877,569.046 768.877,580.24C768.877,591.435 771.186,602.588 775.742,613.397C775.253,614.516 774.728,615.65 774.145,616.844C773.519,618.128 772.861,619.398 772.188,620.623C766.069,631.769 755.506,643.035 751.506,643.035C747.506,643.035 736.943,631.769 730.824,620.623C730.151,619.398 729.493,618.128 728.867,616.844C728.284,615.65 727.759,614.516 727.27,613.397C731.826,602.588 734.135,591.435 734.135,580.24C734.135,569.046 731.826,557.893 727.27,547.081C727.778,545.921 728.327,544.737 728.907,543.555C729.534,542.27 730.194,541 730.868,539.775C737.132,528.389 747.672,517.396 751.506,517.396C755.341,517.396 765.88,528.389 772.144,539.775" style="fill:rgb(229,165,155);fill-rule:nonzero;"/>
                                    <path d="M744.515,543.83C744.515,532.536 746.182,522.866 748.641,518.416C749.271,517.987 749.881,517.644 750.395,517.437L750.395,571.453C747.052,569.12 744.515,557.644 744.515,543.83" style="fill:white;fill-rule:nonzero;"/>
                                    <path d="M758.497,543.83C758.497,532.536 756.83,522.866 754.371,518.416C753.741,517.987 753.131,517.644 752.617,517.437L752.617,571.453C755.96,569.12 758.497,557.644 758.497,543.83" style="fill:white;fill-rule:nonzero;"/>
                                    <path d="M758.497,616.596C758.497,627.89 756.83,637.56 754.371,642.01C753.741,642.439 753.131,642.782 752.617,642.989L752.617,588.973C755.96,591.306 758.497,602.782 758.497,616.596" style="fill:white;fill-rule:nonzero;"/>
                                    <path d="M744.515,616.596C744.515,627.89 746.182,637.56 748.641,642.01C749.271,642.439 749.881,642.782 750.395,642.989L750.395,588.973C747.052,591.306 744.515,602.782 744.515,616.596" style="fill:white;fill-rule:nonzero;"/>
                                    <path d="M756.944,580.215C756.944,575.781 754.509,572.189 751.506,572.189C748.503,572.189 746.068,575.781 746.068,580.215C746.068,584.646 748.503,588.238 751.506,588.238C754.509,588.238 756.944,584.646 756.944,580.215" style="fill:white;fill-rule:nonzero;"/>
                                    <path d="M772.144,539.743C772.818,540.968 773.478,542.238 774.105,543.522C774.685,544.705 775.234,545.889 775.742,547.049C771.186,557.861 768.877,569.014 768.877,580.208C768.877,591.403 771.186,602.556 775.742,613.365C775.253,614.484 774.728,615.618 774.145,616.811C773.519,618.096 772.861,619.366 772.188,620.591C766.069,631.737 755.506,643.035 751.506,643.035C747.506,643.035 736.943,631.737 730.824,620.591C730.151,619.366 729.493,618.096 728.867,616.811C728.284,615.618 727.759,614.484 727.27,613.365C731.826,602.556 734.135,591.403 734.135,580.208C734.135,569.014 731.826,557.861 727.27,547.049C727.778,545.889 728.327,544.705 728.907,543.522C729.534,542.238 730.194,540.968 730.868,539.743C737.132,528.357 747.672,517.396 751.506,517.396C755.341,517.396 765.88,528.357 772.144,539.743M751.505,645.704C756.203,645.704 766.075,636.921 774.074,622.694L788.365,647.416L791.517,645.596L776.083,618.897C776.237,618.591 776.403,618.297 776.554,617.988C777.247,616.567 777.861,615.229 778.431,613.898L778.658,613.37L778.501,613.004C782.972,602.306 785.254,591.278 785.254,580.208C785.254,569.138 782.972,558.108 778.501,547.41L778.658,547.043L778.431,546.515C777.845,545.148 777.199,543.744 776.512,542.342C776.384,542.081 776.242,541.833 776.113,541.572L778.58,537.293C780.778,537.21 783.3,535.484 784.361,533.648C785.743,531.255 797.803,505.884 795.41,504.501C793.016,503.12 777.074,526.249 775.693,528.644C774.632,530.48 774.399,533.527 775.428,535.472L774.103,537.768C766.1,523.514 756.204,514.712 751.505,514.712L751.507,514.712C746.808,514.712 736.912,523.514 728.909,537.768L727.584,535.472C728.613,533.527 728.38,530.48 727.319,528.644C725.938,526.249 709.996,503.12 707.603,504.501C705.209,505.884 717.269,531.255 718.651,533.648C719.712,535.484 722.234,537.21 724.432,537.293L726.899,541.572C726.77,541.833 726.628,542.081 726.5,542.342C725.813,543.744 725.167,545.148 724.581,546.515L724.354,547.043L724.511,547.41C720.041,558.108 717.758,569.138 717.758,580.208C717.758,591.278 720.041,602.306 724.511,613.004L724.354,613.37L724.581,613.898C725.151,615.229 725.766,616.567 726.458,617.988C726.609,618.297 726.775,618.591 726.929,618.897L711.495,645.596L714.647,647.416L728.938,622.694C736.937,636.921 746.809,645.704 751.507,645.704L751.505,645.704Z" style="fill:rgb(128,128,128);fill-rule:nonzero;"/>
                                </g>
                            </g>
                        </g>
                    </g>
                </g>
            </g>
        </g>
    </g>
</svg>
