<?xml version="1.0" encoding="UTF-8" standalone="no"?><!DOCTYPE svg PUBLIC "-//W3C//DTD SVG 1.1//EN" "http://www.w3.org/Graphics/SVG/1.1/DTD/svg11.dtd"><svg width="100%" height="100%" viewBox="0 0 300 343" version="1.1" xmlns="http://www.w3.org/2000/svg" xmlns:xlink="http://www.w3.org/1999/xlink" xml:space="preserve" style="fill-rule:evenodd;clip-rule:evenodd;stroke-linejoin:round;stroke-miterlimit:1.41421;"><rect id="Artboard2" x="0" y="0" width="300" height="343" style="fill:none;"/><clipPath id="_clip1"><rect id="Artboard21" x="0" y="0" width="300" height="343"/></clipPath><g clip-path="url(#_clip1)"><g><path d="M299.777,0l-238.118,0l-61.432,68.651l0,6.127l-0.227,0.253l0.227,0l0,267.969l299.773,0l-0.223,-343Z" style="fill:#fff;fill-rule:nonzero;"/><g><rect x="78.677" y="225.347" width="142.646" height="8.674" style="fill:#fae6d5;"/><rect x="78.677" y="202.379" width="142.646" height="8.674" style="fill:#fae6d5;"/><rect x="78.677" y="293.231" width="142.646" height="8.674" style="fill:#fae6d5;"/><rect x="78.677" y="270.263" width="142.646" height="8.674" style="fill:#fae6d5;"/><rect x="78.677" y="247.294" width="142.646" height="8.674" style="fill:#fae6d5;"/><path d="M299.777,0l-238.118,0l-61.432,68.651l0,6.127l-0.227,0.253l0.227,0l0,267.969l299.773,0l-0.223,-343Zm-17.936,322.836l-263.682,0l0,-247.805l49.105,-54.867l214.355,0l0,302.672l0.222,0Z" style="fill:#fae6d5;fill-rule:nonzero;"/><g><path d="M150,166.754c-30.746,0 -55.757,-25.026 -55.757,-55.785c0,-30.754 25.011,-55.78 55.757,-55.78c30.746,0 55.757,25.026 55.757,55.78c0,30.759 -25.011,55.785 -55.757,55.785m0,-127.133c-39.326,0 -71.323,32.006 -71.323,71.348c0,39.346 31.997,71.357 71.323,71.357c39.33,0 71.323,-32.011 71.323,-71.357c0,-39.342 -31.993,-71.348 -71.323,-71.348" style="fill:#fae6d5;fill-rule:nonzero;"/><path d="M115.11,82.779c0.613,0.038 1.209,0.111 1.804,0.261c0.887,0.228 1.732,0.596 2.503,1.089c0.339,0.219 0.416,0.288 0.737,0.532l30.583,24.567c5.297,-2.984 10.594,-5.968 15.9,-8.935c1.963,-1.089 3.917,-2.186 5.893,-3.254c0.493,-0.262 0.981,-0.532 1.496,-0.746c0.133,-0.06 0.668,-0.24 0.788,-0.279c1.736,-0.531 3.622,-0.497 5.336,0.095c0.861,0.3 1.676,0.741 2.4,1.294c0.604,0.463 1.144,1.008 1.607,1.613c1.676,2.203 2.186,5.153 1.35,7.79c-0.278,0.87 -0.694,1.698 -1.23,2.435c-0.626,0.866 -1.41,1.608 -2.306,2.187c-0.432,0.274 -0.895,0.489 -1.345,0.729c-1.89,1.02 -3.763,2.071 -5.636,3.112c-6.973,3.898 -13.929,7.821 -20.884,11.748l-0.395,0.206c-0.672,0.317 -1.358,0.575 -2.091,0.725c-1.74,0.355 -3.579,0.158 -5.207,-0.562c-0.682,-0.304 -1.294,-0.699 -1.886,-1.153l-35.104,-28.199c-0.309,-0.262 -0.394,-0.322 -0.682,-0.609c-0.647,-0.643 -1.187,-1.389 -1.598,-2.208c-0.416,-0.815 -0.694,-1.694 -0.832,-2.598c-0.364,-2.427 0.356,-4.944 1.942,-6.818c0.488,-0.578 1.058,-1.093 1.688,-1.522c0.879,-0.604 1.869,-1.041 2.906,-1.282c0.446,-0.107 0.896,-0.158 1.354,-0.205c0.455,-0.018 0.455,-0.018 0.909,-0.013l0,0Zm64.8,29.614l-0.441,0.124l-0.442,0.103c-0.45,0.077 -0.45,0.077 -0.904,0.128l1.106,-0.098c0.54,-0.197 1.221,-0.446 0.681,-0.257l0,0Zm0.437,-0.155c0.197,-0.073 0.197,-0.068 0.386,-0.154c-0.129,0.051 -0.257,0.103 -0.386,0.154Z" style="fill:#fae6d5;fill-rule:nonzero;"/></g></g></g></g></svg>