<?xml version="1.0" encoding="UTF-8" standalone="no"?><!DOCTYPE svg PUBLIC "-//W3C//DTD SVG 1.1//EN" "http://www.w3.org/Graphics/SVG/1.1/DTD/svg11.dtd"><svg width="100%" height="100%" viewBox="0 0 300 100" version="1.1" xmlns="http://www.w3.org/2000/svg" xmlns:xlink="http://www.w3.org/1999/xlink" xml:space="preserve" style="fill-rule:evenodd;clip-rule:evenodd;stroke-linejoin:round;stroke-miterlimit:1.41421;"><g id="Artboard1"><rect x="-0.003" y="0" width="300" height="100" style="fill:none;"/><g><path d="M299.637,-162.755l-237.182,0l-61.191,68.355l0,6.098l-0.225,0.253l0.225,0l0,266.804l298.595,0l-0.222,-341.51l0,0Z" style="fill:#fff;fill-rule:nonzero;"/><path d="M299.772,-25.839l-299.774,0.054l0,149.625l300,0l-0.226,-149.679Zm-18.14,129.604l-263.211,0l0,-110.126l263.434,0.863l-0.223,109.263Z" style="fill:#f2e2e2;fill-rule:nonzero;"/><path d="M191.141,41.991c-0.091,0.029 -0.214,-0.001 -0.307,0.024c-0.019,-0.15 -0.048,-0.296 -0.048,-0.449c-0.029,0.005 -0.064,0.02 -0.092,0.027c-0.009,-0.147 -0.004,-0.302 -0.012,-0.449c-0.034,0.01 -0.09,0.013 -0.129,0.026c-0.083,0.026 0.049,-0.727 0.08,-0.812c0.131,-0.366 0.256,-0.66 0.304,-1.054c0.043,-0.351 0.044,-0.707 -0.001,-1.058c-0.014,-0.116 -0.186,-0.162 -0.218,-0.029c-0.138,0.566 -0.518,1.027 -0.855,1.501c-0.004,-0.001 -0.007,-0.003 -0.011,-0.004c0.13,-0.42 0.377,-0.805 0.627,-1.166c0.067,-0.096 -0.06,-0.204 -0.152,-0.152c-0.33,0.185 -0.575,0.478 -0.761,0.803c-0.202,0.351 -0.287,0.769 -0.752,0.849c0.001,-0.206 0.007,-0.4 -0.042,-0.604c-0.019,-0.077 -0.132,-0.112 -0.187,-0.049c-0.146,0.171 -0.231,0.379 -0.369,0.556c-0.086,0.112 -0.193,0.207 -0.29,0.312c-0.268,0.291 -0.524,0.566 -0.814,0.835c-0.264,0.245 -0.524,0.493 -0.773,0.753c-0.488,0.509 -1.009,1.076 -1.278,1.737c-0.029,0.073 -0.055,0.147 -0.075,0.223c-0.216,0.84 -0.056,1.4 0.069,1.674c-0.271,0.252 -0.777,0.905 -1.102,2.444c-0.362,1.716 -0.585,4.044 0.913,6.835c1.338,2.493 2.722,5.07 1.268,6.622c-0.074,0.047 -0.411,0.252 -0.819,0.252c-0.462,0 -0.861,-0.263 -1.184,-0.781c-0.438,-0.7 -0.665,-1.306 -0.865,-1.842c-0.245,-0.654 -0.457,-1.22 -0.96,-1.727c-0.098,-0.099 -0.113,-0.435 -0.135,-0.943c-0.023,-0.522 -0.058,-1.311 -0.206,-2.418c-0.034,-0.257 -0.169,-0.71 -0.356,-1.337c-0.452,-1.518 -1.189,-3.992 -0.893,-5.372c0,-0.001 0.001,-0.002 0.001,-0.004c0.018,-0.073 0.038,-0.147 0.06,-0.22c0.005,-0.017 0.01,-0.035 0.017,-0.052c0.285,-0.774 0.806,-1.511 1.322,-2.184c0.239,-0.188 0.515,-0.299 0.821,-0.216c0.078,0.021 0.165,-0.055 0.137,-0.137c-0.07,-0.208 -0.231,-0.488 -0.115,-0.681c0.137,-0.23 0.306,-0.424 0.413,-0.674c0.065,-0.152 0.129,-0.315 0.174,-0.473c0.114,-0.394 0.25,-1.774 0.892,-1.655c0.045,-0.294 -0.074,-0.607 -0.031,-0.912c0.06,-0.434 0.316,-0.739 0.506,-1.11c0.172,-0.335 0.213,-0.721 0.253,-1.089c0.05,-0.453 0.308,-0.587 0.689,-0.806c0.239,-0.138 0.226,-0.004 0.026,-0.231c-0.429,-0.486 -0.67,-0.667 -0.836,-1.308c-0.11,-0.427 -0.323,-1.027 0.307,-1.114c0.235,-0.032 0.714,0.25 0.858,-0.054c0.176,-0.372 -0.798,-1.029 -0.88,-1.376c-0.109,-0.46 0.557,-0.159 0.554,-0.218c-0.011,-0.241 -0.274,-0.378 -0.426,-0.551c-0.196,-0.224 -0.341,-0.47 -0.457,-0.747c-0.246,-0.586 -0.349,-1.249 -0.467,-1.867c-0.112,-0.587 -0.407,-1.115 -0.59,-1.687c-0.065,-0.203 -0.134,-0.438 -0.103,-0.653c0.025,-0.165 0.177,-0.289 0.197,-0.422c0.05,-0.324 -0.115,-0.418 -0.398,-0.549c-0.656,-0.305 -2.157,-0.33 -2.089,-1.349c0.012,-0.178 0.19,-0.257 0.099,-0.422c-0.162,-0.295 -0.783,-0.073 -1.051,-0.115c-0.495,-0.077 -0.832,-0.384 -1.201,-0.69c-0.573,-0.474 -1.468,-0.886 -2.226,-0.848c-0.48,0.024 -1.096,0.452 -1.326,0.865c-0.04,0.071 -0.396,0.721 -0.373,1.159c-0.056,0.17 -0.711,0.645 -1.415,1.025c-0.05,0.027 -0.088,0.073 -0.106,0.128c-0.063,0.193 -0.217,0.5 -0.363,0.575c-0.037,0.018 -0.152,0.061 -0.275,0.106c-0.832,0.308 -2.564,0.948 -2.559,2.006c0.001,0.189 0.036,0.372 0.094,0.547c-0.023,0.356 0.033,0.701 0.229,1.002c0.011,0.266 0.14,0.541 0.379,0.799c0.021,0.023 0.044,0.035 0.068,0.035c0.022,0 0.042,-0.009 0.057,-0.026c0.035,-0.04 0.043,-0.162 0.039,-0.308c0.104,0.063 0.215,0.119 0.328,0.171c0.041,0.16 0.146,0.318 0.317,0.475c0.028,0.026 0.055,0.038 0.082,0.038c0.026,0 0.049,-0.011 0.067,-0.031c0.023,-0.027 0.035,-0.079 0.041,-0.141c0.042,0.042 0.082,0.083 0.116,0.121c0.166,0.185 0.353,0.292 0.504,0.37c-0.132,0.07 -0.241,0.186 -0.347,0.336c-0.164,0.232 -0.341,0.364 -0.628,0.429c-0.083,0.019 -0.165,0.038 -0.245,0.059c-0.033,-0.002 -0.065,-0.004 -0.098,-0.007c0.002,-0.172 0.012,-0.374 0.043,-0.439c0.02,-0.042 0.018,-0.084 -0.006,-0.114c-0.026,-0.034 -0.072,-0.047 -0.127,-0.037c-0.102,0.019 -0.245,0.122 -0.314,0.351c-0.029,0.098 -0.052,0.184 -0.064,0.258c-0.208,0.069 -0.32,0.251 -0.337,0.554c-0.012,0.208 0,0.393 0.031,0.558c-0.002,0.007 -0.004,0.013 -0.007,0.021c-0.046,0.135 -0.104,0.304 -0.056,0.399c0.032,0.066 0.151,0.135 0.266,0.202c0.038,0.022 0.073,0.043 0.103,0.062c0.113,0.142 0.246,0.253 0.384,0.34c0.086,0.087 0.167,0.175 0.241,0.265c0.024,0.028 0.046,0.058 0.067,0.086c0.077,0.105 0.15,0.205 0.295,0.205c0.02,0 0.041,-0.002 0.063,-0.006c0.129,-0.022 0.248,-0.119 0.364,-0.213c0.066,-0.053 0.129,-0.104 0.188,-0.137c0.007,-0.003 0.013,-0.006 0.02,-0.01c0.249,-0.048 0.516,-0.123 0.793,-0.201c0.4,-0.113 0.814,-0.23 1.155,-0.251c0.035,-0.002 0.068,-0.001 0.101,-0.001c0.128,0.029 0.262,0.054 0.388,0.089c0.094,0.047 0.164,0.105 0.211,0.159c0.258,0.298 -0.201,0.438 -0.418,0.516c-0.132,0.047 -0.24,0.119 -0.352,0.203c-0.262,0.194 -0.578,0.296 -0.876,0.417c-0.337,0.137 -0.69,0.236 -1.04,0.336c-0.978,0.283 -2.087,0.602 -2.811,1.514c-0.268,0.338 -0.759,0.989 -0.761,1.011c-0.223,0.312 -0.398,0.574 -0.531,0.775c-0.055,-0.404 -0.2,-0.988 -0.595,-1.7c-0.09,-0.161 -0.194,-0.358 -0.309,-0.578c-0.25,-0.623 -0.53,-1.233 -0.864,-1.829c-0.108,-0.194 -0.217,-0.387 -0.326,-0.581c-0.77,-1.616 -1.503,-3.253 -1.564,-3.577c0.132,-0.407 0.468,-2.256 0.008,-3.016c-0.1,-0.165 -0.233,-0.275 -0.391,-0.33l0.646,-1.063c0.496,-0.094 1.782,-0.354 2.007,-0.542c0.269,-0.223 0.624,-0.966 0.754,-1.291c0.025,-0.061 0.257,-0.575 0.578,-1.285c5.469,-12.099 5.349,-12.286 5.243,-12.45c-0.034,-0.052 -0.091,-0.083 -0.153,-0.083c-0.09,0 -0.154,0.062 -0.211,0.132l-9.447,11.726c-0.09,0.083 -0.607,0.596 -0.449,1.303c0.125,0.566 0.333,1.406 0.392,1.645l-0.587,0.975c-0.182,-0.176 -0.429,-0.286 -0.688,-0.286c-0.328,0 -0.594,0.177 -0.731,0.487c-0.086,0.196 -0.144,0.363 -0.196,0.511c-0.111,0.321 -0.163,0.454 -0.332,0.537c-0.364,0.177 -0.397,0.524 -0.422,0.778c-0.01,0.102 -0.019,0.199 -0.045,0.272c-0.026,0.07 -0.144,0.162 -0.249,0.244c-0.206,0.161 -0.464,0.362 -0.461,0.697c0.002,0.269 0.177,0.727 0.476,1.165l-1.154,1.919c-0.825,-1.461 -1.687,-2.751 -2.508,-3.853c-3.388,-4.554 -6.733,-6.966 -6.874,-7.066c-0.102,-0.073 -0.219,-0.109 -0.334,-0.104c-0.119,-0.003 -0.234,0.031 -0.336,0.104c-0.141,0.1 -3.486,2.512 -6.875,7.066c-0.855,1.149 -1.754,2.499 -2.611,4.036l-1.155,-1.921c0.381,-0.487 0.606,-1.04 0.609,-1.346c0.003,-0.335 -0.255,-0.536 -0.462,-0.697c-0.104,-0.082 -0.222,-0.174 -0.248,-0.244c-0.027,-0.073 -0.036,-0.17 -0.046,-0.272c-0.024,-0.254 -0.058,-0.601 -0.421,-0.778c-0.17,-0.083 -0.222,-0.216 -0.333,-0.537c-0.051,-0.148 -0.109,-0.315 -0.196,-0.511c-0.136,-0.31 -0.403,-0.487 -0.73,-0.487c-0.334,0 -0.65,0.183 -0.829,0.455l-0.688,-1.144c0.06,-0.239 0.267,-1.079 0.393,-1.645c0.157,-0.707 -0.36,-1.22 -0.45,-1.303l-9.447,-11.728c-0.056,-0.068 -0.12,-0.13 -0.211,-0.13c-0.062,0 -0.119,0.031 -0.152,0.083c-0.106,0.165 -0.227,0.351 5.243,12.452c0.321,0.71 0.553,1.222 0.577,1.283c0.13,0.325 0.485,1.068 0.754,1.291c0.225,0.189 1.511,0.448 2.008,0.542l0.704,1.16c-0.08,0.06 -0.15,0.137 -0.209,0.233c-0.46,0.76 -0.124,2.609 0.009,3.016c-0.062,0.325 -0.795,1.961 -1.565,3.577c-0.109,0.194 -0.217,0.388 -0.326,0.581c-0.334,0.596 -0.614,1.206 -0.864,1.829c-0.114,0.22 -0.219,0.417 -0.309,0.578c-0.395,0.712 -0.54,1.296 -0.595,1.7c-0.132,-0.201 -0.308,-0.463 -0.53,-0.775c-0.003,-0.022 -0.494,-0.673 -0.762,-1.011c-0.723,-0.912 -1.832,-1.231 -2.811,-1.513c-0.35,-0.101 -0.702,-0.2 -1.04,-0.337c-0.298,-0.121 -0.613,-0.223 -0.875,-0.417c-0.113,-0.084 -0.221,-0.156 -0.353,-0.203c-0.217,-0.078 -0.676,-0.218 -0.417,-0.516c0.047,-0.054 0.116,-0.112 0.21,-0.159c0.126,-0.035 0.26,-0.06 0.389,-0.089c0.032,0 0.065,-0.001 0.101,0.001c0.34,0.021 0.754,0.138 1.155,0.251c0.276,0.078 0.543,0.153 0.792,0.201c0.007,0.004 0.013,0.007 0.02,0.011c0.06,0.033 0.122,0.083 0.188,0.136c0.116,0.094 0.236,0.191 0.364,0.213c0.023,0.004 0.044,0.006 0.063,0.006c0.145,0 0.219,-0.1 0.296,-0.205c0.021,-0.028 0.042,-0.058 0.066,-0.086c0.075,-0.09 0.155,-0.178 0.242,-0.265c0.138,-0.087 0.27,-0.198 0.383,-0.34c0.03,-0.019 0.066,-0.04 0.103,-0.062c0.115,-0.067 0.234,-0.136 0.267,-0.202c0.047,-0.095 -0.011,-0.264 -0.057,-0.399c-0.002,-0.008 -0.004,-0.014 -0.007,-0.021c0.031,-0.165 0.044,-0.35 0.032,-0.558c-0.018,-0.302 -0.13,-0.485 -0.338,-0.554c-0.012,-0.074 -0.034,-0.16 -0.064,-0.257c-0.069,-0.23 -0.212,-0.333 -0.313,-0.352c-0.055,-0.01 -0.102,0.003 -0.128,0.037c-0.023,0.031 -0.025,0.072 -0.006,0.114c0.031,0.065 0.042,0.267 0.043,0.44c-0.032,0.002 -0.064,0.004 -0.097,0.006c-0.081,-0.021 -0.163,-0.04 -0.246,-0.059c-0.286,-0.065 -0.464,-0.197 -0.628,-0.429c-0.106,-0.149 -0.215,-0.266 -0.347,-0.336c0.151,-0.078 0.339,-0.185 0.504,-0.369c0.034,-0.039 0.074,-0.08 0.116,-0.122c0.006,0.063 0.018,0.114 0.042,0.141c0.017,0.02 0.041,0.031 0.066,0.031c0.027,0 0.054,-0.012 0.082,-0.037c0.172,-0.158 0.276,-0.315 0.317,-0.475c0.113,-0.053 0.224,-0.109 0.329,-0.172c-0.005,0.146 0.004,0.268 0.039,0.308c0.015,0.017 0.035,0.026 0.056,0.026c0.024,0 0.047,-0.011 0.068,-0.034c0.239,-0.259 0.368,-0.533 0.38,-0.8c0.196,-0.301 0.251,-0.646 0.228,-1.001c0.058,-0.176 0.093,-0.358 0.094,-0.548c0.005,-1.057 -1.727,-1.698 -2.559,-2.005c-0.122,-0.045 -0.238,-0.088 -0.275,-0.107c-0.145,-0.075 -0.3,-0.381 -0.363,-0.575c-0.018,-0.055 -0.056,-0.1 -0.106,-0.128c-0.703,-0.379 -1.359,-0.855 -1.415,-1.025c0.023,-0.438 -0.332,-1.088 -0.372,-1.159c-0.231,-0.413 -0.846,-0.841 -1.327,-0.865c-0.758,-0.037 -1.653,0.374 -2.226,0.849c-0.369,0.305 -0.706,0.612 -1.201,0.689c-0.268,0.042 -0.889,-0.18 -1.051,0.115c-0.091,0.166 0.088,0.244 0.1,0.422c0.067,1.019 -1.433,1.044 -2.09,1.349c-0.283,0.132 -0.448,0.226 -0.398,0.55c0.021,0.133 0.173,0.256 0.197,0.421c0.031,0.216 -0.038,0.45 -0.103,0.653c-0.183,0.572 -0.478,1.1 -0.59,1.688c-0.118,0.618 -0.22,1.281 -0.466,1.867c-0.116,0.277 -0.262,0.523 -0.458,0.746c-0.152,0.174 -0.415,0.31 -0.426,0.551c-0.003,0.06 0.664,-0.242 0.554,0.218c-0.082,0.347 -1.056,1.004 -0.88,1.376c0.144,0.304 0.623,0.022 0.859,0.055c0.63,0.086 0.417,0.686 0.306,1.113c-0.166,0.642 -0.407,0.822 -0.836,1.309c-0.199,0.226 -0.212,0.092 0.027,0.23c0.38,0.22 0.638,0.354 0.688,0.807c0.04,0.368 0.082,0.754 0.253,1.088c0.19,0.371 0.446,0.676 0.507,1.111c0.042,0.304 -0.076,0.618 -0.032,0.912c0.642,-0.12 0.779,1.261 0.892,1.655c0.046,0.157 0.109,0.32 0.175,0.472c0.107,0.25 0.275,0.445 0.412,0.674c0.116,0.194 -0.044,0.474 -0.115,0.681c-0.028,0.082 0.059,0.159 0.137,0.137c0.306,-0.083 0.582,0.028 0.821,0.217c0.516,0.672 1.038,1.409 1.323,2.184c0.006,0.016 0.011,0.034 0.017,0.051c0.021,0.073 0.041,0.147 0.059,0.221c0.001,0.001 0.001,0.002 0.002,0.003c0.295,1.38 -0.441,3.854 -0.894,5.373c-0.186,0.626 -0.321,1.079 -0.356,1.336c-0.147,1.107 -0.182,1.896 -0.205,2.418c-0.022,0.508 -0.037,0.845 -0.135,0.943c-0.504,0.507 -0.715,1.073 -0.961,1.728c-0.2,0.535 -0.427,1.142 -0.864,1.841c-0.324,0.518 -0.723,0.781 -1.185,0.781c-0.407,0 -0.745,-0.204 -0.818,-0.252c-1.454,-1.551 -0.071,-4.129 1.267,-6.621c1.498,-2.792 1.275,-5.119 0.913,-6.835c-0.325,-1.54 -0.83,-2.193 -1.101,-2.445c0.125,-0.273 0.284,-0.834 0.068,-1.673c-0.019,-0.076 -0.045,-0.151 -0.075,-0.223c-0.268,-0.662 -0.79,-1.229 -1.278,-1.737c-0.249,-0.26 -0.509,-0.509 -0.773,-0.754c-0.29,-0.269 -0.545,-0.544 -0.814,-0.835c-0.097,-0.105 -0.204,-0.199 -0.29,-0.311c-0.137,-0.178 -0.223,-0.386 -0.369,-0.556c-0.054,-0.064 -0.167,-0.029 -0.186,0.049c-0.049,0.203 -0.044,0.398 -0.042,0.603c-0.466,-0.08 -0.551,-0.497 -0.752,-0.849c-0.186,-0.324 -0.432,-0.618 -0.761,-0.803c-0.092,-0.052 -0.219,0.056 -0.153,0.152c0.251,0.361 0.497,0.746 0.627,1.166c-0.003,0.002 -0.007,0.003 -0.011,0.005c-0.337,-0.475 -0.717,-0.935 -0.854,-1.502c-0.032,-0.132 -0.204,-0.086 -0.219,0.03c-0.045,0.35 -0.043,0.706 -0.001,1.057c0.048,0.394 0.173,0.688 0.305,1.054c0.03,0.085 0.162,0.838 0.08,0.812c-0.04,-0.012 -0.096,-0.016 -0.13,-0.026c-0.008,0.148 -0.002,0.302 -0.011,0.449c-0.029,-0.007 -0.063,-0.021 -0.093,-0.027c0,0.153 -0.029,0.3 -0.048,0.45c-0.093,-0.025 -0.216,0.005 -0.306,-0.025c-0.028,0.401 0.428,0.801 0.66,1.091c0.125,0.155 0.878,0.91 0.764,1.105c-0.087,0.149 -0.264,-0.027 -0.373,-0.05c-0.442,-0.094 0.431,0.793 0.525,0.876c0.523,0.469 0.908,1.073 1.627,1.276c0.729,0.206 1.654,-0.097 1.98,0.733c0.338,0.863 0.446,1.747 0.601,2.654c0.285,1.678 -1.1,4.365 -2.017,6.143c-0.595,1.153 -0.995,2.242 -1.26,3.505c-0.228,1.091 -0.368,2.133 0.388,3.094c0.17,0.215 0.364,0.394 0.576,0.542c0.125,0.112 0.262,0.214 0.416,0.303c0.375,0.216 0.783,0.326 1.211,0.326c0.128,0 0.253,-0.01 0.377,-0.028c0.784,0.031 1.594,-0.102 2.297,-0.29c0.037,0.265 0.086,0.554 0.143,0.851c0,0.002 -0.001,0.004 -0.001,0.007c0.012,0.225 0.053,0.453 0.124,0.671c0.072,0.382 0.134,0.768 0.086,1.156c-0.016,0.129 0.009,0.248 -0.001,0.374c-0.012,0.156 -0.082,0.318 -0.166,0.446c-0.182,0.276 -0.488,0.35 -0.756,0.504c-0.327,0.188 -0.681,0.328 -1.039,0.443c-0.446,0.144 -0.888,0.203 -1.256,0.52c-0.186,0.161 -0.288,0.351 -0.366,0.584c-0.133,0.397 -0.139,0.823 -0.115,1.237c0.03,0.514 0.161,2.27 0.594,3.251c0.389,0.88 0.261,2.291 0.09,2.974c-0.065,0.258 -0.091,0.513 -0.077,0.774c-0.419,0.106 -0.871,0.393 -1.201,0.782c-0.418,0.491 -0.615,1.156 -0.554,1.872c0.049,0.581 0.26,1.154 0.579,1.571c0.236,0.308 0.788,1.029 0.694,1.52c-0.133,0.697 -0.074,1.138 -0.003,1.384c0.059,0.438 0.381,0.999 1.456,1.447c0.672,0.281 1.47,0.448 2.135,0.448c3.387,0 5.651,-0.261 9.359,-1.744c0.499,-0.2 1.104,-0.305 1.805,-0.428c0.119,-0.02 0.241,-0.042 0.364,-0.064c0.077,0.491 0.204,0.881 0.206,0.889c0.182,0.549 0.138,1.468 0.062,1.689c-0.213,0.61 -0.046,0.998 0.099,1.195c0.322,0.483 1.234,1.253 2.748,1.253c0.994,0 2.497,-0.47 7.945,-2.339c4.622,-1.585 8.384,-1.6 10.191,-1.608c0.15,0 0.285,-0.001 0.404,-0.002l0.018,0c0.119,0.001 0.254,0.002 0.404,0.002c1.807,0.007 5.569,0.023 10.191,1.608c5.448,1.869 6.951,2.339 7.944,2.339c1.515,0 2.427,-0.77 2.749,-1.253c0.145,-0.197 0.312,-0.585 0.099,-1.195c-0.076,-0.221 -0.12,-1.14 0.062,-1.689c0.002,-0.008 0.129,-0.398 0.206,-0.889c0.123,0.022 0.245,0.044 0.364,0.064c0.701,0.123 1.306,0.228 1.806,0.428c3.707,1.483 5.971,1.744 9.358,1.744c0.665,0 1.463,-0.167 2.135,-0.448c1.075,-0.448 1.397,-1.009 1.456,-1.447c0.071,-0.246 0.129,-0.687 -0.003,-1.383c-0.094,-0.492 0.458,-1.213 0.693,-1.521c0.32,-0.417 0.531,-0.99 0.58,-1.571c0.061,-0.716 -0.136,-1.381 -0.554,-1.872c-0.42,-0.494 -1.035,-0.826 -1.532,-0.826c-0.014,0 -0.028,0.002 -0.042,0.003c0.009,-0.247 -0.018,-0.489 -0.079,-0.733c-0.172,-0.683 -0.3,-2.094 0.089,-2.974c0.433,-0.981 0.564,-2.737 0.594,-3.251c0.024,-0.415 0.019,-0.84 -0.115,-1.237c-0.078,-0.233 -0.18,-0.423 -0.366,-0.584c-0.368,-0.317 -0.809,-0.376 -1.256,-0.52c-0.358,-0.115 -0.712,-0.255 -1.039,-0.443c-0.267,-0.154 -0.574,-0.228 -0.755,-0.504c-0.085,-0.128 -0.155,-0.29 -0.167,-0.446c-0.009,-0.126 0.016,-0.245 0,-0.374c-0.048,-0.388 0.014,-0.774 0.085,-1.156c0.071,-0.218 0.112,-0.446 0.124,-0.671c0,-0.003 -0.001,-0.005 -0.001,-0.007c0.058,-0.297 0.106,-0.586 0.144,-0.851c0.702,0.188 1.513,0.322 2.297,0.29c0.123,0.018 0.249,0.028 0.376,0.028c0.429,0 0.836,-0.11 1.212,-0.326c0.154,-0.089 0.291,-0.191 0.415,-0.303c0.212,-0.148 0.406,-0.327 0.576,-0.542c0.756,-0.96 0.617,-2.003 0.388,-3.094c-0.265,-1.263 -0.665,-2.352 -1.259,-3.505c-0.917,-1.778 -2.303,-4.465 -2.017,-6.143c0.154,-0.907 0.262,-1.791 0.601,-2.654c0.326,-0.83 1.251,-0.527 1.979,-0.733c0.719,-0.203 1.105,-0.807 1.628,-1.276c0.093,-0.083 0.966,-0.97 0.525,-0.876c-0.11,0.023 -0.287,0.199 -0.374,0.05c-0.114,-0.195 0.64,-0.95 0.764,-1.105c0.233,-0.29 0.689,-0.69 0.662,-1.091l0,0Z" style="fill:#f2e2e2;"/></g></g></svg>