<?xml version="1.0" encoding="UTF-8" standalone="no"?><!DOCTYPE svg PUBLIC "-//W3C//DTD SVG 1.1//EN" "http://www.w3.org/Graphics/SVG/1.1/DTD/svg11.dtd"><svg width="100%" height="100%" viewBox="0 0 301 343" version="1.1" xmlns="http://www.w3.org/2000/svg" xmlns:xlink="http://www.w3.org/1999/xlink" xml:space="preserve" style="fill-rule:evenodd;clip-rule:evenodd;stroke-linejoin:round;stroke-miterlimit:1.41421;"><rect id="Artboard2" x="0" y="0" width="300.038" height="342.9" style="fill:none;"/><clipPath id="_clip1"><rect x="0" y="0" width="300.038" height="342.9"/></clipPath><g clip-path="url(#_clip1)"><path d="M299.815,0l-238.149,0l-61.439,68.631l0,6.125l-0.227,0.253l0.227,0l0,267.891l299.811,0l-0.223,-342.9Z" style="fill:#fff;fill-rule:nonzero;"/><g><path d="M299.815,0l-238.149,0l-61.439,68.631l0,6.125l-0.227,0.253l0.227,0l0,267.891l299.811,0l-0.223,-342.9Zm-17.938,322.742l-263.716,0l0,-247.733l49.112,-54.851l214.381,0l0,302.584l0.223,0Z" style="fill:#f7edce;fill-rule:nonzero;"/><rect x="39.695" y="157.417" width="220.433" height="8.671" style="fill:#f7edce;"/><rect x="39.695" y="134.455" width="220.433" height="8.671" style="fill:#f7edce;"/><rect x="39.695" y="225.281" width="220.433" height="8.671" style="fill:#f7edce;"/><rect x="39.695" y="202.32" width="220.433" height="8.671" style="fill:#f7edce;"/><rect x="39.695" y="179.358" width="220.433" height="8.671" style="fill:#f7edce;"/><rect x="39.695" y="293.145" width="220.433" height="8.671" style="fill:#f7edce;"/><rect x="39.695" y="270.184" width="220.433" height="8.671" style="fill:#f7edce;"/><rect x="39.695" y="247.222" width="220.433" height="8.671" style="fill:#f7edce;"/><path d="M104.634,39.854l-48.803,10.046l8.334,40.488l48.803,-10.046l-8.334,-40.488Z" style="fill:#f7edce;"/><path d="M159.417,61.416l-59.783,-16.218l-7.518,27.711l59.783,16.218l7.518,-27.711Z" style="fill:#f7edce;"/><rect x="141.677" y="45.633" width="35.48" height="35.668" style="fill:#f7edce;"/><path d="M239.903,46.916l-73.872,29.767l6.097,15.129l73.871,-29.768l-6.096,-15.128Z" style="fill:#f7edce;"/><path d="M84.399,63.983l10.525,52.116l1.884,-0.38l-10.524,-52.116l-1.885,0.38Z" style="fill:#f7edce;"/><path d="M131.159,63.603l-14.719,52.466l3.934,1.104l14.719,-52.467l-3.934,-1.103Z" style="fill:#f7edce;"/><path d="M159.417,64.566l0,54.492l2.043,0l0,-54.492l-2.043,0Z" style="fill:#f7edce;"/><path d="M166.13,76.81l16.471,41.294l2.018,-0.805l-16.471,-41.294l-2.018,0.805Z" style="fill:#f7edce;"/><path d="M237.932,47.934l16.471,41.295l1.987,-0.793l-16.472,-41.294l-1.986,0.792Z" style="fill:#f7edce;"/></g><rect id="Artboard1" x="0" y="0" width="300.038" height="342.9" style="fill:none;"/></g></svg>