<?xml version="1.0" encoding="UTF-8" standalone="no"?><!DOCTYPE svg PUBLIC "-//W3C//DTD SVG 1.1//EN" "http://www.w3.org/Graphics/SVG/1.1/DTD/svg11.dtd"><svg width="100%" height="100%" viewBox="0 0 70 80" version="1.1" xmlns="http://www.w3.org/2000/svg" xmlns:xlink="http://www.w3.org/1999/xlink" xml:space="preserve" style="fill-rule:evenodd;clip-rule:evenodd;stroke-linejoin:round;stroke-miterlimit:1.41421;"><rect id="Artboard1" x="0" y="0" width="70" height="80" style="fill:none;"/><g><path d="M69.948,0l-55.561,0l-14.334,16.012l0,1.429l-0.053,0.059l0.053,0l0,62.5l69.947,0l-0.052,-80Z" style="fill:#fff;fill-rule:nonzero;"/><rect x="18.358" y="52.559" width="33.284" height="2.023" style="fill:#ccecdd;"/><rect x="18.358" y="47.202" width="33.284" height="2.023" style="fill:#ccecdd;"/><rect x="18.358" y="68.392" width="33.284" height="2.023" style="fill:#ccecdd;"/><rect x="18.358" y="63.035" width="33.284" height="2.023" style="fill:#ccecdd;"/><rect x="18.358" y="57.678" width="33.284" height="2.023" style="fill:#ccecdd;"/><path d="M69.948,0l-55.561,0l-14.334,16.012l0,1.429l-0.053,0.059l0.053,0l0,62.5l69.947,0l-0.052,-80Zm-4.185,75.297l-61.526,0l0,-57.797l11.458,-12.797l50.016,0l0,70.594l0.052,0Z" style="fill:#ccecdd;fill-rule:nonzero;"/><g><path d="M35,38.893c-7.174,0 -13.01,-5.837 -13.01,-13.011c0,-7.173 5.836,-13.01 13.01,-13.01c7.174,0 13.01,5.837 13.01,13.01c0,7.174 -5.836,13.011 -13.01,13.011m0,-29.652c-9.176,0 -16.642,7.465 -16.642,16.641c0,9.177 7.466,16.643 16.642,16.643c9.177,0 16.642,-7.466 16.642,-16.643c0,-9.176 -7.465,-16.641 -16.642,-16.641" style="fill:#ccecdd;fill-rule:nonzero;"/><path d="M26.859,19.307c0.143,0.009 0.282,0.026 0.421,0.061c0.207,0.053 0.404,0.139 0.584,0.254c0.079,0.051 0.097,0.067 0.172,0.124l7.136,5.73c1.236,-0.696 2.472,-1.392 3.71,-2.084c0.458,-0.254 0.914,-0.51 1.375,-0.759c0.115,-0.061 0.229,-0.124 0.349,-0.174c0.031,-0.014 0.156,-0.056 0.184,-0.065c0.405,-0.124 0.845,-0.116 1.245,0.022c0.201,0.07 0.391,0.173 0.56,0.302c0.141,0.108 0.267,0.235 0.375,0.376c0.391,0.514 0.51,1.202 0.315,1.817c-0.065,0.203 -0.162,0.396 -0.287,0.568c-0.146,0.202 -0.329,0.375 -0.538,0.51c-0.101,0.064 -0.209,0.114 -0.314,0.17c-0.441,0.238 -0.878,0.483 -1.315,0.726c-1.627,0.909 -3.25,1.824 -4.873,2.74l-0.092,0.048c-0.157,0.074 -0.317,0.134 -0.488,0.169c-0.406,0.083 -0.835,0.037 -1.215,-0.131c-0.159,-0.071 -0.302,-0.163 -0.44,-0.269l-8.191,-6.577c-0.072,-0.061 -0.092,-0.075 -0.159,-0.142c-0.151,-0.15 -0.277,-0.324 -0.373,-0.515c-0.097,-0.19 -0.162,-0.395 -0.194,-0.606c-0.085,-0.566 0.083,-1.153 0.453,-1.59c0.114,-0.135 0.247,-0.255 0.394,-0.355c0.205,-0.141 0.436,-0.243 0.678,-0.299c0.104,-0.025 0.209,-0.037 0.316,-0.048c0.106,-0.004 0.106,-0.004 0.212,-0.003Zm15.12,6.907l-0.103,0.029l-0.103,0.024c-0.105,0.018 -0.105,0.018 -0.211,0.03l0.258,-0.023c0.126,-0.046 0.285,-0.104 0.159,-0.06Zm0.102,-0.036c0.046,-0.017 0.046,-0.016 0.09,-0.036c-0.03,0.012 -0.06,0.024 -0.09,0.036Z" style="fill:#ccecdd;fill-rule:nonzero;"/></g></g></svg>