<?xml version="1.0" encoding="UTF-8" standalone="no"?><!DOCTYPE svg PUBLIC "-//W3C//DTD SVG 1.1//EN" "http://www.w3.org/Graphics/SVG/1.1/DTD/svg11.dtd"><svg width="100%" height="100%" viewBox="0 0 70 80" version="1.1" xmlns="http://www.w3.org/2000/svg" xmlns:xlink="http://www.w3.org/1999/xlink" xml:space="preserve" style="fill-rule:evenodd;clip-rule:evenodd;stroke-linejoin:round;stroke-miterlimit:1.41421;"><rect id="Artboard1" x="0" y="0" width="70" height="80" style="fill:none;"/><path d="M69.948,0l-55.561,0l-14.334,16.012l0,1.429l-0.053,0.059l0.053,0l0,62.5l69.947,0l-0.052,-80Z" style="fill:#fff;fill-rule:nonzero;"/><rect x="9.261" y="36.726" width="51.428" height="2.023" style="fill:#ccecdd;"/><rect x="9.261" y="31.369" width="51.428" height="2.023" style="fill:#ccecdd;"/><rect x="9.261" y="25.952" width="51.428" height="2.083" style="fill:#ccecdd;"/><rect x="39.452" y="20.655" width="21.237" height="2.023" style="fill:#ccecdd;"/><rect x="39.452" y="15.238" width="21.235" height="2.083" style="fill:#ccecdd;"/><rect x="39.452" y="9.941" width="21.235" height="2.023" style="fill:#ccecdd;"/><rect x="9.261" y="52.559" width="51.428" height="2.023" style="fill:#ccecdd;"/><rect x="9.261" y="47.202" width="51.428" height="2.023" style="fill:#ccecdd;"/><rect x="9.261" y="41.845" width="51.428" height="2.023" style="fill:#ccecdd;"/><rect x="9.261" y="68.392" width="51.428" height="2.023" style="fill:#ccecdd;"/><rect x="9.261" y="63.035" width="51.428" height="2.023" style="fill:#ccecdd;"/><rect x="9.261" y="57.678" width="51.428" height="2.023" style="fill:#ccecdd;"/><rect x="16" y="9.941" width="19" height="12.737" style="fill:#ccecdd;"/><path d="M69.948,0l-55.561,0l-14.334,16.012l0,1.429l-0.053,0.059l0.053,0l0,62.5l69.947,0l-0.052,-80Zm-4.185,75.297l-61.526,0l0,-57.797l11.458,-12.797l50.016,0l0,70.594l0.052,0Z" style="fill:#ccecdd;fill-rule:nonzero;"/></svg>