<?xml version="1.0" encoding="UTF-8" standalone="no"?><!DOCTYPE svg PUBLIC "-//W3C//DTD SVG 1.1//EN" "http://www.w3.org/Graphics/SVG/1.1/DTD/svg11.dtd"><svg width="100%" height="100%" viewBox="0 0 70 80" version="1.1" xmlns="http://www.w3.org/2000/svg" xmlns:xlink="http://www.w3.org/1999/xlink" xml:space="preserve" style="fill-rule:evenodd;clip-rule:evenodd;stroke-linejoin:round;stroke-miterlimit:1.41421;"><rect id="Artboard1" x="0" y="0" width="70" height="80" style="fill:none;"/><clipPath id="_clip1"><rect x="0" y="0" width="70" height="80"/></clipPath><g clip-path="url(#_clip1)"><path d="M69.948,0l-55.561,0l-14.334,16.012l0,1.429l-0.053,0.059l0.053,0l0,62.5l69.947,0l-0.052,-80Z" style="fill:#fff;fill-rule:nonzero;"/><g><rect x="9.261" y="36.726" width="24.066" height="2.023" style="fill:#99baab;"/><rect x="9.261" y="31.369" width="24.066" height="2.023" style="fill:#99baab;"/><rect x="9.261" y="25.952" width="24.066" height="2.083" style="fill:#99baab;"/><rect x="9.261" y="20.655" width="24.066" height="2.023" style="fill:#99baab;"/><rect x="20.613" y="15.238" width="12.713" height="2.083" style="fill:#99baab;"/><rect x="20.613" y="9.941" width="12.713" height="2.023" style="fill:#99baab;"/><rect x="9.261" y="52.559" width="24.066" height="2.023" style="fill:#99baab;"/><rect x="9.261" y="47.202" width="24.066" height="2.023" style="fill:#99baab;"/><rect x="9.261" y="41.845" width="24.066" height="2.023" style="fill:#99baab;"/><rect x="36.623" y="36.726" width="24.066" height="2.023" style="fill:#99baab;"/><rect x="36.623" y="31.369" width="24.066" height="2.023" style="fill:#99baab;"/><rect x="36.623" y="25.952" width="24.066" height="2.083" style="fill:#99baab;"/><rect x="36.623" y="20.655" width="24.066" height="2.023" style="fill:#99baab;"/><rect x="36.623" y="15.238" width="24.066" height="2.083" style="fill:#99baab;"/><rect x="36.623" y="9.941" width="24.066" height="2.023" style="fill:#99baab;fill-opacity:0.94;"/><rect x="36.623" y="52.559" width="24.066" height="2.023" style="fill:#99baab;"/><rect x="36.623" y="47.202" width="24.066" height="2.023" style="fill:#99baab;"/><rect x="36.623" y="41.845" width="24.066" height="2.023" style="fill:#99baab;"/><rect x="9.261" y="68.392" width="24.066" height="2.023" style="fill:#99baab;"/><rect x="9.261" y="63.035" width="24.066" height="2.023" style="fill:#99baab;"/><rect x="9.261" y="57.678" width="24.066" height="2.023" style="fill:#99baab;"/><rect x="36.623" y="68.392" width="24.066" height="2.023" style="fill:#99baab;"/><rect x="36.623" y="63.035" width="24.066" height="2.023" style="fill:#99baab;"/><rect x="36.623" y="57.678" width="24.066" height="2.023" style="fill:#99baab;"/><path d="M69.948,0l-55.561,0l-14.334,16.012l0,1.429l-0.053,0.059l0.053,0l0,62.5l69.947,0l-0.052,-80Zm-4.185,75.297l-61.526,0l0,-57.797l6.907,0c2.511,0 4.551,-2.262 4.551,-5.119l0,-7.678l50.016,0l0,70.594l0.052,0Z" style="fill:#99baab;fill-rule:nonzero;"/></g></g></svg>