<?xml version="1.0" encoding="UTF-8" standalone="no"?><!DOCTYPE svg PUBLIC "-//W3C//DTD SVG 1.1//EN" "http://www.w3.org/Graphics/SVG/1.1/DTD/svg11.dtd"><svg width="100%" height="100%" viewBox="0 0 100 100" version="1.1" xmlns="http://www.w3.org/2000/svg" xmlns:xlink="http://www.w3.org/1999/xlink" xml:space="preserve" style="fill-rule:evenodd;clip-rule:evenodd;stroke-linejoin:round;stroke-miterlimit:1.41421;"><g id="female"><path d="M34.54,40.517c0.145,0 0.287,-0.012 0.427,-0.029c2.715,8.257 8.381,15.227 14.899,15.208c6.52,-0.021 12.116,-7.023 14.744,-15.297c0.141,0.017 0.284,0.025 0.427,0.025c2.471,-0.006 3.015,-11.044 1.107,-11.724c-0.454,-6.693 -3.481,-11.085 -7.838,-13.403c0.37,-2.007 0.618,-3.8 0.649,-4.278c0.366,-5.644 -3.43,-10.564 -8.478,-10.99c-5.047,-0.424 -9.434,3.805 -9.797,9.447c-0.045,0.681 0.054,3.256 0.359,5.832c-0.036,0.027 -0.072,0.056 -0.109,0.082c-4.287,2.356 -7.234,6.756 -7.614,13.408c-1.905,0.69 -1.248,11.726 1.224,11.719" style="fill:#fff;fill-rule:nonzero;"/><path d="M85.002,75.794c-0.015,-2.93 -0.869,-9.032 -2.252,-11.079c-6.828,-10.102 -19.273,-7.138 -19.978,-7.698c-1.138,-0.901 -2.471,-0.951 -2.464,0.593c0.005,0.578 5.365,5.885 5.365,5.885c0,0 0.275,0.376 0.183,0.814c-0.115,0.532 -0.505,0.639 -0.655,0.642c-0.093,0 -3.485,0.01 -5.974,0.017c-1.231,0.002 -2.247,0.005 -2.526,0.007c-2.992,6.111 -6.738,13.771 -6.738,13.771c0,0 -3.823,-7.638 -6.876,-13.73c-0.38,0.002 -1.362,0.003 -2.527,0.007c-2.478,0.007 -5.79,0.017 -5.882,0.017c-0.151,0 -0.541,-0.104 -0.661,-0.637c-0.097,-0.436 0.173,-0.814 0.173,-0.814c0,0 5.218,-5.151 5.213,-5.918c-0.009,-1.542 -1.342,-1.485 -2.469,-0.577c-0.7,0.565 -14.031,-1.31 -19.899,7.818c-1.332,2.072 -2.153,8.163 -2.136,11.092c0.053,6.965 0.103,19.615 0.103,19.615c0.012,2.437 1.786,4.388 3.965,4.381l62.214,0c2.178,-0.005 3.934,-2.155 3.92,-4.588c0,0 -0.082,-12.65 -0.099,-19.618" style="fill:#fff;fill-rule:nonzero;"/></g></svg>