<?xml version="1.0" encoding="UTF-8" standalone="no"?><!DOCTYPE svg PUBLIC "-//W3C//DTD SVG 1.1//EN" "http://www.w3.org/Graphics/SVG/1.1/DTD/svg11.dtd"><svg width="100%" height="100%" viewBox="0 0 100 100" version="1.1" xmlns="http://www.w3.org/2000/svg" xmlns:xlink="http://www.w3.org/1999/xlink" xml:space="preserve" style="fill-rule:evenodd;clip-rule:evenodd;stroke-linejoin:round;stroke-miterlimit:1.41421;"><g id="male"><path d="M68.814,18.281c-0.771,-12.461 -9.032,-18.17 -19.118,-18.127c-10.087,0.043 -18.35,5.826 -19.122,18.288c-2.218,0.818 -2.862,3.554 -2.862,6.805c0,3.252 1.341,7.029 4.217,7.014c0.169,0 0.337,-0.013 0.5,-0.034c3.108,9.735 9.67,17.949 17.261,17.915c7.593,-0.031 14.157,-8.301 17.266,-18.063c0.166,0.022 0.331,0.031 0.499,0.031c2.878,-0.009 4.218,-3.806 4.218,-7.058c0,-3.251 -0.641,-5.972 -2.859,-6.771" style="fill:#006b3b;fill-rule:nonzero;"/><path d="M87.686,71.519c0,-2.127 -0.357,-4.161 -0.987,-6.063c-0.377,-1.724 -0.857,-3.242 -1.428,-4.101c-1.842,-2.779 -4.073,-4.655 -6.392,-5.917c-2.817,-1.768 -6.126,-2.798 -9.68,-2.785c0,0 -4.506,0.023 -5.883,0.028c-1.376,0.006 -2.159,0.58 -2.321,0.907c-0.006,0.009 -5.519,19.93 -5.519,19.93l-4.752,-10.94l4.794,-6.668l-0.353,-0.358c-1.897,0.295 -3.86,0.46 -5.875,0.468c-1.988,0.007 -3.926,-0.134 -5.8,-0.405l-0.206,0.213l5.421,6.761l-4.691,11.362l-5.826,-20.055c-0.248,-0.551 -0.682,-1.105 -2.168,-1.099c-1.488,0.005 -5.836,0.024 -5.836,0.024c-4.374,0.018 -8.389,1.603 -11.554,4.217c-1.721,1.152 -3.303,2.644 -4.566,4.618c-0.578,0.903 -1.065,2.507 -1.451,4.305c-0.592,1.854 -0.92,3.827 -0.921,5.884l0,1.75c0,0.072 -0.006,0.163 -0.006,0.234c0.002,1.698 0.006,3.543 0.006,5.449l0,2.902c-0.004,5.893 -0.006,13.171 -0.006,13.171c0,2.674 1.913,4.81 4.272,4.803l67.414,0c2.361,-0.011 4.272,-2.452 4.272,-5.124c0,0 0.003,0.177 0.003,-1.943l0.037,0l0.002,-21.568Z" style="fill:#006b3b;fill-rule:nonzero;"/></g></svg>