<?xml version="1.0" encoding="UTF-8" standalone="no"?><!DOCTYPE svg PUBLIC "-//W3C//DTD SVG 1.1//EN" "http://www.w3.org/Graphics/SVG/1.1/DTD/svg11.dtd"><svg width="100%" height="100%" viewBox="0 0 75 86" version="1.1" xmlns="http://www.w3.org/2000/svg" xmlns:xlink="http://www.w3.org/1999/xlink" xml:space="preserve" xmlns:serif="http://www.serif.com/" style="fill-rule:evenodd;clip-rule:evenodd;stroke-linejoin:round;stroke-miterlimit:2;"><path d="M74.944,0l-59.529,0l-15.358,17.163l0,1.531l-0.057,0.064l0.057,0l0,66.992l74.943,0l-0.056,-85.75Z" style="fill:#fff;"/><path d="M75,0l-60,0l-15,17l0.057,69l74.943,0l0,-86Zm-4.987,81.008l-65.028,0.05l0,-61.058l5.864,-0.016c5.263,0.471 7.256,-2.582 7.116,-7.984l0.035,-6.957l52.009,0l0.004,75.965Z" style="fill:#dfb838;fill-rule:nonzero;"/><rect x="10.082" y="25.037" width="54.953" height="2.992" style="fill:#dfb838;"/><rect x="9.963" y="73.034" width="55" height="3" style="fill:#dfb838;"/><rect x="10.035" y="65.034" width="55" height="3" style="fill:#dfb838;"/><rect x="10.035" y="57.034" width="55" height="3" style="fill:#dfb838;"/><rect x="9.963" y="49.034" width="55" height="3" style="fill:#dfb838;"/><rect x="9.963" y="41.034" width="55" height="3" style="fill:#dfb838;"/><rect x="9.963" y="33.034" width="55" height="3" style="fill:#dfb838;"/><rect x="22.963" y="17" width="42.072" height="3" style="fill:#dfb838;"/><rect x="22.963" y="9" width="42.003" height="3" style="fill:#dfb838;"/></svg>