<?xml version="1.0" encoding="UTF-8" standalone="no"?><!DOCTYPE svg PUBLIC "-//W3C//DTD SVG 1.1//EN" "http://www.w3.org/Graphics/SVG/1.1/DTD/svg11.dtd"><svg width="100%" height="100%" viewBox="0 0 75 86" version="1.1" xmlns="http://www.w3.org/2000/svg" xmlns:xlink="http://www.w3.org/1999/xlink" xml:space="preserve" xmlns:serif="http://www.serif.com/" style="fill-rule:evenodd;clip-rule:evenodd;stroke-linejoin:round;stroke-miterlimit:2;"><clipPath id="_clip1"><rect x="0" y="0" width="75" height="85.714"/></clipPath><g clip-path="url(#_clip1)"><rect id="Artboard1" x="0" y="0" width="75" height="85.714" style="fill:none;"/><g><path d="M74.944,0l-59.529,0l-15.358,17.156l-0,1.531l-0.057,0.063l0.057,0l-0,66.964l74.943,0l-0.056,-85.714Z" style="fill:#fff;fill-rule:nonzero;"/><g><rect x="9.923" y="39.349" width="25.785" height="2.168" style="fill:#267bd9;"/><rect x="9.923" y="33.61" width="25.785" height="2.167" style="fill:#267bd9;"/><rect x="9.923" y="27.806" width="25.785" height="2.232" style="fill:#267bd9;"/><rect x="9.923" y="22.13" width="25.785" height="2.168" style="fill:#267bd9;"/><rect x="22.085" y="16.326" width="13.621" height="2.232" style="fill:#267bd9;"/><rect x="22.085" y="10.651" width="13.621" height="2.168" style="fill:#267bd9;"/><rect x="9.923" y="56.313" width="25.785" height="2.168" style="fill:#267bd9;"/><rect x="9.923" y="50.574" width="25.785" height="2.168" style="fill:#267bd9;"/><rect x="9.923" y="44.834" width="25.785" height="2.167" style="fill:#267bd9;"/><rect x="39.239" y="39.349" width="25.785" height="2.168" style="fill:#267bd9;"/><rect x="39.239" y="33.61" width="25.785" height="2.167" style="fill:#267bd9;"/><rect x="39.239" y="27.806" width="25.785" height="2.232" style="fill:#267bd9;"/><rect x="39.239" y="22.13" width="25.785" height="2.168" style="fill:#267bd9;"/><rect x="39.239" y="16.326" width="25.785" height="2.232" style="fill:#267bd9;"/><rect x="39.239" y="10.651" width="25.785" height="2.168" style="fill:#267bd9;"/><rect x="39.239" y="56.313" width="25.785" height="2.168" style="fill:#267bd9;"/><rect x="39.239" y="50.574" width="25.785" height="2.168" style="fill:#267bd9;"/><rect x="39.239" y="44.834" width="25.785" height="2.167" style="fill:#267bd9;"/><rect x="9.923" y="73.277" width="25.785" height="2.168" style="fill:#267bd9;"/><rect x="9.923" y="67.538" width="25.785" height="2.167" style="fill:#267bd9;"/><rect x="9.923" y="61.798" width="25.785" height="2.168" style="fill:#267bd9;"/><rect x="39.239" y="73.277" width="25.785" height="2.168" style="fill:#267bd9;"/><rect x="39.239" y="67.538" width="25.785" height="2.167" style="fill:#267bd9;"/><rect x="39.239" y="61.798" width="25.785" height="2.168" style="fill:#267bd9;"/><path d="M74.944,0l-59.529,0l-15.358,17.156l-0,1.531l-0.057,0.063l0.057,0l-0,66.964l74.943,0l-0.056,-85.714Zm-4.484,80.675l-65.92,0l-0,-61.925l7.4,0c2.69,0 4.876,-2.424 4.876,-5.485l0,-8.226l53.589,-0l-0,75.636l0.055,0Z" style="fill:#267bd9;fill-rule:nonzero;"/></g></g></g></svg>