<?xml version="1.0" encoding="UTF-8" standalone="no"?><!DOCTYPE svg PUBLIC "-//W3C//DTD SVG 1.1//EN" "http://www.w3.org/Graphics/SVG/1.1/DTD/svg11.dtd"><svg width="100%" height="100%" viewBox="0 0 313 358" version="1.1" xmlns="http://www.w3.org/2000/svg" xmlns:xlink="http://www.w3.org/1999/xlink" xml:space="preserve" xmlns:serif="http://www.serif.com/" style="fill-rule:evenodd;clip-rule:evenodd;stroke-linejoin:round;stroke-miterlimit:2;"><g><g><path d="M312.311,0l-248.04,0l-63.991,71.511l-0,6.383l-0.237,0.263l0.237,0l-0,279.135l312.263,-0l-0.232,-357.292Z" style="fill:#fff;"/><path d="M312.311,0l-248.074,0l-64,71.492l-0,6.38l-0.237,0.264l0.237,-0l-0,279.056l312.306,0l-0.232,-357.192Zm-18.685,336.194l-274.708,-0l-0,-258.058l30.839,-0c11.211,-0 20.32,-10.1 20.32,-22.856l-0,-34.282l223.316,0l0,315.196l0.233,-0Z" style="fill:#eb6a00;fill-rule:nonzero;"/></g><path d="M179.543,124.023c-9.702,-5.601 -20.707,-8.55 -31.91,-8.55c-35.224,-0 -63.821,28.597 -63.821,63.821c-0,35.223 28.597,63.821 63.821,63.821c35.247,-0 63.821,-28.574 63.821,-63.821l-63.821,-0l31.91,-55.271Z" style="fill:#eb6a00;"/><path d="M228.731,169.348c0,-22.801 -12.164,-43.87 -31.91,-55.27l-31.911,55.27l63.821,0Z" style="fill:#eb6a00;"/></g></svg>