<?xml version="1.0" encoding="UTF-8" standalone="no"?><!DOCTYPE svg PUBLIC "-//W3C//DTD SVG 1.1//EN" "http://www.w3.org/Graphics/SVG/1.1/DTD/svg11.dtd"><svg width="100%" height="100%" viewBox="0 0 75 86" version="1.1" xmlns="http://www.w3.org/2000/svg" xmlns:xlink="http://www.w3.org/1999/xlink" xml:space="preserve" xmlns:serif="http://www.serif.com/" style="fill-rule:evenodd;clip-rule:evenodd;stroke-linejoin:round;stroke-miterlimit:2;"><clipPath id="_clip1"><rect x="0" y="0" width="75" height="85.714"/></clipPath><g clip-path="url(#_clip1)"><rect id="Artboard1" x="0" y="0" width="75" height="85.714" style="fill:none;"/><g><g><path d="M74.944,0l-59.529,0l-15.358,17.156l-0,1.531l-0.057,0.063l0.057,0l-0,66.964l74.943,0l-0.056,-85.714Z" style="fill:#fff;fill-rule:nonzero;"/><g><path d="M74.944,0l-59.529,0l-15.358,17.156l-0,1.531l-0.057,0.063l0.057,0l-0,66.964l74.943,0l-0.056,-85.714Zm-4.484,80.675l-65.92,0l-0,-61.925l7.4,0c2.69,0 4.876,-2.424 4.876,-5.485l0,-8.226l53.589,-0l-0,75.636l0.055,0Z" style="fill:#019e57;fill-rule:nonzero;"/><g><rect x="9.923" y="39.349" width="25.785" height="2.168" style="fill:#019e57;"/><rect x="9.923" y="33.61" width="25.785" height="2.167" style="fill:#019e57;"/><rect x="9.923" y="27.806" width="25.785" height="2.232" style="fill:#019e57;"/><rect x="9.923" y="56.313" width="25.785" height="2.168" style="fill:#019e57;"/><rect x="9.923" y="50.574" width="25.785" height="2.168" style="fill:#019e57;"/><rect x="9.923" y="44.834" width="25.785" height="2.167" style="fill:#019e57;"/><rect x="39.239" y="39.349" width="25.785" height="2.168" style="fill:#019e57;"/><rect x="39.239" y="33.61" width="25.785" height="2.167" style="fill:#019e57;"/><rect x="39.239" y="27.806" width="25.785" height="2.232" style="fill:#019e57;"/><rect x="39.239" y="56.313" width="25.785" height="2.168" style="fill:#019e57;"/><rect x="39.239" y="50.574" width="25.785" height="2.168" style="fill:#019e57;"/><rect x="39.239" y="44.834" width="25.785" height="2.167" style="fill:#019e57;"/><rect x="9.923" y="73.277" width="25.785" height="2.168" style="fill:#019e57;"/><rect x="9.923" y="67.538" width="25.785" height="2.167" style="fill:#019e57;"/><rect x="9.923" y="61.798" width="25.785" height="2.168" style="fill:#019e57;"/><rect x="39.239" y="73.277" width="25.785" height="2.168" style="fill:#019e57;"/><rect x="39.239" y="67.538" width="25.785" height="2.167" style="fill:#019e57;"/><rect x="39.239" y="61.798" width="25.785" height="2.168" style="fill:#019e57;"/><path d="M45.512,15.523c-0.018,0.006 -0.042,-0 -0.06,0.005c-0.003,-0.029 -0.009,-0.058 -0.009,-0.088c-0.006,0.001 -0.012,0.005 -0.019,0.006c-0.001,-0.029 0,-0.059 -0.002,-0.088c-0.006,0.002 -0.017,0.003 -0.025,0.005c-0.016,0.006 0.01,-0.141 0.015,-0.157c0.026,-0.072 0.051,-0.129 0.06,-0.206c0.008,-0.069 0.009,-0.137 0,-0.206c-0.003,-0.022 -0.036,-0.032 -0.042,-0.006c-0.027,0.11 -0.101,0.2 -0.168,0.292l-0.002,0c0.026,-0.082 0.074,-0.157 0.122,-0.227c0.013,-0.019 -0.011,-0.039 -0.028,-0.03c-0.065,0.037 -0.113,0.093 -0.149,0.157c-0.039,0.068 -0.056,0.15 -0.146,0.165c-0,-0.04 0.001,-0.078 -0.009,-0.117c-0.003,-0.016 -0.025,-0.023 -0.036,-0.01c-0.028,0.033 -0.045,0.073 -0.072,0.108c-0.017,0.022 -0.037,0.04 -0.057,0.06c-0.051,0.057 -0.101,0.111 -0.158,0.163c-0.052,0.048 -0.102,0.097 -0.15,0.147c-0.096,0.099 -0.197,0.209 -0.249,0.339c-0.006,0.014 -0.011,0.027 -0.015,0.042c-0.042,0.164 -0.011,0.274 0.014,0.326c-0.053,0.049 -0.152,0.177 -0.215,0.477c-0.07,0.334 -0.114,0.787 0.178,1.331c0.26,0.485 0.53,0.986 0.247,1.289c-0.015,0.009 -0.08,0.049 -0.16,0.049c-0.09,-0 -0.168,-0.052 -0.23,-0.152c-0.086,-0.136 -0.13,-0.254 -0.169,-0.358c-0.047,-0.128 -0.089,-0.238 -0.187,-0.337c-0.019,-0.019 -0.022,-0.084 -0.026,-0.184c-0.005,-0.102 -0.011,-0.255 -0.04,-0.47c-0.006,-0.051 -0.033,-0.138 -0.07,-0.261c-0.088,-0.295 -0.231,-0.777 -0.173,-1.046c0.003,-0.015 0.007,-0.029 0.012,-0.043c0.001,-0.003 0.002,-0.008 0.003,-0.011c0.055,-0.151 0.157,-0.293 0.257,-0.425c0.047,-0.037 0.101,-0.058 0.161,-0.042c0.015,0.004 0.032,-0.011 0.026,-0.027c-0.014,-0.041 -0.045,-0.094 -0.022,-0.133c0.027,-0.044 0.059,-0.082 0.08,-0.13c0.013,-0.03 0.025,-0.061 0.033,-0.093c0.023,-0.077 0.05,-0.346 0.175,-0.322c0.009,-0.057 -0.015,-0.118 -0.006,-0.178c0.011,-0.085 0.061,-0.143 0.098,-0.215c0.033,-0.066 0.042,-0.141 0.05,-0.212c0.009,-0.089 0.06,-0.115 0.133,-0.158c0.047,-0.027 0.044,-0.001 0.006,-0.045c-0.084,-0.094 -0.131,-0.13 -0.163,-0.254c-0.021,-0.083 -0.063,-0.2 0.059,-0.217c0.046,-0.007 0.139,0.048 0.168,-0.011c0.034,-0.072 -0.155,-0.2 -0.171,-0.268c-0.022,-0.089 0.108,-0.031 0.107,-0.043c-0.002,-0.046 -0.054,-0.073 -0.083,-0.107c-0.038,-0.043 -0.066,-0.091 -0.089,-0.145c-0.048,-0.114 -0.068,-0.243 -0.091,-0.364c-0.022,-0.113 -0.079,-0.216 -0.114,-0.328c-0.013,-0.039 -0.027,-0.085 -0.021,-0.127c0.005,-0.032 0.035,-0.056 0.039,-0.083c0.01,-0.063 -0.023,-0.081 -0.078,-0.106c-0.128,-0.06 -0.42,-0.064 -0.406,-0.263c0.002,-0.035 0.036,-0.05 0.019,-0.082c-0.032,-0.058 -0.153,-0.015 -0.205,-0.022c-0.096,-0.015 -0.162,-0.075 -0.234,-0.135c-0.112,-0.092 -0.285,-0.173 -0.433,-0.165c-0.093,0.005 -0.213,0.088 -0.258,0.168c-0.008,0.014 -0.078,0.14 -0.073,0.226c-0.011,0.033 -0.139,0.125 -0.276,0.199c-0.009,0.006 -0.017,0.015 -0.02,0.026c-0.013,0.038 -0.043,0.096 -0.071,0.111c-0.007,0.004 -0.03,0.012 -0.053,0.021c-0.163,0.06 -0.5,0.185 -0.499,0.391c0,0.036 0.007,0.073 0.019,0.106c-0.005,0.07 0.006,0.137 0.044,0.195c0.002,0.052 0.028,0.106 0.074,0.156c0.004,0.005 0.008,0.007 0.014,0.007c0.003,-0 0.007,-0.002 0.01,-0.006c0.007,-0.007 0.009,-0.031 0.008,-0.06c0.02,0.013 0.041,0.024 0.064,0.035c0.007,0.031 0.028,0.061 0.061,0.092c0.005,0.004 0.011,0.007 0.016,0.007c0.005,0 0.01,-0.002 0.013,-0.006c0.004,-0.005 0.008,-0.015 0.009,-0.028c0.007,0.009 0.016,0.017 0.022,0.024c0.032,0.036 0.069,0.058 0.099,0.073c-0.027,0.012 -0.047,0.036 -0.069,0.065c-0.031,0.045 -0.066,0.071 -0.122,0.083c-0.016,0.004 -0.032,0.008 -0.047,0.011c-0.007,0 -0.013,0 -0.019,-0.001c-0,-0.033 0.002,-0.073 0.008,-0.086c0.003,-0.007 0.003,-0.016 -0.001,-0.021c-0.005,-0.006 -0.015,-0.01 -0.026,-0.008c-0.019,0.004 -0.047,0.024 -0.061,0.069c-0.005,0.019 -0.009,0.035 -0.012,0.05c-0.04,0.013 -0.062,0.049 -0.065,0.108c-0.003,0.04 0,0.077 0.005,0.109c0,0.001 -0.001,0.002 -0.001,0.003c-0.008,0.027 -0.02,0.06 -0.01,0.078c0.006,0.013 0.029,0.027 0.051,0.04c0.008,0.004 0.014,0.008 0.02,0.012c0.022,0.028 0.048,0.049 0.075,0.066c0.017,0.017 0.033,0.034 0.047,0.052c0.005,0.005 0.009,0.01 0.013,0.017c0.015,0.02 0.029,0.039 0.057,0.039c0.004,0 0.009,0 0.013,-0.001c0.025,-0.004 0.048,-0.023 0.071,-0.042c0.013,-0.01 0.024,-0.02 0.036,-0.026c0.001,-0 0.002,-0.001 0.005,-0.002c0.048,-0.009 0.099,-0.024 0.154,-0.039c0.077,-0.023 0.158,-0.045 0.225,-0.049l0.019,-0c0.025,0.005 0.051,0.01 0.076,0.017c0.018,0.009 0.031,0.02 0.041,0.031c0.05,0.058 -0.04,0.086 -0.082,0.101c-0.025,0.008 -0.047,0.023 -0.068,0.039c-0.052,0.038 -0.113,0.058 -0.171,0.082c-0.066,0.025 -0.135,0.045 -0.202,0.065c-0.191,0.055 -0.407,0.117 -0.548,0.295c-0.052,0.065 -0.147,0.193 -0.148,0.197c-0.043,0.06 -0.078,0.111 -0.103,0.15c-0.011,-0.078 -0.039,-0.192 -0.116,-0.331c-0.017,-0.031 -0.038,-0.07 -0.06,-0.113c-0.049,-0.121 -0.104,-0.24 -0.168,-0.355c-0.022,-0.038 -0.043,-0.075 -0.065,-0.114c-0.15,-0.314 -0.292,-0.633 -0.304,-0.696c0.026,-0.08 0.091,-0.44 0.002,-0.588c-0.019,-0.032 -0.046,-0.053 -0.076,-0.064l0.126,-0.207c0.096,-0.018 0.347,-0.068 0.391,-0.106c0.052,-0.043 0.121,-0.187 0.147,-0.25c0.004,-0.012 0.049,-0.113 0.112,-0.251c1.065,-2.356 1.041,-2.393 1.021,-2.425c-0.006,-0.009 -0.018,-0.016 -0.03,-0.016c-0.017,0 -0.03,0.013 -0.041,0.026l-1.839,2.284c-0.018,0.016 -0.119,0.116 -0.088,0.253c0.025,0.11 0.064,0.274 0.076,0.32l-0.114,0.191c-0.035,-0.034 -0.083,-0.056 -0.134,-0.056c-0.064,0 -0.115,0.035 -0.142,0.095c-0.017,0.038 -0.029,0.07 -0.039,0.099c-0.021,0.062 -0.032,0.089 -0.064,0.105c-0.071,0.035 -0.077,0.102 -0.082,0.151c-0.003,0.021 -0.004,0.039 -0.009,0.053c-0.005,0.014 -0.028,0.032 -0.048,0.048c-0.041,0.031 -0.091,0.071 -0.09,0.135c-0,0.053 0.034,0.143 0.092,0.227l-0.224,0.374c-0.161,-0.285 -0.329,-0.536 -0.489,-0.75c-0.66,-0.887 -1.311,-1.356 -1.339,-1.377c-0.019,-0.014 -0.042,-0.02 -0.064,-0.019c-0.024,-0.001 -0.046,0.005 -0.066,0.019c-0.027,0.021 -0.679,0.49 -1.339,1.377c-0.166,0.223 -0.342,0.487 -0.508,0.785l-0.225,-0.373c0.074,-0.095 0.118,-0.203 0.118,-0.263c0.001,-0.064 -0.049,-0.104 -0.09,-0.135c-0.02,-0.016 -0.043,-0.034 -0.048,-0.048c-0.005,-0.014 -0.006,-0.032 -0.009,-0.053c-0.004,-0.049 -0.011,-0.116 -0.082,-0.151c-0.032,-0.016 -0.043,-0.043 -0.064,-0.105c-0.01,-0.029 -0.022,-0.061 -0.039,-0.099c-0.027,-0.06 -0.078,-0.095 -0.141,-0.095c-0.066,0 -0.128,0.036 -0.162,0.088l-0.134,-0.223c0.012,-0.046 0.051,-0.21 0.076,-0.32c0.031,-0.137 -0.07,-0.237 -0.087,-0.253l-1.841,-2.284c-0.01,-0.013 -0.022,-0.026 -0.04,-0.026c-0.012,0 -0.023,0.007 -0.029,0.016c-0.022,0.032 -0.045,0.069 1.021,2.426c0.062,0.138 0.107,0.238 0.111,0.25c0.026,0.063 0.096,0.207 0.147,0.251c0.044,0.037 0.295,0.087 0.391,0.105l0.137,0.226c-0.015,0.012 -0.029,0.027 -0.04,0.045c-0.089,0.148 -0.024,0.508 0.002,0.588c-0.012,0.063 -0.156,0.382 -0.305,0.696c-0.021,0.039 -0.042,0.076 -0.064,0.114c-0.064,0.115 -0.119,0.234 -0.168,0.355c-0.023,0.043 -0.043,0.082 -0.06,0.113c-0.077,0.139 -0.105,0.253 -0.116,0.331c-0.025,-0.039 -0.06,-0.09 -0.103,-0.15c-0.001,-0.004 -0.096,-0.132 -0.149,-0.197c-0.14,-0.178 -0.356,-0.24 -0.547,-0.295c-0.068,-0.02 -0.136,-0.039 -0.203,-0.065c-0.057,-0.024 -0.118,-0.044 -0.17,-0.082c-0.021,-0.016 -0.043,-0.031 -0.068,-0.039c-0.042,-0.015 -0.132,-0.043 -0.082,-0.101c0.01,-0.011 0.023,-0.022 0.041,-0.031c0.024,-0.007 0.051,-0.012 0.076,-0.017l0.019,-0c0.067,0.004 0.147,0.026 0.225,0.049c0.055,0.015 0.106,0.03 0.154,0.039c0.003,0.001 0.004,0.002 0.005,0.002c0.012,0.006 0.023,0.016 0.036,0.026c0.023,0.019 0.046,0.038 0.071,0.042c0.004,0.001 0.008,0.001 0.013,0.001c0.028,0 0.042,-0.019 0.057,-0.039c0.004,-0.006 0.008,-0.012 0.012,-0.017c0.015,-0.018 0.031,-0.035 0.048,-0.052c0.027,-0.017 0.053,-0.038 0.075,-0.066c0.006,-0.004 0.012,-0.008 0.02,-0.012c0.022,-0.013 0.045,-0.027 0.051,-0.04c0.01,-0.018 -0.002,-0.051 -0.01,-0.078c-0,-0.001 -0.001,-0.002 -0.001,-0.003c0.005,-0.032 0.008,-0.069 0.005,-0.109c-0.003,-0.059 -0.025,-0.095 -0.065,-0.108c-0.003,-0.015 -0.007,-0.031 -0.012,-0.05c-0.014,-0.045 -0.042,-0.065 -0.061,-0.069c-0.011,-0.002 -0.021,0.002 -0.026,0.008c-0.004,0.005 -0.004,0.014 -0.001,0.021c0.006,0.013 0.008,0.053 0.008,0.086c-0.006,0.001 -0.012,0.001 -0.019,0.001c-0.015,-0.003 -0.031,-0.007 -0.047,-0.011c-0.056,-0.012 -0.091,-0.038 -0.122,-0.083c-0.022,-0.029 -0.042,-0.053 -0.069,-0.065c0.03,-0.015 0.067,-0.037 0.099,-0.072c0.006,-0.008 0.015,-0.016 0.022,-0.025c0.001,0.013 0.005,0.023 0.009,0.028c0.003,0.004 0.007,0.006 0.013,0.006c0.005,0 0.011,-0.002 0.016,-0.007c0.033,-0.031 0.053,-0.061 0.061,-0.092c0.022,-0.011 0.044,-0.022 0.064,-0.035c-0.001,0.029 0.001,0.053 0.008,0.06c0.003,0.004 0.007,0.006 0.01,0.006c0.006,-0 0.01,-0.002 0.014,-0.007c0.046,-0.05 0.072,-0.104 0.074,-0.155c0.038,-0.059 0.049,-0.126 0.044,-0.195c0.012,-0.034 0.018,-0.071 0.018,-0.107c0.002,-0.206 -0.335,-0.331 -0.498,-0.39c-0.023,-0.01 -0.046,-0.017 -0.053,-0.022c-0.028,-0.013 -0.058,-0.073 -0.071,-0.111c-0.003,-0.011 -0.011,-0.02 -0.02,-0.026c-0.138,-0.074 -0.265,-0.166 -0.276,-0.199c0.005,-0.085 -0.065,-0.212 -0.073,-0.226c-0.045,-0.08 -0.165,-0.163 -0.258,-0.168c-0.148,-0.008 -0.321,0.073 -0.433,0.165c-0.073,0.06 -0.138,0.12 -0.234,0.135c-0.052,0.007 -0.173,-0.036 -0.205,0.022c-0.017,0.032 0.017,0.047 0.019,0.082c0.014,0.199 -0.278,0.203 -0.406,0.263c-0.055,0.025 -0.088,0.044 -0.078,0.106c0.004,0.027 0.034,0.051 0.039,0.083c0.006,0.042 -0.008,0.088 -0.021,0.127c-0.035,0.112 -0.093,0.215 -0.114,0.328c-0.023,0.121 -0.043,0.25 -0.091,0.364c-0.023,0.054 -0.051,0.102 -0.089,0.145c-0.029,0.034 -0.081,0.061 -0.083,0.108c-0.001,0.011 0.129,-0.047 0.107,0.042c-0.016,0.068 -0.205,0.196 -0.171,0.268c0.029,0.059 0.122,0.004 0.168,0.011c0.122,0.017 0.08,0.134 0.059,0.217c-0.032,0.124 -0.079,0.16 -0.163,0.254c-0.038,0.044 -0.041,0.018 0.005,0.045c0.074,0.043 0.125,0.069 0.134,0.158c0.008,0.071 0.016,0.146 0.05,0.212c0.037,0.072 0.086,0.132 0.098,0.216c0.009,0.059 -0.015,0.12 -0.006,0.177c0.125,-0.023 0.152,0.245 0.174,0.322c0.009,0.032 0.021,0.063 0.034,0.093c0.021,0.048 0.053,0.086 0.08,0.13c0.023,0.039 -0.009,0.092 -0.022,0.133c-0.006,0.016 0.011,0.031 0.026,0.027c0.06,-0.016 0.114,0.005 0.16,0.042c0.101,0.132 0.202,0.275 0.258,0.425c0.001,0.003 0.002,0.008 0.003,0.011c0.005,0.014 0.009,0.028 0.012,0.043c0.058,0.269 -0.086,0.751 -0.173,1.046c-0.037,0.123 -0.064,0.21 -0.07,0.261c-0.029,0.215 -0.035,0.368 -0.04,0.47c-0.004,0.1 -0.007,0.165 -0.026,0.184c-0.098,0.099 -0.14,0.209 -0.187,0.337c-0.04,0.104 -0.083,0.222 -0.169,0.358c-0.062,0.1 -0.141,0.152 -0.231,0.152c-0.079,-0 -0.144,-0.04 -0.159,-0.049c-0.283,-0.303 -0.013,-0.804 0.247,-1.289c0.292,-0.544 0.248,-0.997 0.178,-1.331c-0.063,-0.3 -0.162,-0.428 -0.215,-0.477c0.024,-0.052 0.056,-0.162 0.014,-0.326c-0.005,-0.015 -0.009,-0.028 -0.015,-0.042c-0.052,-0.13 -0.153,-0.24 -0.249,-0.339c-0.048,-0.05 -0.098,-0.099 -0.15,-0.147c-0.057,-0.052 -0.107,-0.106 -0.158,-0.163c-0.02,-0.02 -0.04,-0.038 -0.057,-0.06c-0.027,-0.034 -0.044,-0.075 -0.072,-0.108c-0.011,-0.013 -0.033,-0.005 -0.036,0.01c-0.01,0.039 -0.009,0.077 -0.009,0.117c-0.09,-0.015 -0.107,-0.097 -0.146,-0.165c-0.036,-0.064 -0.084,-0.12 -0.149,-0.157c-0.017,-0.009 -0.042,0.011 -0.029,0.03c0.049,0.07 0.097,0.145 0.123,0.227l-0.003,0c-0.066,-0.092 -0.14,-0.182 -0.167,-0.292c-0.006,-0.026 -0.039,-0.016 -0.043,0.006c-0.008,0.069 -0.007,0.137 0,0.206c0.01,0.077 0.035,0.134 0.06,0.206c0.006,0.016 0.032,0.163 0.015,0.157c-0.007,-0.002 -0.018,-0.003 -0.024,-0.005c-0.002,0.029 -0.001,0.059 -0.002,0.088c-0.007,-0.001 -0.013,-0.005 -0.019,-0.006c0,0.03 -0.006,0.059 -0.009,0.088c-0.018,-0.005 -0.042,0.001 -0.06,-0.005c-0.006,0.078 0.083,0.156 0.128,0.213c0.025,0.03 0.172,0.177 0.149,0.214c-0.017,0.03 -0.051,-0.004 -0.073,-0.009c-0.085,-0.019 0.085,0.155 0.103,0.171c0.102,0.091 0.177,0.209 0.317,0.249c0.142,0.039 0.322,-0.02 0.385,0.142c0.067,0.168 0.087,0.34 0.118,0.517c0.055,0.326 -0.214,0.849 -0.393,1.196c-0.116,0.224 -0.194,0.436 -0.246,0.683c-0.044,0.212 -0.071,0.415 0.076,0.602c0.033,0.042 0.071,0.077 0.112,0.106c0.025,0.022 0.051,0.041 0.081,0.059c0.073,0.042 0.152,0.063 0.236,0.063c0.025,0 0.049,-0.002 0.073,-0.005c0.153,0.005 0.311,-0.02 0.448,-0.057c0.007,0.052 0.017,0.108 0.028,0.166l-0,0.001c0.002,0.044 0.009,0.088 0.023,0.131c0.014,0.074 0.027,0.149 0.017,0.225c-0.003,0.025 0.002,0.048 0,0.073c-0.002,0.03 -0.016,0.062 -0.033,0.087c-0.034,0.053 -0.094,0.068 -0.147,0.098c-0.063,0.037 -0.133,0.063 -0.202,0.086c-0.087,0.028 -0.173,0.04 -0.244,0.102c-0.037,0.031 -0.056,0.067 -0.071,0.113c-0.027,0.077 -0.028,0.16 -0.023,0.241c0.006,0.1 0.031,0.442 0.116,0.633c0.075,0.171 0.05,0.446 0.017,0.579c-0.013,0.05 -0.018,0.1 -0.015,0.151c-0.081,0.021 -0.169,0.076 -0.233,0.152c-0.082,0.096 -0.12,0.225 -0.109,0.365c0.01,0.113 0.051,0.225 0.113,0.306c0.046,0.059 0.153,0.199 0.135,0.296c-0.026,0.135 -0.014,0.222 -0,0.269c0.012,0.085 0.074,0.195 0.283,0.282c0.132,0.054 0.287,0.087 0.415,0.087c0.66,0 1.102,-0.051 1.823,-0.339c0.097,-0.04 0.215,-0.06 0.351,-0.084c0.024,-0.004 0.048,-0.008 0.072,-0.013c0.015,0.097 0.04,0.172 0.04,0.174c0.035,0.107 0.027,0.286 0.012,0.329c-0.041,0.119 -0.009,0.194 0.019,0.232c0.063,0.095 0.241,0.245 0.536,0.245c0.192,-0 0.486,-0.093 1.547,-0.456c0.9,-0.308 1.632,-0.312 1.984,-0.314l0.161,0c0.352,0.002 1.084,0.006 1.984,0.314c1.061,0.363 1.354,0.456 1.547,0.456c0.295,-0 0.473,-0.15 0.536,-0.245c0.028,-0.038 0.06,-0.113 0.019,-0.232c-0.015,-0.043 -0.023,-0.222 0.012,-0.329c-0,-0.002 0.025,-0.077 0.04,-0.174c0.024,0.005 0.048,0.009 0.071,0.013c0.136,0.024 0.254,0.044 0.352,0.084c0.722,0.288 1.162,0.339 1.822,0.339c0.13,0 0.285,-0.033 0.416,-0.087c0.209,-0.087 0.272,-0.197 0.283,-0.282c0.014,-0.047 0.026,-0.134 -0,-0.269c-0.018,-0.097 0.089,-0.237 0.135,-0.296c0.062,-0.081 0.103,-0.193 0.112,-0.306c0.012,-0.14 -0.026,-0.269 -0.108,-0.365c-0.081,-0.096 -0.201,-0.16 -0.298,-0.16l-0.008,-0c0.002,-0.049 -0.003,-0.096 -0.015,-0.143c-0.033,-0.133 -0.059,-0.408 0.017,-0.579c0.085,-0.191 0.11,-0.533 0.116,-0.633c0.004,-0.081 0.003,-0.164 -0.023,-0.241c-0.015,-0.046 -0.034,-0.082 -0.071,-0.113c-0.071,-0.062 -0.157,-0.074 -0.245,-0.102c-0.07,-0.023 -0.138,-0.049 -0.201,-0.086c-0.053,-0.03 -0.113,-0.045 -0.148,-0.098c-0.016,-0.025 -0.03,-0.057 -0.032,-0.087c-0.003,-0.025 0.003,-0.048 -0,-0.073c-0.01,-0.076 0.003,-0.151 0.016,-0.225c0.014,-0.043 0.022,-0.087 0.024,-0.131l0,-0.001c0.011,-0.058 0.021,-0.114 0.028,-0.166c0.137,0.037 0.295,0.062 0.447,0.057c0.025,0.003 0.049,0.005 0.074,0.005c0.083,0 0.163,-0.021 0.236,-0.063c0.03,-0.018 0.056,-0.037 0.081,-0.059c0.041,-0.029 0.078,-0.064 0.111,-0.106c0.148,-0.187 0.12,-0.39 0.077,-0.602c-0.052,-0.247 -0.13,-0.459 -0.246,-0.683c-0.179,-0.347 -0.449,-0.87 -0.393,-1.196c0.03,-0.177 0.051,-0.349 0.117,-0.517c0.064,-0.162 0.244,-0.103 0.385,-0.142c0.141,-0.04 0.216,-0.158 0.318,-0.249c0.018,-0.016 0.188,-0.19 0.102,-0.171c-0.021,0.005 -0.056,0.039 -0.072,0.009c-0.023,-0.037 0.124,-0.184 0.147,-0.214c0.047,-0.057 0.135,-0.135 0.13,-0.213Z" style="fill:#019e57;"/></g></g></g></g></g></svg>