<?xml version="1.0" encoding="UTF-8" standalone="no"?><!DOCTYPE svg PUBLIC "-//W3C//DTD SVG 1.1//EN" "http://www.w3.org/Graphics/SVG/1.1/DTD/svg11.dtd"><svg width="100%" height="100%" viewBox="0 0 76 86" version="1.1" xmlns="http://www.w3.org/2000/svg" xmlns:xlink="http://www.w3.org/1999/xlink" xml:space="preserve" xmlns:serif="http://www.serif.com/" style="fill-rule:evenodd;clip-rule:evenodd;stroke-linejoin:round;stroke-miterlimit:2;"><g><path d="M74.955,0l-59.53,0l-15.358,17.163l0,1.531l-0.057,0.064l0.057,-0l0,66.992l74.943,-0l-0.055,-85.75Z" style="fill:#fff;"/><path d="M74.955,0l-59.538,0l-15.36,17.158l-0,1.531l-0.057,0.064l0.057,-0l-0,66.973l74.953,0l-0.055,-85.726Zm-4.485,80.687l-65.93,-0l0,-61.934l7.402,-0c2.69,-0 4.876,-2.424 4.876,-5.486l0,-8.227l53.596,-0l0,75.647l0.056,-0Z" style="fill:#69aa00;fill-rule:nonzero;"/><path d="M20.853,23.145l-12.143,0l-0,5.345l12.143,-0l0,-5.345Zm-11.035,1.109l-0,3.128l9.927,-0l0,-3.128l-9.927,-0Z" style="fill:#69aa00;"/><path d="M51.158,23.145l-12.143,0l-0,5.345l12.143,-0l0,-5.345Zm-11.035,1.109l0,3.128l9.927,-0l0,-3.128l-9.927,-0Z" style="fill:#69aa00;"/><path d="M51.138,16.245l-12.144,0l0,5.345l12.144,-0l-0,-5.345Zm-11.036,1.109l0,3.128l9.928,-0l-0,-3.128l-9.928,-0Z" style="fill:#69aa00;"/><path d="M51.138,9.245l-12.144,0l0,5.345l12.144,-0l-0,-5.345Zm-11.036,1.109l0,3.128l9.928,-0l-0,-3.128l-9.928,-0Z" style="fill:#69aa00;"/><path d="M20.853,50.928l-12.143,0l-0,5.345l12.143,-0l0,-5.345Zm-11.035,1.108l-0,3.128l9.927,0l0,-3.128l-9.927,0Z" style="fill:#69aa00;"/><path d="M51.138,50.928l-12.144,0l0,5.345l12.144,-0l-0,-5.345Zm-11.036,1.108l0,3.128l9.928,0l-0,-3.128l-9.928,0Z" style="fill:#69aa00;"/><path d="M20.853,30.091l-12.143,0l-0,5.345l12.143,-0l0,-5.345Zm-11.035,1.108l-0,3.128l9.927,0l0,-3.128l-9.927,0Z" style="fill:#69aa00;"/><path d="M51.138,30.091l-12.144,0l0,5.345l12.144,-0l-0,-5.345Zm-11.036,1.108l0,3.128l9.928,0l-0,-3.128l-9.928,0Z" style="fill:#69aa00;"/><path d="M20.853,57.874l-12.143,-0l-0,5.344l12.143,0l0,-5.344Zm-11.035,1.108l-0,3.128l9.927,0l0,-3.128l-9.927,-0Z" style="fill:#69aa00;"/><path d="M51.138,57.874l-12.144,-0l0,5.344l12.144,0l-0,-5.344Zm-11.036,1.108l0,3.128l9.928,0l-0,-3.128l-9.928,-0Z" style="fill:#69aa00;"/><path d="M20.853,37.037l-12.143,-0l-0,5.344l12.143,0l0,-5.344Zm-11.035,1.108l-0,3.128l9.927,0l0,-3.128l-9.927,-0Z" style="fill:#69aa00;"/><path d="M51.138,37.037l-12.144,-0l0,5.344l12.144,0l-0,-5.344Zm-11.036,1.108l0,3.128l9.928,0l-0,-3.128l-9.928,-0Z" style="fill:#69aa00;"/><path d="M20.853,64.819l-12.143,0l-0,5.345l12.143,0l0,-5.345Zm-11.035,1.109l-0,3.128l9.927,-0l0,-3.128l-9.927,-0Z" style="fill:#69aa00;"/><path d="M51.138,64.819l-12.144,0l0,5.345l12.144,0l-0,-5.345Zm-11.036,1.109l0,3.128l9.928,-0l-0,-3.128l-9.928,-0Z" style="fill:#69aa00;"/><path d="M20.853,43.982l-12.143,0l-0,5.345l12.143,-0l0,-5.345Zm-11.035,1.109l-0,3.128l9.927,-0l0,-3.128l-9.927,-0Z" style="fill:#69aa00;"/><path d="M51.138,43.982l-12.144,0l0,5.345l12.144,-0l-0,-5.345Zm-11.036,1.109l0,3.128l9.928,-0l-0,-3.128l-9.928,-0Z" style="fill:#69aa00;"/><path d="M20.853,71.765l-12.143,0l-0,5.345l12.143,-0l0,-5.345Zm-11.035,1.108l-0,3.129l9.927,-0l0,-3.129l-9.927,0Z" style="fill:#69aa00;"/><path d="M51.138,71.765l-12.144,0l0,5.345l12.144,-0l-0,-5.345Zm-11.036,1.108l0,3.129l9.928,-0l-0,-3.129l-9.928,0Z" style="fill:#69aa00;"/><path d="M36.006,23.145l-12.144,0l0,5.345l12.144,-0l-0,-5.345Zm-11.035,1.109l-0,3.128l9.927,-0l-0,-3.128l-9.927,-0Z" style="fill:#69aa00;"/><path d="M36.006,16.245l-12.144,0l0,5.345l12.144,-0l-0,-5.345Zm-11.035,1.109l-0,3.128l9.927,-0l-0,-3.128l-9.927,-0Z" style="fill:#69aa00;"/><path d="M36.006,9.245l-12.144,0l0,5.345l12.144,-0l-0,-5.345Zm-11.035,1.109l-0,3.128l9.927,-0l-0,-3.128l-9.927,-0Z" style="fill:#69aa00;"/><path d="M36.027,50.928l-12.144,0l0,5.345l12.144,-0l-0,-5.345Zm-11.036,1.108l0,3.128l9.927,0l0,-3.128l-9.927,0Z" style="fill:#69aa00;"/><path d="M36.027,30.091l-12.144,0l0,5.345l12.144,-0l-0,-5.345Zm-11.036,1.108l0,3.128l9.927,0l0,-3.128l-9.927,0Z" style="fill:#69aa00;"/><path d="M36.027,57.874l-12.144,-0l0,5.344l12.144,0l-0,-5.344Zm-11.036,1.108l0,3.128l9.927,0l0,-3.128l-9.927,-0Z" style="fill:#69aa00;"/><path d="M36.027,37.037l-12.144,-0l0,5.344l12.144,0l-0,-5.344Zm-11.036,1.108l0,3.128l9.927,0l0,-3.128l-9.927,-0Z" style="fill:#69aa00;"/><path d="M36.027,64.819l-12.144,0l0,5.345l12.144,0l-0,-5.345Zm-11.036,1.109l0,3.128l9.927,-0l0,-3.128l-9.927,-0Z" style="fill:#69aa00;"/><path d="M36.027,43.982l-12.144,0l0,5.345l12.144,-0l-0,-5.345Zm-11.036,1.109l0,3.128l9.927,-0l0,-3.128l-9.927,-0Z" style="fill:#69aa00;"/><path d="M36.027,71.765l-12.144,0l0,5.345l12.144,-0l-0,-5.345Zm-11.036,1.108l0,3.129l9.927,-0l0,-3.129l-9.927,0Z" style="fill:#69aa00;"/><path d="M66.311,23.145l-12.143,0l-0,5.345l12.143,-0l0,-5.345Zm-11.035,1.109l-0,3.128l9.927,-0l-0,-3.128l-9.927,-0Z" style="fill:#69aa00;"/><path d="M66.311,16.245l-12.143,0l-0,5.345l12.143,-0l0,-5.345Zm-11.035,1.109l-0,3.128l9.927,-0l-0,-3.128l-9.927,-0Z" style="fill:#69aa00;"/><path d="M66.311,9.245l-12.143,0l-0,5.345l12.143,-0l0,-5.345Zm-11.035,1.109l-0,3.128l9.927,-0l-0,-3.128l-9.927,-0Z" style="fill:#69aa00;"/><path d="M66.311,50.928l-12.143,0l-0,5.345l12.143,-0l0,-5.345Zm-11.035,1.108l-0,3.128l9.927,0l-0,-3.128l-9.927,0Z" style="fill:#69aa00;"/><path d="M66.311,30.091l-12.143,0l-0,5.345l12.143,-0l0,-5.345Zm-11.035,1.108l-0,3.128l9.927,0l-0,-3.128l-9.927,0Z" style="fill:#69aa00;"/><path d="M66.311,57.874l-12.143,-0l-0,5.344l12.143,0l0,-5.344Zm-11.035,1.108l-0,3.128l9.927,0l-0,-3.128l-9.927,-0Z" style="fill:#69aa00;"/><path d="M66.311,37.037l-12.143,-0l-0,5.344l12.143,0l0,-5.344Zm-11.035,1.108l-0,3.128l9.927,0l-0,-3.128l-9.927,-0Z" style="fill:#69aa00;"/><path d="M66.311,64.819l-12.143,0l-0,5.345l12.143,0l0,-5.345Zm-11.035,1.109l-0,3.128l9.927,-0l-0,-3.128l-9.927,-0Z" style="fill:#69aa00;"/><path d="M66.311,43.982l-12.143,0l-0,5.345l12.143,-0l0,-5.345Zm-11.035,1.109l-0,3.128l9.927,-0l-0,-3.128l-9.927,-0Z" style="fill:#69aa00;"/><path d="M66.311,71.765l-12.143,0l-0,5.345l12.143,-0l0,-5.345Zm-11.035,1.108l-0,3.129l9.927,-0l-0,-3.129l-9.927,0Z" style="fill:#69aa00;"/></g></svg>