<?xml version="1.0" encoding="UTF-8" standalone="no"?><!DOCTYPE svg PUBLIC "-//W3C//DTD SVG 1.1//EN" "http://www.w3.org/Graphics/SVG/1.1/DTD/svg11.dtd"><svg width="100%" height="100%" viewBox="0 0 75 86" version="1.1" xmlns="http://www.w3.org/2000/svg" xmlns:xlink="http://www.w3.org/1999/xlink" xml:space="preserve" xmlns:serif="http://www.serif.com/" style="fill-rule:evenodd;clip-rule:evenodd;stroke-linejoin:round;stroke-miterlimit:2;"><g><g><path d="M74.944,0l-59.529,0l-15.358,17.156l-0,1.531l-0.057,0.063l0.057,0l-0,66.964l74.943,0l-0.056,-85.714Z" style="fill:#fff;fill-rule:nonzero;"/><path d="M74.944,0l-59.529,0l-15.358,17.156l-0,1.531l-0.057,0.063l0.057,0l-0,66.964l74.943,0l-0.056,-85.714Zm-4.484,80.675l-65.92,0l-0,-61.925l7.4,0c2.69,0 4.876,-2.424 4.876,-5.485l0,-8.226l53.589,-0l-0,75.636l0.055,0Z" style="fill:#99baab;fill-rule:nonzero;"/></g><path d="M30.18,44.89l-7.227,-0l14.547,-18.213l14.547,18.213l-7.227,-0l-0,16.362l-14.64,-0l0,-16.362Z" style="fill:#5b8d7d;"/></g></svg>