<?xml version="1.0" encoding="UTF-8" standalone="no"?><!DOCTYPE svg PUBLIC "-//W3C//DTD SVG 1.1//EN" "http://www.w3.org/Graphics/SVG/1.1/DTD/svg11.dtd"><svg width="100%" height="100%" viewBox="0 0 2500 350" version="1.1" xmlns="http://www.w3.org/2000/svg" xmlns:xlink="http://www.w3.org/1999/xlink" xml:space="preserve" xmlns:serif="http://www.serif.com/" style="fill-rule:evenodd;clip-rule:evenodd;stroke-linejoin:round;stroke-miterlimit:2;"><rect id="web-logo" x="0" y="0" width="2500" height="350" style="fill:none;"/><clipPath id="_clip1"><rect x="0" y="0" width="2500" height="350"/></clipPath><g clip-path="url(#_clip1)"><rect x="1561.72" y="0.649" width="75" height="350" style="fill:#fefffe;"/><g><rect x="0" y="1.298" width="1343.3" height="348.702" style="fill:#fff;"/><path d="M2502.26,0.412l-876.964,-0l-24.55,349.588l901.514,-0l-0,-349.588Z" style="fill:#008941;"/><path id="Dokeza" d="M1599.22,-1.827l-1602.35,0l-0,354.952l1576.11,-0l26.238,-354.952Z" style="fill:#c22710;"/><text x="986.867px" y="229.439px" style="font-family:'Rubik-Medium', 'Rubik';font-weight:500;font-size:82.785px;fill:#fff;">po<tspan x="1086.13px 1153.6px 1201.12px 1235.06px " y="229.439px 229.439px 229.439px 229.439px ">were</tspan>d b<tspan x="1402.12px " y="229.439px ">y</tspan></text><g><path d="M691.747,133.648l-54.19,-0c-1.739,-0 -2.898,-1.143 -2.898,-2.857l0,-21.142c0,-1.999 0.87,-2.857 2.898,-2.857l97.947,0c2.318,0 2.898,2.286 1.738,4.286l-60.854,107.136l56.797,0c1.449,0 2.898,1.428 2.898,2.857l0,21.142c0,1.714 -0.869,2.856 -2.898,2.856l-99.975,0c-2.028,0 -3.477,-2.285 -2.608,-4.285l61.145,-107.136Z" style="fill:#fff;fill-rule:nonzero;"/><path d="M825.626,105.078c1.159,0 2.318,0.857 2.898,2.857l58.536,134.278c0.58,1.714 -0.579,2.856 -2.318,2.856l-25.501,0c-1.159,0 -2.029,-0.857 -2.898,-2.856l-7.244,-17.142l-58.247,-0l-7.534,17.142c-0.869,1.999 -1.739,2.856 -2.898,2.856l-25.791,0c-1.738,0 -2.608,-1.428 -2.028,-2.856l58.246,-134.278c0.58,-1.714 1.449,-2.857 2.898,-2.857l11.881,0Zm-23.472,93.137l34.774,0l-16.228,-37.712l-1.449,-3.142l-1.159,3.142l-15.938,37.712Z" style="fill:#fff;fill-rule:nonzero;"/><path d="M450.576,242.879l34.61,-0l-57.879,-67.859l56.315,-66.702l-33.046,0l-49.667,60.34l0,-60.34l-27.375,0l0,134.561l27.375,-0l0,-59.955l49.667,59.955Z" style="fill:#fff;fill-rule:nonzero;stroke:#fff;stroke-width:4.41px;"/><path d="M605.584,217.357c1.739,-0 3.188,1.428 3.188,3.143l-0,20.855c-0,1.715 -1.449,2.857 -3.188,2.857l-88.384,0c-1.448,0 -2.897,-1.428 -2.897,-2.857l-0,-132.563c-0,-1.428 1.449,-2.857 2.897,-2.857l88.384,0c1.739,0 2.898,1.143 2.898,2.857l0,20.856c0,2 -1.159,2.857 -2.898,2.857l-60.854,0l-0,28.855l40.569,0c2.029,0 2.898,0.858 2.898,2.857l0,21.428c0,1.714 -0.869,2.571 -2.898,2.571l-40.569,-0l-0,29.141l60.854,-0Z" style="fill:#fff;fill-rule:nonzero;"/><path d="M173.325,225.928c-11.301,11.999 -25.79,17.999 -44.047,18.284l-52.161,0c-1.449,0 -2.897,-1.428 -2.897,-2.857l-0,-132.563c-0,-1.428 1.448,-2.857 2.897,-2.857l53.031,0c36.222,0.572 59.985,23.713 59.985,69.425c-0.29,21.712 -5.796,38.854 -16.808,50.568m-45.206,-8.571c20.864,-0 31.297,-13.999 31.297,-41.997c-0,-28.284 -10.433,-42.569 -31.297,-42.569l-23.472,-0l-0,84.566l23.472,-0Z" style="fill:#fff;fill-rule:nonzero;"/><path d="M225.196,225.071c-13.909,-13.714 -20.864,-30.284 -20.864,-49.711c-0,-19.713 6.955,-36.284 20.864,-50.283c13.91,-13.999 30.717,-20.856 50.423,-20.856c19.705,0 36.512,6.857 50.422,20.856c13.909,13.713 20.574,30.57 20.574,50.283c0,19.713 -6.665,36.283 -20.574,49.711c-13.91,13.713 -30.717,20.856 -50.422,20.856c-19.706,-0 -36.513,-6.857 -50.423,-20.856m50.712,-6c11.881,0 21.444,-4.285 28.979,-12.856c7.534,-8.571 11.301,-18.856 11.301,-30.855c0,-12 -3.767,-22.57 -11.301,-31.141c-7.535,-8.571 -17.387,-12.857 -28.979,-12.857c-11.881,0 -21.444,4.286 -28.978,12.571c-7.824,8.571 -11.591,18.856 -11.591,31.141c-0,11.999 3.767,22.284 11.591,30.855c7.534,8.571 17.097,13.142 28.978,13.142" style="fill:#fff;fill-rule:nonzero;"/></g></g><g id="Banner"><path d="M1625.66,25.89l-24.05,318.654l898.388,0l-0.211,-315.303l-874.127,-3.351Z" style="fill:#008941;fill-rule:nonzero;"/><g><path d="M1881.29,197.827l24.071,-47.512c0.629,-1.101 1.416,-1.573 2.36,-1.573l12.9,0c0.944,0 1.573,0.472 1.573,1.573l0,73.155c0,0.944 -0.472,1.573 -1.573,1.573l-13.372,0c-1.102,0 -1.574,-0.472 -1.574,-1.573l0,-40.904l-20.923,40.904c-0.787,0.944 -1.574,1.573 -2.36,1.573l-1.574,0c-0.943,0 -1.73,-0.472 -2.359,-1.573l-20.924,-40.904l-0,40.904c-0,0.944 -0.629,1.573 -1.573,1.573l-13.373,0c-0.944,0 -1.573,-0.472 -1.573,-1.573l0,-73.155c0,-1.101 0.472,-1.573 1.573,-1.573l12.901,0c0.944,0 1.73,0.472 2.359,1.573l23.441,47.512Z" style="fill:#fff;fill-rule:nonzero;"/><path d="M1966.72,163.53l-29.419,0c-0.944,0 -1.573,-0.629 -1.573,-1.573l-0,-11.642c-0,-1.101 0.472,-1.573 1.573,-1.573l53.175,0c1.259,0 1.573,1.259 0.944,2.36l-33.038,58.996l30.835,-0c0.787,-0 1.574,0.786 1.574,1.573l-0,11.642c-0,0.944 -0.472,1.573 -1.574,1.573l-54.276,-0c-1.101,-0 -1.888,-1.259 -1.416,-2.36l33.195,-58.996Z" style="fill:#fff;fill-rule:nonzero;"/><path d="M2039.4,147.798c0.629,0 1.259,0.472 1.573,1.573l31.779,73.942c0.315,0.944 -0.314,1.573 -1.258,1.573l-13.845,-0c-0.629,-0 -1.101,-0.472 -1.573,-1.573l-3.933,-9.44l-31.622,0l-4.09,9.44c-0.472,1.101 -0.944,1.573 -1.573,1.573l-14.002,-0c-0.944,-0 -1.416,-0.787 -1.101,-1.573l31.622,-73.942c0.314,-0.944 0.786,-1.573 1.573,-1.573l6.45,0Zm-12.743,51.287l18.879,0l-8.81,-20.766l-0.787,-1.731l-0.629,1.731l-8.653,20.766Z" style="fill:#fff;fill-rule:nonzero;"/><path d="M2130.96,210.098c0.943,-0 1.573,0.472 1.573,1.73l-0,11.485c-0,1.101 -0.472,1.573 -1.573,1.573l-46.568,-0c-0.786,-0 -1.573,-0.787 -1.573,-1.573l-0,-72.84c-0,-1.259 0.472,-1.731 1.573,-1.731l13.53,0c0.944,0 1.573,0.629 1.573,1.731l0,59.625l31.465,-0Z" style="fill:#fff;fill-rule:nonzero;"/><path d="M2192.79,210.098c0.944,-0 1.731,0.786 1.731,1.73l-0,11.485c-0,0.944 -0.787,1.573 -1.731,1.573l-47.983,-0c-0.787,-0 -1.573,-0.787 -1.573,-1.573l-0,-72.998c-0,-0.786 0.786,-1.573 1.573,-1.573l47.983,0c0.944,0 1.573,0.629 1.573,1.573l0,11.485c0,1.101 -0.629,1.573 -1.573,1.573l-33.038,0l0,15.89l22.026,-0c1.101,-0 1.573,0.472 1.573,1.573l-0,11.799c-0,0.944 -0.472,1.416 -1.573,1.416l-22.026,-0l0,16.047l33.038,-0Z" style="fill:#fff;fill-rule:nonzero;"/><path d="M2270.82,148.742c0.944,0 1.573,0.787 1.573,1.573l0,73.155c0,0.944 -0.629,1.573 -1.573,1.573l-11.327,0c-0.944,0 -1.888,-0.629 -2.675,-1.573l-33.667,-45.151l0,45.151c0,0.944 -0.629,1.573 -1.573,1.573l-13.53,0c-0.944,0 -1.573,-0.629 -1.573,-1.573l0,-73.155c0,-1.101 0.472,-1.573 1.573,-1.573l12.114,0c0.944,0 1.888,0.629 2.517,1.573l33.038,44.05l-0,-44.05c-0,-1.101 0.472,-1.573 1.416,-1.573l13.687,0Z" style="fill:#fff;fill-rule:nonzero;"/><path d="M2340.51,214.817c-6.136,6.608 -14.002,9.912 -23.913,10.069l-28.318,-0c-0.787,-0 -1.574,-0.787 -1.574,-1.573l0,-72.998c0,-0.786 0.787,-1.573 1.574,-1.573l28.79,0c19.665,0.315 32.565,13.058 32.565,38.229c-0.157,11.957 -3.146,21.396 -9.124,27.846m-24.543,-4.719c11.327,-0 16.991,-7.709 16.991,-23.127c0,-15.575 -5.664,-23.441 -16.991,-23.441l-12.743,0l0,46.568l12.743,-0Z" style="fill:#fff;fill-rule:nonzero;"/><path d="M2368.68,214.345c-7.551,-7.551 -11.327,-16.676 -11.327,-27.374c-0,-10.855 3.776,-19.98 11.327,-27.688c7.552,-7.709 16.676,-11.485 27.374,-11.485c10.698,0 19.823,3.776 27.374,11.485c7.552,7.551 11.17,16.833 11.17,27.688c0,10.856 -3.618,19.98 -11.17,27.374c-7.551,7.552 -16.676,11.485 -27.374,11.485c-10.698,-0 -19.822,-3.776 -27.374,-11.485m27.532,-3.303c6.45,-0 11.641,-2.36 15.732,-7.08c4.09,-4.72 6.135,-10.383 6.135,-16.991c0,-6.607 -2.045,-12.428 -6.135,-17.148c-4.091,-4.719 -9.44,-7.079 -15.732,-7.079c-6.451,-0 -11.642,2.36 -15.733,6.922c-4.247,4.72 -6.293,10.383 -6.293,17.148c0,6.608 2.046,12.271 6.293,16.991c4.091,4.719 9.282,7.237 15.733,7.237" style="fill:#fff;fill-rule:nonzero;"/><path d="M1696.75,248.327c-6.451,11.012 -12.743,22.025 -19.194,33.195c-1.258,-0.629 -2.517,-1.416 -3.618,-2.045c0.157,-0.315 0.315,-0.472 0.315,-0.63c5.034,-8.81 10.068,-17.62 15.26,-26.272c1.573,-2.675 3.146,-5.507 4.72,-8.181c0.157,-0.315 0.314,-0.472 0.157,-0.787l2.36,4.72Z" style="fill-rule:nonzero;"/><path d="M1757.32,243.293c-0.158,0.314 -0.158,0.629 -0,1.101c5.034,8.653 10.068,17.305 15.103,25.958c1.573,2.832 3.303,5.664 4.877,8.495c0.157,0.158 0.157,0.472 0.314,0.63c-1.258,0.629 -2.36,1.416 -3.461,2.045c-0.315,-0.315 -5.506,-9.282 -9.754,-16.519c-3.146,-5.506 -6.293,-11.012 -9.596,-16.676l2.517,-5.034Z" style="fill-rule:nonzero;"/><path d="M1754.81,139.145c0.157,-0.157 0.314,-0.314 0.314,-0.472c0.944,-1.573 1.731,-2.989 2.675,-4.562c0.157,-0.314 0.314,-0.472 0.157,-0.786c-0.629,-2.675 -0,-5.192 0.944,-7.552c0.787,-1.73 1.573,-3.461 2.517,-5.192c2.675,-4.562 5.506,-9.124 8.81,-13.372c3.147,-4.09 6.45,-7.866 10.226,-11.484c1.101,-1.102 2.36,-2.046 3.461,-3.147c0.157,-0.157 0.315,-0.157 0.472,-0.315c0,0.315 0,0.472 -0.157,0.63c-0.787,4.247 -1.888,8.338 -3.304,12.271c-2.36,7.079 -5.506,13.844 -9.282,20.294c-0.944,1.574 -2.045,3.304 -2.989,4.877c-0.944,1.416 -2.203,2.675 -3.461,3.619c-0.944,0.629 -1.888,1.258 -2.989,1.573c-0.315,0.157 -0.63,0.315 -0.787,0.629c-1.416,2.36 -2.674,4.72 -4.09,7.08c-0.158,0.314 -0.315,0.629 -0.158,0.944l-2.359,-5.035Z" style="fill-rule:nonzero;"/><path d="M1694.24,144.337c0.157,-0.315 0.157,-0.629 -0,-0.944c-1.416,-2.36 -2.832,-4.877 -4.248,-7.237c-0.157,-0.314 -0.315,-0.472 -0.629,-0.472c-2.36,-0.786 -4.248,-2.202 -5.821,-4.247c-1.259,-1.574 -2.36,-3.304 -3.461,-5.035c-1.888,-3.146 -3.619,-6.45 -5.192,-9.754c-3.461,-7.551 -6.136,-15.417 -7.866,-23.598l-0,-0.629c0.314,-0.158 0.314,0.157 0.472,0.157c2.36,2.045 4.719,4.248 6.765,6.608c2.989,3.146 5.663,6.45 8.338,10.068c3.303,4.563 6.293,9.282 8.81,14.159c0.944,1.731 1.573,3.619 2.045,5.507c0.315,1.415 0.315,2.831 -0,4.09c-0,0.472 -0,0.787 0.157,1.101c0.944,1.416 1.731,2.989 2.517,4.405c0.158,0.157 0.158,0.315 0.315,0.629l-2.202,5.192Z" style="fill-rule:nonzero;"/><path d="M1694.24,243.45c-2.203,-4.562 -3.934,-9.282 -5.507,-14.159c-1.888,-5.506 -3.304,-11.013 -4.405,-16.833c-0.472,-2.832 -0.944,-5.664 -1.258,-8.339c-0.158,-1.887 -0.472,-3.933 -0.472,-5.82c-0.158,-2.675 -0.158,-5.349 -0,-8.024c0.157,-2.517 0.314,-5.034 0.629,-7.709c0.787,-7.394 2.517,-14.473 4.72,-21.553c1.101,-3.304 2.202,-6.607 3.303,-9.911c0.944,-2.36 1.888,-4.562 2.99,-6.922l2.517,-5.035c0.157,-0.157 0.157,-0.314 0.314,-0.472c2.36,-4.405 5.035,-8.81 7.866,-12.9c2.832,-3.933 5.664,-7.866 8.968,-11.327c1.573,-1.573 3.304,-3.147 5.191,-4.562c1.259,-0.787 2.518,-1.574 3.933,-2.203c1.888,-0.629 3.619,-0.629 5.507,0c2.045,0.787 3.775,2.045 5.349,3.304c2.517,2.202 4.877,4.562 6.922,7.079c4.405,5.349 8.338,11.17 11.799,17.306c0.629,0.944 1.101,2.045 1.731,2.989c0.157,0.157 0.157,0.314 0.314,0.629l2.517,5.034c2.203,4.563 3.933,9.282 5.507,14.002c1.887,5.821 3.461,11.799 4.562,17.777c0.472,2.832 0.944,5.821 1.259,8.653c0.472,4.091 0.472,8.181 0.472,12.271c-0,2.046 -0.315,3.933 -0.472,5.979c-0.315,3.303 -0.787,6.45 -1.416,9.596c-0.787,4.405 -1.888,8.81 -3.304,13.058c-1.101,3.461 -2.203,6.922 -3.461,10.383c-0.944,2.517 -2.045,4.877 -2.989,7.237l-2.517,5.034c-0.472,0.787 -0.787,1.416 -1.259,2.203c-2.832,5.191 -6.136,10.226 -9.597,14.945c-2.202,2.99 -4.562,5.821 -7.237,8.496c-1.887,1.888 -3.933,3.618 -6.135,4.877c-1.416,0.786 -2.832,1.416 -4.248,1.416c-0.944,-0 -1.73,-0.158 -2.674,-0.315c-1.731,-0.472 -3.147,-1.416 -4.72,-2.517c-2.36,-1.731 -4.562,-3.933 -6.45,-6.136c-5.192,-5.821 -9.439,-12.271 -13.372,-19.036c-0.63,-1.101 -1.259,-2.359 -2.046,-3.618c0,-0.157 -0.157,-0.315 -0.314,-0.472l-2.517,-4.405Z" style="fill-rule:nonzero;"/><path d="M1764.72,196.725c-0,1.888 -0.315,3.776 -0.315,5.664c-0.314,3.146 -0.786,6.135 -1.258,9.282c-0.787,4.248 -1.731,8.495 -2.99,12.586c-0.943,3.303 -2.045,6.765 -3.146,10.068c-0.787,2.36 -1.731,4.563 -2.674,6.922l-2.36,4.877c-0.472,0.787 -0.787,1.416 -1.102,2.203c-2.517,4.877 -5.506,9.754 -8.652,14.316c-2.045,2.832 -4.091,5.507 -6.45,8.024c-1.731,1.73 -3.462,3.461 -5.507,4.719c-0.314,0.158 -0.786,0.158 -1.101,0.315c1.259,-3.618 2.517,-7.394 3.304,-11.327c0.786,-4.091 1.416,-8.338 1.73,-12.586c0.315,-2.832 0.315,-5.506 0.472,-8.338c0,-2.989 0,-6.136 -0.314,-9.125c-0.158,-1.888 -0.315,-3.775 -0.472,-5.506c-0.315,-3.146 -0.944,-6.293 -1.574,-9.439c-0.943,-4.563 -2.359,-9.125 -4.09,-13.53c0,-0.157 -0.157,-0.315 -0.157,-0.472l-0.158,0l0,70.795c-0.472,0.157 -0.943,0.472 -1.415,0.472c-0.787,-0 -1.574,-0.157 -2.203,-0.315l0,-71.109l-0.157,-0c-0.158,0.157 -0.158,0.472 -0.315,0.629c-1.259,3.146 -2.202,6.293 -3.146,9.439c-1.416,5.664 -2.36,11.485 -2.832,17.306c-0.315,2.832 -0.315,5.506 -0.472,8.338c-0,3.146 -0,6.293 0.315,9.439c0.157,2.203 0.314,4.248 0.629,6.45c0.472,3.304 0.944,6.451 1.73,9.597c0.63,3.146 1.731,6.136 2.832,9.125c-0.944,-0.472 -2.045,-0.944 -2.832,-1.731c-2.202,-1.73 -4.09,-3.618 -5.821,-5.821c-4.719,-5.506 -8.495,-11.799 -11.956,-18.092c-0.629,-1.101 -1.259,-2.202 -1.731,-3.304c0,-0.157 -0.157,-0.314 -0.314,-0.472l-2.203,-4.719c-2.045,-4.405 -3.618,-8.968 -5.034,-13.53c-1.573,-5.192 -2.989,-10.54 -3.933,-16.047c-0.472,-2.674 -0.944,-5.349 -1.101,-8.023c-0.158,-1.888 -0.315,-3.776 -0.472,-5.506c-0.158,-2.518 -0.158,-5.192 -0,-7.709c0.157,-2.36 0.314,-4.877 0.629,-7.237c0.787,-7.08 2.202,-13.844 4.248,-20.609c0.944,-3.147 1.888,-6.293 2.989,-9.44c0.786,-2.202 1.73,-4.405 2.674,-6.607l2.203,-4.877c0.157,-0.157 0.157,-0.315 0.314,-0.472c2.203,-4.248 4.563,-8.338 7.08,-12.271c2.517,-3.776 5.192,-7.394 8.181,-10.855c1.416,-1.574 2.989,-2.99 4.562,-4.405c0.787,-0.63 1.731,-1.102 2.674,-1.574c-0.943,2.675 -1.887,5.349 -2.674,8.181c-1.259,5.192 -2.045,10.383 -2.517,15.575c-0.157,2.674 -0.315,5.192 -0.472,7.866l-0,4.405c0.157,2.36 0.157,4.72 0.315,7.08c0.157,1.887 0.314,3.775 0.629,5.663c0.472,2.989 0.944,6.136 1.73,9.125c0.944,4.09 2.046,8.023 3.619,11.799c0.157,0.315 0.157,0.629 0.314,0.787l0.158,-0l-0,-70.953c1.258,-0.314 2.517,-0.314 3.775,0l0,70.953l0.158,-0c-0,-0.158 0.157,-0.158 0.157,-0.315c1.573,-3.776 2.832,-7.709 3.776,-11.799c1.258,-5.192 2.045,-10.383 2.517,-15.575c0.315,-2.832 0.315,-5.506 0.472,-8.338l-0,-3.933c-0,-2.36 -0.157,-4.562 -0.315,-6.765c-0.314,-2.517 -0.472,-5.034 -0.786,-7.394c-0.63,-4.405 -1.574,-8.81 -2.989,-13.215c-0.315,-0.944 -0.63,-1.888 -1.102,-2.832c1.416,0.787 2.675,1.573 3.933,2.517c2.36,2.045 4.405,4.405 6.293,6.765c4.091,5.192 7.394,10.698 10.541,16.519c0.472,0.944 1.101,1.888 1.573,2.832c0,0.157 0.157,0.314 0.315,0.472l2.202,4.719c2.045,4.248 3.461,8.81 4.877,13.373c1.731,5.506 3.147,11.17 4.091,16.99c0.472,2.675 0.786,5.507 1.101,8.338l-0,11.642" style="fill:#c01823;fill-rule:nonzero;"/><path d="M1691.56,236.528c-0.157,-0.472 -0.315,-0.944 -0.629,-1.416c-2.517,-7.08 -4.72,-14.474 -6.293,-21.868c-0.787,-4.09 -1.416,-8.181 -1.731,-12.271c-0.314,-3.304 -0.314,-6.765 -0.314,-10.069c0.157,-6.45 1.101,-12.9 2.517,-19.193c1.258,-5.349 2.674,-10.383 4.405,-15.575c0.472,-1.573 1.101,-2.989 1.573,-4.562c0,-0.157 0.157,-0.315 0.315,-0.629c0.157,0.157 0.157,0.314 0.157,0.314c0.944,2.832 2.045,5.664 2.989,8.496c0.944,3.146 1.888,6.135 2.675,9.282c1.258,5.034 2.202,9.911 2.674,15.103c0.157,1.887 0.315,3.618 0.315,5.506c0.157,2.045 0.157,4.09 0.157,6.135c0,2.36 -0.315,4.72 -0.472,7.08c-0.315,3.776 -0.944,7.394 -1.73,11.012c-0.944,4.248 -1.888,8.496 -3.304,12.744c-0.944,3.146 -2.045,6.292 -3.147,9.439c0.158,-0 0,0.314 -0.157,0.472Z" style="fill-rule:nonzero;"/><path d="M1760,236.685c-0.157,-0.315 -0.157,-0.472 -0.314,-0.629c-1.888,-5.034 -3.619,-10.226 -5.035,-15.575c-1.101,-4.562 -2.202,-9.125 -2.832,-13.687c-0.314,-2.203 -0.472,-4.405 -0.629,-6.608c-0.315,-3.146 -0.315,-6.135 -0.157,-9.282c-0,-2.989 0.314,-5.978 0.786,-9.124c0.787,-6.765 2.36,-13.373 4.405,-19.823c1.102,-3.461 2.203,-6.765 3.462,-10.226c0.157,-0.314 0.157,-0.472 0.314,-0.786c0.157,0.157 0.157,0.314 0.315,0.472c2.832,7.708 5.191,15.574 6.765,23.755c0.786,3.933 1.258,7.709 1.573,11.642c0.315,3.304 0.315,6.608 0.315,9.911c-0.158,5.979 -0.944,11.799 -2.203,17.62c-1.416,6.451 -3.304,12.901 -5.506,19.194c-0.315,0.944 -0.787,2.045 -1.102,2.989c0,-0.158 0,-0.158 -0.157,0.157" style="fill-rule:nonzero;"/><path d="M1723.81,204.906c-0.157,0.315 -0.157,0.472 -0.315,0.629c-1.258,3.147 -2.359,6.293 -3.146,9.44c-1.416,5.663 -2.517,11.484 -2.989,17.305c-0.315,2.832 -0.315,5.506 -0.472,8.338c-0,3.147 -0,6.293 0.315,9.439c0.157,2.203 0.314,4.248 0.629,6.451c0.472,3.303 0.944,6.45 1.73,9.596c0.787,3.147 1.731,6.136 2.832,8.968c0.472,0.157 0.787,0.629 1.416,0.786l0.157,0l-0.157,-70.952c0,0.157 0,0 0,0" style="fill:#fff;fill-rule:nonzero;"/><path d="M1717.36,135.842c-0.157,2.674 -0.315,5.191 -0.472,7.866l-0,4.562c0.157,2.36 0.157,4.72 0.315,7.08c0.157,1.887 0.314,3.775 0.629,5.821c0.472,2.989 0.944,6.135 1.73,9.124c0.944,3.933 2.203,7.866 3.776,11.799c0.157,0.315 0.315,0.63 0.315,0.787l0.157,-0l0,-71.11c-0.157,0 -0.472,0 -0.629,0.158c-0.315,0.157 -0.472,0.314 -0.787,0.472c-0.944,2.674 -2.045,5.349 -2.674,8.18c-1.102,4.877 -2.045,10.069 -2.36,15.261" style="fill:#fff;fill-rule:nonzero;"/><path d="M1727.9,182.566c0,-0.157 0.158,-0.157 0.158,-0.314c1.573,-3.776 2.832,-7.709 3.775,-11.799c1.259,-5.192 2.046,-10.384 2.518,-15.575c0.314,-2.832 0.314,-5.507 0.472,-8.338l-0,-3.933c-0,-2.36 -0.158,-4.563 -0.315,-6.765c-0.315,-2.517 -0.472,-5.035 -0.944,-7.394c-0.629,-4.405 -1.731,-8.81 -2.989,-13.216c-0.315,-0.943 -0.787,-1.887 -1.101,-2.831c-0.315,-0.158 -0.63,-0.472 -0.944,-0.63c-0.158,-0.157 -0.472,0 -0.63,-0.157l0,70.952" style="fill:#fff;fill-rule:nonzero;"/><path d="M1734.35,251.473c0.314,-2.831 0.314,-5.506 0.472,-8.338c-0,-2.989 -0,-6.135 -0.315,-9.124c-0.157,-1.888 -0.315,-3.776 -0.472,-5.507c-0.315,-3.146 -0.944,-6.293 -1.573,-9.439c-1.101,-4.72 -2.36,-9.125 -4.248,-13.53c0,-0.157 -0.157,-0.314 -0.157,-0.472l-0.158,0l0,70.795c0.472,-0.157 0.944,-0.314 1.416,-0.472c1.259,-3.618 2.675,-7.394 3.461,-11.327c0.63,-4.09 1.259,-8.338 1.574,-12.586" style="fill:#fff;fill-rule:nonzero;"/><path d="M1729.48,184.612c-0.944,-0.787 -2.046,-1.416 -3.304,-1.574c-1.573,-0.157 -2.832,0.472 -3.933,1.574c-1.416,1.258 -2.203,2.831 -2.832,4.562c-0.787,2.36 -0.787,4.72 -0.472,7.237c0.315,2.36 1.259,4.405 2.832,6.135c0.944,1.101 2.202,1.731 3.618,1.888c1.416,0.157 2.675,-0.315 3.776,-1.258c1.259,-0.944 2.045,-2.203 2.674,-3.776c0.787,-1.888 1.102,-3.776 1.102,-5.821c-0,-1.573 -0.158,-2.989 -0.63,-4.562c-0.629,-1.574 -1.415,-3.147 -2.831,-4.405" style="fill:#fff;fill-rule:nonzero;"/></g></g></g></svg>