<?xml version="1.0" encoding="UTF-8" standalone="no"?><!DOCTYPE svg PUBLIC "-//W3C//DTD SVG 1.1//EN" "http://www.w3.org/Graphics/SVG/1.1/DTD/svg11.dtd"><svg width="100%" height="100%" viewBox="0 0 3341 474" version="1.1" xmlns="http://www.w3.org/2000/svg" xmlns:xlink="http://www.w3.org/1999/xlink" xml:space="preserve" xmlns:serif="http://www.serif.com/" style="fill-rule:evenodd;clip-rule:evenodd;stroke-linejoin:round;stroke-miterlimit:2;"><rect id="we-logo-laptop" x="0" y="0" width="3340.51" height="473.269" style="fill:none;"/><clipPath id="_clip1"><rect x="0" y="0" width="3340.51" height="473.269"/></clipPath><g clip-path="url(#_clip1)"><g><g><rect x="1740.44" y="3.22" width="88.846" height="464.935" style="fill:#fefffe;"/><path d="M3385.44,-3.941l-1559.72,0l-33.754,480.653l1593.48,0l0,-480.653Z" style="fill:#008941;"/><path id="Dokeza" d="M1784.86,0.342l-1784.86,0l0,473.269l1749.88,0l34.985,-473.269Z" style="fill:#c22710;"/></g><g><path d="M1171.55,297.431c-1.743,-0 -3.304,-0.169 -4.682,-0.506c-1.377,-0.338 -2.586,-0.76 -3.627,-1.266c-1.04,-0.506 -1.926,-1.054 -2.657,-1.645c-0.731,-0.59 -1.321,-1.138 -1.771,-1.644l-0,17.967c-0,0.618 -0.225,1.152 -0.675,1.602c-0.45,0.45 -0.984,0.675 -1.603,0.675l-6.41,0c-0.619,0 -1.153,-0.225 -1.603,-0.675c-0.45,-0.45 -0.675,-0.984 -0.675,-1.602l0,-55.335c0,-0.619 0.225,-1.153 0.675,-1.603c0.45,-0.45 0.984,-0.675 1.603,-0.675l6.41,0c0.619,0 1.153,0.225 1.603,0.675c0.45,0.45 0.675,0.984 0.675,1.603l-0,1.94c0.45,-0.506 1.04,-1.055 1.771,-1.645c0.731,-0.591 1.617,-1.139 2.657,-1.645c1.041,-0.506 2.25,-0.928 3.627,-1.265c1.378,-0.338 2.939,-0.506 4.682,-0.506c2.812,-0 5.356,0.548 7.634,1.644c2.277,1.097 4.217,2.559 5.82,4.387c1.603,1.827 2.868,3.936 3.796,6.326c0.928,2.39 1.448,4.878 1.56,7.465c0.057,0.844 0.085,1.828 0.085,2.953c-0,1.124 -0.028,2.108 -0.085,2.952c-0.112,2.587 -0.632,5.075 -1.56,7.465c-0.928,2.39 -2.193,4.499 -3.796,6.327c-1.603,1.827 -3.543,3.289 -5.82,4.386c-2.278,1.096 -4.822,1.645 -7.634,1.645Zm7.845,-20.414c0.168,-1.574 0.168,-3.149 -0,-4.723c-0.338,-3.656 -1.462,-6.284 -3.374,-7.887c-1.912,-1.603 -4.246,-2.404 -7.002,-2.404c-2.755,-0 -5.075,0.815 -6.959,2.446c-1.884,1.631 -2.966,3.965 -3.247,7.001c-0.113,0.844 -0.169,1.912 -0.169,3.206c0,1.293 0.056,2.361 0.169,3.205c0.281,2.924 1.363,5.23 3.247,6.917c1.884,1.687 4.204,2.53 6.959,2.53c2.756,0 5.09,-0.801 7.002,-2.404c1.912,-1.602 3.036,-4.231 3.374,-7.887Z" style="fill:#fff;fill-rule:nonzero;"/><path d="M1219.37,251.881c3.093,-0 5.89,0.478 8.393,1.434c2.502,0.956 4.667,2.277 6.495,3.964c1.827,1.687 3.29,3.655 4.386,5.905c1.097,2.249 1.729,4.667 1.898,7.254c0.056,0.506 0.084,1.153 0.084,1.94l0,4.682c0,0.759 -0.028,1.391 -0.084,1.898c-0.225,2.586 -0.872,5.004 -1.94,7.254c-1.069,2.249 -2.517,4.203 -4.344,5.862c-1.828,1.659 -3.993,2.967 -6.495,3.923c-2.503,0.956 -5.3,1.434 -8.393,1.434c-3.093,-0 -5.891,-0.478 -8.393,-1.434c-2.503,-0.956 -4.668,-2.264 -6.496,-3.923c-1.827,-1.659 -3.275,-3.613 -4.344,-5.862c-1.068,-2.25 -1.715,-4.668 -1.94,-7.254c-0.056,-0.507 -0.098,-1.139 -0.126,-1.898c-0.028,-0.76 -0.042,-1.533 -0.042,-2.32c-0,-0.787 0.014,-1.575 0.042,-2.362c0.028,-0.787 0.07,-1.434 0.126,-1.94c0.169,-2.587 0.802,-5.005 1.898,-7.254c1.097,-2.25 2.559,-4.218 4.386,-5.905c1.828,-1.687 3.993,-3.008 6.496,-3.964c2.502,-0.956 5.3,-1.434 8.393,-1.434Zm10.206,18.979c-0.168,-1.744 -0.576,-3.192 -1.223,-4.344c-0.647,-1.153 -1.448,-2.067 -2.404,-2.742c-0.956,-0.675 -1.996,-1.139 -3.121,-1.392c-1.125,-0.253 -2.277,-0.379 -3.458,-0.379c-1.181,-0 -2.334,0.126 -3.459,0.379c-1.124,0.253 -2.165,0.717 -3.121,1.392c-0.956,0.675 -1.757,1.589 -2.404,2.742c-0.647,1.152 -1.054,2.6 -1.223,4.344c-0.056,0.45 -0.098,1.012 -0.126,1.687c-0.029,0.675 -0.043,1.378 -0.043,2.109c0,0.731 0.014,1.448 0.043,2.151c0.028,0.703 0.07,1.251 0.126,1.644c0.169,1.744 0.576,3.192 1.223,4.345c0.647,1.152 1.448,2.066 2.404,2.741c0.956,0.675 1.997,1.139 3.121,1.392c1.125,0.253 2.278,0.379 3.459,0.379c1.181,0 2.333,-0.126 3.458,-0.379c1.125,-0.253 2.165,-0.717 3.121,-1.392c0.956,-0.675 1.757,-1.589 2.404,-2.741c0.647,-1.153 1.055,-2.601 1.223,-4.345c0.056,-0.393 0.085,-0.941 0.085,-1.644l-0,-4.26c-0,-0.675 -0.029,-1.237 -0.085,-1.687Z" style="fill:#fff;fill-rule:nonzero;"/><path d="M1291.83,278.873l7.592,-24.124c0.169,-0.45 0.408,-0.9 0.717,-1.35c0.309,-0.45 0.857,-0.675 1.645,-0.675l6.41,0c0.619,0 1.153,0.225 1.603,0.675c0.45,0.45 0.675,0.984 0.675,1.603c-0,0.225 -0.028,0.421 -0.084,0.59l-12.738,38.886c-0.168,0.506 -0.421,0.984 -0.759,1.434c-0.337,0.45 -0.899,0.675 -1.687,0.675l-6.411,0c-0.787,0 -1.335,-0.225 -1.644,-0.675c-0.31,-0.45 -0.577,-0.928 -0.802,-1.434l-8.182,-22.522l-8.182,22.522c-0.225,0.506 -0.492,0.984 -0.801,1.434c-0.31,0.45 -0.858,0.675 -1.645,0.675l-6.411,0c-0.787,0 -1.35,-0.225 -1.687,-0.675c-0.337,-0.45 -0.591,-0.928 -0.759,-1.434l-12.737,-38.886c-0.057,-0.169 -0.085,-0.365 -0.085,-0.59c0,-0.619 0.225,-1.153 0.675,-1.603c0.45,-0.45 0.984,-0.675 1.603,-0.675l6.41,0c0.788,0 1.336,0.225 1.645,0.675c0.31,0.45 0.549,0.9 0.717,1.35l7.592,24.124l8.098,-24.124c0.112,-0.45 0.379,-0.9 0.801,-1.35c0.422,-0.45 0.942,-0.675 1.561,-0.675l6.41,0c0.619,0 1.139,0.225 1.561,0.675c0.422,0.45 0.689,0.9 0.801,1.35l8.098,24.124Z" style="fill:#fff;fill-rule:nonzero;"/><path d="M1315.54,274.656c0,-3.15 0.478,-6.116 1.434,-8.9c0.956,-2.783 2.334,-5.201 4.133,-7.254c1.8,-2.052 3.979,-3.669 6.538,-4.85c2.558,-1.181 5.412,-1.771 8.561,-1.771c3.15,-0 6.003,0.576 8.562,1.729c2.559,1.153 4.738,2.699 6.537,4.639c1.8,1.94 3.192,4.218 4.176,6.833c0.984,2.615 1.476,5.356 1.476,8.224l0,3.796c0,0.618 -0.225,1.153 -0.675,1.603c-0.45,0.449 -0.984,0.674 -1.603,0.674l-28.173,0c-0,1.294 0.267,2.432 0.801,3.417c0.534,0.984 1.251,1.813 2.151,2.488c0.9,0.675 1.94,1.181 3.121,1.518c1.181,0.338 2.39,0.506 3.627,0.506c1.8,0 3.262,-0.182 4.387,-0.548c1.124,-0.365 2.052,-0.829 2.783,-1.392c0.619,-0.45 1.125,-0.759 1.519,-0.928c0.393,-0.168 0.928,-0.253 1.602,-0.253l6.749,0c0.618,0 1.166,0.225 1.644,0.675c0.478,0.45 0.689,0.984 0.633,1.603c-0.056,0.787 -0.492,1.799 -1.307,3.037c-0.816,1.237 -2.039,2.446 -3.67,3.627c-1.631,1.181 -3.641,2.193 -6.031,3.036c-2.39,0.844 -5.159,1.266 -8.309,1.266c-3.149,-0 -6.003,-0.549 -8.561,-1.645c-2.559,-1.097 -4.738,-2.657 -6.538,-4.682c-1.799,-2.024 -3.177,-4.428 -4.133,-7.212c-0.956,-2.783 -1.434,-5.862 -1.434,-9.236Zm20.666,-12.653c-1.63,-0 -3.022,0.239 -4.175,0.717c-1.153,0.478 -2.123,1.096 -2.91,1.856c-0.787,0.759 -1.392,1.602 -1.814,2.53c-0.422,0.928 -0.689,1.814 -0.801,2.657l19.063,0c-0.112,-0.843 -0.323,-1.729 -0.632,-2.657c-0.309,-0.928 -0.816,-1.771 -1.519,-2.53c-0.702,-0.76 -1.63,-1.378 -2.783,-1.856c-1.153,-0.478 -2.629,-0.717 -4.429,-0.717Z" style="fill:#fff;fill-rule:nonzero;"/><path d="M1386.64,262.846c-3.374,0 -5.806,0.745 -7.297,2.236c-1.49,1.49 -2.235,3.922 -2.235,7.296l0,21.932c0,0.618 -0.225,1.152 -0.675,1.602c-0.45,0.45 -0.984,0.675 -1.602,0.675l-6.411,0c-0.619,0 -1.153,-0.225 -1.603,-0.675c-0.45,-0.45 -0.675,-0.984 -0.675,-1.602l0,-39.308c0,-0.619 0.225,-1.153 0.675,-1.603c0.45,-0.45 0.984,-0.675 1.603,-0.675l6.411,0c0.618,0 1.152,0.225 1.602,0.675c0.45,0.45 0.675,0.984 0.675,1.603l0,1.94c1.462,-1.35 3.023,-2.39 4.682,-3.121c1.659,-0.731 3.838,-1.097 6.537,-1.097l3.796,0c0.618,0 1.153,0.225 1.603,0.675c0.449,0.45 0.674,0.984 0.674,1.603l0,5.567c0,0.618 -0.225,1.153 -0.674,1.603c-0.45,0.449 -0.985,0.674 -1.603,0.674l-5.483,0Z" style="fill:#fff;fill-rule:nonzero;"/><path d="M1398.54,274.656c-0,-3.15 0.478,-6.116 1.434,-8.9c0.956,-2.783 2.333,-5.201 4.133,-7.254c1.799,-2.052 3.978,-3.669 6.537,-4.85c2.559,-1.181 5.413,-1.771 8.562,-1.771c3.149,-0 6.003,0.576 8.562,1.729c2.558,1.153 4.737,2.699 6.537,4.639c1.799,1.94 3.191,4.218 4.175,6.833c0.984,2.615 1.477,5.356 1.477,8.224l-0,3.796c-0,0.618 -0.225,1.153 -0.675,1.603c-0.45,0.449 -0.984,0.674 -1.603,0.674l-28.174,0c0,1.294 0.268,2.432 0.802,3.417c0.534,0.984 1.251,1.813 2.151,2.488c0.899,0.675 1.94,1.181 3.121,1.518c1.181,0.338 2.39,0.506 3.627,0.506c1.799,0 3.262,-0.182 4.386,-0.548c1.125,-0.365 2.053,-0.829 2.784,-1.392c0.618,-0.45 1.125,-0.759 1.518,-0.928c0.394,-0.168 0.928,-0.253 1.603,-0.253l6.748,0c0.619,0 1.167,0.225 1.645,0.675c0.478,0.45 0.689,0.984 0.633,1.603c-0.057,0.787 -0.493,1.799 -1.308,3.037c-0.815,1.237 -2.038,2.446 -3.669,3.627c-1.631,1.181 -3.641,2.193 -6.031,3.036c-2.39,0.844 -5.16,1.266 -8.309,1.266c-3.149,-0 -6.003,-0.549 -8.562,-1.645c-2.559,-1.097 -4.738,-2.657 -6.537,-4.682c-1.8,-2.024 -3.177,-4.428 -4.133,-7.212c-0.956,-2.783 -1.434,-5.862 -1.434,-9.236Zm20.666,-12.653c-1.631,-0 -3.023,0.239 -4.176,0.717c-1.152,0.478 -2.122,1.096 -2.91,1.856c-0.787,0.759 -1.392,1.602 -1.813,2.53c-0.422,0.928 -0.689,1.814 -0.802,2.657l19.064,0c-0.112,-0.843 -0.323,-1.729 -0.633,-2.657c-0.309,-0.928 -0.815,-1.771 -1.518,-2.53c-0.703,-0.76 -1.631,-1.378 -2.784,-1.856c-1.152,-0.478 -2.629,-0.717 -4.428,-0.717Z" style="fill:#fff;fill-rule:nonzero;"/><path d="M1466.02,251.881c1.744,-0 3.304,0.168 4.682,0.506c1.378,0.337 2.587,0.759 3.627,1.265c1.04,0.506 1.926,1.054 2.657,1.645c0.731,0.59 1.322,1.139 1.772,1.645l-0,-17.967c-0,-0.619 0.224,-1.153 0.674,-1.603c0.45,-0.45 0.984,-0.675 1.603,-0.675l6.411,0c0.618,0 1.153,0.225 1.602,0.675c0.45,0.45 0.675,0.984 0.675,1.603l0,55.335c0,0.618 -0.225,1.152 -0.675,1.602c-0.449,0.45 -0.984,0.675 -1.602,0.675l-6.411,0c-0.619,0 -1.153,-0.225 -1.603,-0.675c-0.45,-0.45 -0.674,-0.984 -0.674,-1.602l-0,-1.94c-0.45,0.506 -1.041,1.054 -1.772,1.644c-0.731,0.591 -1.617,1.139 -2.657,1.645c-1.04,0.506 -2.249,0.928 -3.627,1.266c-1.378,0.337 -2.938,0.506 -4.682,0.506c-2.811,-0 -5.356,-0.549 -7.634,-1.645c-2.277,-1.097 -4.217,-2.559 -5.82,-4.386c-1.603,-1.828 -2.868,-3.937 -3.796,-6.327c-0.928,-2.39 -1.448,-4.878 -1.56,-7.465c-0.056,-0.844 -0.085,-1.828 -0.085,-2.952c0,-1.125 0.029,-2.109 0.085,-2.953c0.112,-2.587 0.632,-5.075 1.56,-7.465c0.928,-2.39 2.193,-4.499 3.796,-6.326c1.603,-1.828 3.543,-3.29 5.82,-4.387c2.278,-1.096 4.823,-1.644 7.634,-1.644Zm-7.844,20.413c-0.169,1.574 -0.169,3.149 -0,4.723c0.337,3.656 1.462,6.285 3.374,7.887c1.912,1.603 4.245,2.404 7.001,2.404c2.755,0 5.075,-0.815 6.959,-2.446c1.884,-1.631 2.966,-3.964 3.248,-7.001c0.112,-0.844 0.168,-1.912 0.168,-3.205c0,-1.294 -0.056,-2.362 -0.168,-3.206c-0.282,-2.924 -1.364,-5.23 -3.248,-6.917c-1.884,-1.687 -4.204,-2.53 -6.959,-2.53c-2.756,-0 -5.089,0.801 -7.001,2.404c-1.912,1.603 -3.037,4.231 -3.374,7.887Z" style="fill:#fff;fill-rule:nonzero;"/><path d="M1544.3,251.881c2.812,-0 5.356,0.548 7.634,1.644c2.278,1.097 4.218,2.559 5.82,4.387c1.603,1.827 2.868,3.936 3.796,6.326c0.928,2.39 1.448,4.878 1.561,7.465c0.056,0.844 0.084,1.828 0.084,2.953c0,1.124 -0.028,2.108 -0.084,2.952c-0.113,2.587 -0.633,5.075 -1.561,7.465c-0.928,2.39 -2.193,4.499 -3.796,6.327c-1.602,1.827 -3.542,3.289 -5.82,4.386c-2.278,1.096 -4.822,1.645 -7.634,1.645c-1.743,-0 -3.304,-0.169 -4.681,-0.506c-1.378,-0.338 -2.587,-0.76 -3.628,-1.266c-1.04,-0.506 -1.926,-1.054 -2.657,-1.645c-0.731,-0.59 -1.321,-1.138 -1.771,-1.644l-0,1.94c-0,0.618 -0.225,1.152 -0.675,1.602c-0.45,0.45 -0.984,0.675 -1.603,0.675l-6.41,0c-0.619,0 -1.153,-0.225 -1.603,-0.675c-0.45,-0.45 -0.675,-0.984 -0.675,-1.602l0,-55.335c0,-0.619 0.225,-1.153 0.675,-1.603c0.45,-0.45 0.984,-0.675 1.603,-0.675l6.41,0c0.619,0 1.153,0.225 1.603,0.675c0.45,0.45 0.675,0.984 0.675,1.603l-0,17.967c0.45,-0.506 1.04,-1.055 1.771,-1.645c0.731,-0.591 1.617,-1.139 2.657,-1.645c1.041,-0.506 2.25,-0.928 3.628,-1.265c1.377,-0.338 2.938,-0.506 4.681,-0.506Zm7.845,20.413c-0.338,-3.656 -1.462,-6.284 -3.374,-7.887c-1.912,-1.603 -4.246,-2.404 -7.001,-2.404c-2.756,-0 -5.076,0.843 -6.959,2.53c-1.884,1.687 -2.967,3.993 -3.248,6.917c-0.113,0.844 -0.169,1.912 -0.169,3.206c0,1.293 0.056,2.361 0.169,3.205c0.281,3.037 1.364,5.37 3.248,7.001c1.883,1.631 4.203,2.446 6.959,2.446c2.755,0 5.089,-0.801 7.001,-2.404c1.912,-1.602 3.036,-4.231 3.374,-7.887c0.169,-1.574 0.169,-3.149 -0,-4.723Z" style="fill:#fff;fill-rule:nonzero;"/><path d="M1584.28,294.225l-16.702,-38.633c-0.056,-0.169 -0.084,-0.365 -0.084,-0.59c-0,-0.619 0.225,-1.153 0.675,-1.603c0.45,-0.45 0.984,-0.675 1.602,-0.675l6.327,0c0.675,0 1.265,0.225 1.771,0.675c0.506,0.45 0.844,0.9 1.013,1.35l11.218,26.064l11.219,-26.064c0.169,-0.45 0.506,-0.9 1.012,-1.35c0.507,-0.45 1.097,-0.675 1.772,-0.675l6.326,0c0.619,0 1.153,0.225 1.603,0.675c0.45,0.45 0.675,0.984 0.675,1.603c-0,0.225 -0.028,0.421 -0.085,0.59l-23.703,54.998c-0.168,0.45 -0.506,0.899 -1.012,1.349c-0.506,0.45 -1.096,0.675 -1.771,0.675l-6.327,0c-0.618,0 -1.152,-0.225 -1.602,-0.675c-0.45,-0.45 -0.675,-0.984 -0.675,-1.602c-0,-0.225 0.028,-0.422 0.084,-0.591l6.664,-15.521Z" style="fill:#fff;fill-rule:nonzero;"/></g><g><path d="M822.212,194.562l-55.215,0c-1.772,0 -2.953,-1.164 -2.953,-2.911l0,-21.541c0,-2.038 0.886,-2.911 2.953,-2.911l99.8,-0c2.362,-0 2.953,2.329 1.772,4.366l-62.006,109.164l57.872,0c1.476,0 2.953,1.456 2.953,2.911l-0,21.542c-0,1.746 -0.886,2.911 -2.953,2.911l-101.867,-0c-2.067,-0 -3.543,-2.329 -2.658,-4.367l62.302,-109.164Z" style="fill:#fff;fill-rule:nonzero;"/><path d="M958.625,165.452c1.181,0 2.362,0.873 2.953,2.911l59.644,136.819c0.59,1.746 -0.591,2.911 -2.362,2.911l-25.984,-0c-1.181,-0 -2.067,-0.874 -2.952,-2.911l-7.382,-17.466l-59.349,-0l-7.677,17.466c-0.886,2.037 -1.771,2.911 -2.952,2.911l-26.279,-0c-1.772,-0 -2.658,-1.456 -2.067,-2.911l59.349,-136.819c0.59,-1.747 1.476,-2.911 2.952,-2.911l12.106,0Zm-23.916,94.9l35.432,-0l-16.535,-38.426l-1.477,-3.202l-1.181,3.202l-16.239,38.426Z" style="fill:#fff;fill-rule:nonzero;"/><path d="M576.477,305.861l35.265,-0l-58.975,-69.143l57.381,-67.965l-33.671,0l-50.607,61.483l0,-61.483l-27.893,0l-0,137.108l27.893,-0l0,-61.09l50.607,61.09Z" style="fill:#fff;fill-rule:nonzero;stroke:#fff;stroke-width:4.49px;"/><path d="M734.419,279.856c1.771,-0 3.248,1.455 3.248,3.202l-0,21.25c-0,1.747 -1.477,2.911 -3.248,2.911l-90.057,0c-1.476,0 -2.952,-1.455 -2.952,-2.911l-0,-135.072c-0,-1.455 1.476,-2.911 2.952,-2.911l90.057,0c1.771,0 2.952,1.165 2.952,2.911l0,21.251c0,2.038 -1.181,2.911 -2.952,2.911l-62.006,0l-0,29.401l41.337,0c2.067,0 2.953,0.874 2.953,2.911l-0,21.833c-0,1.747 -0.886,2.62 -2.953,2.62l-41.337,0l-0,29.693l62.006,-0Z" style="fill:#fff;fill-rule:nonzero;"/><path d="M293.979,288.589c-11.516,12.226 -26.279,18.339 -44.881,18.63l-53.148,0c-1.476,0 -2.952,-1.455 -2.952,-2.911l-0,-135.072c-0,-1.455 1.476,-2.911 2.952,-2.911l54.034,0c36.908,0.583 61.12,24.162 61.12,70.739c-0.295,22.123 -5.905,39.59 -17.125,51.525m-46.062,-8.733c21.259,-0 31.889,-14.264 31.889,-42.792c0,-28.82 -10.63,-43.375 -31.889,-43.375l-23.916,0l-0,86.167l23.916,-0Z" style="fill:#fff;fill-rule:nonzero;"/><path d="M346.832,287.716c-14.173,-13.973 -21.26,-30.857 -21.26,-50.652c0,-20.087 7.087,-36.971 21.26,-51.235c14.173,-14.264 31.298,-21.25 51.376,-21.25c20.078,-0 37.204,6.986 51.377,21.25c14.172,13.973 20.964,31.148 20.964,51.235c-0,20.086 -6.792,36.97 -20.964,50.652c-14.173,13.972 -31.299,21.25 -51.377,21.25c-20.078,0 -37.203,-6.986 -51.376,-21.25m51.671,-6.114c12.106,0 21.85,-4.366 29.527,-13.099c7.677,-8.733 11.516,-19.213 11.516,-31.439c-0,-12.227 -3.839,-22.998 -11.516,-31.731c-7.677,-8.733 -17.716,-13.099 -29.527,-13.099c-12.106,-0 -21.849,4.366 -29.526,12.808c-7.972,8.733 -11.811,19.213 -11.811,31.73c0,12.227 3.839,22.706 11.811,31.44c7.677,8.733 17.42,13.39 29.526,13.39" style="fill:#fff;fill-rule:nonzero;"/></g></g><g id="Banner"><g><path d="M2278.53,254.626l35.343,-69.762c0.924,-1.617 2.079,-2.31 3.465,-2.31l18.942,-0c1.386,-0 2.31,0.693 2.31,2.31l-0,107.415c-0,1.386 -0.693,2.31 -2.31,2.31l-19.635,-0c-1.617,-0 -2.31,-0.693 -2.31,-2.31l-0,-60.06l-30.723,60.06c-1.155,1.386 -2.31,2.31 -3.465,2.31l-2.31,-0c-1.386,-0 -2.541,-0.693 -3.465,-2.31l-30.723,-60.06l-0,60.06c-0,1.386 -0.924,2.31 -2.31,2.31l-19.635,-0c-1.386,-0 -2.31,-0.693 -2.31,-2.31l-0,-107.415c-0,-1.617 0.693,-2.31 2.31,-2.31l18.942,-0c1.386,-0 2.541,0.693 3.465,2.31l34.419,69.762Z" style="fill:#fff;fill-rule:nonzero;"/><path d="M2403.96,204.268l-43.197,-0c-1.386,-0 -2.31,-0.924 -2.31,-2.31l-0,-17.094c-0,-1.617 0.693,-2.31 2.31,-2.31l78.078,-0c1.848,-0 2.31,1.848 1.386,3.465l-48.51,86.625l45.276,-0c1.155,-0 2.31,1.155 2.31,2.31l-0,17.094c-0,1.386 -0.693,2.31 -2.31,2.31l-79.695,-0c-1.617,-0 -2.772,-1.848 -2.079,-3.465l48.741,-86.625Z" style="fill:#fff;fill-rule:nonzero;"/><path d="M2510.68,181.168c0.924,-0 1.848,0.693 2.31,2.31l46.662,108.57c0.462,1.386 -0.462,2.31 -1.848,2.31l-20.328,-0c-0.924,-0 -1.617,-0.693 -2.31,-2.31l-5.775,-13.86l-46.431,-0l-6.006,13.86c-0.693,1.617 -1.386,2.31 -2.31,2.31l-20.559,-0c-1.386,-0 -2.079,-1.155 -1.617,-2.31l46.431,-108.57c0.462,-1.386 1.155,-2.31 2.31,-2.31l9.471,-0Zm-18.711,75.306l27.72,-0l-12.936,-30.492l-1.155,-2.541l-0.924,2.541l-12.705,30.492Z" style="fill:#fff;fill-rule:nonzero;"/><path d="M2645.12,272.644c1.386,-0 2.31,0.693 2.31,2.541l0,16.863c0,1.617 -0.693,2.31 -2.31,2.31l-68.376,-0c-1.155,-0 -2.31,-1.155 -2.31,-2.31l0,-106.953c0,-1.848 0.693,-2.541 2.31,-2.541l19.866,-0c1.386,-0 2.31,0.924 2.31,2.541l0,87.549l46.2,-0Z" style="fill:#fff;fill-rule:nonzero;"/><path d="M2735.91,272.644c1.386,-0 2.541,1.155 2.541,2.541l0,16.863c0,1.386 -1.155,2.31 -2.541,2.31l-70.455,-0c-1.155,-0 -2.31,-1.155 -2.31,-2.31l0,-107.184c0,-1.155 1.155,-2.31 2.31,-2.31l70.455,-0c1.386,-0 2.31,0.924 2.31,2.31l0,16.863c0,1.617 -0.924,2.31 -2.31,2.31l-48.51,-0l0,23.331l32.34,-0c1.617,-0 2.31,0.693 2.31,2.31l0,17.325c0,1.386 -0.693,2.079 -2.31,2.079l-32.34,-0l0,23.562l48.51,-0Z" style="fill:#fff;fill-rule:nonzero;"/><path d="M2850.48,182.554c1.386,-0 2.31,1.155 2.31,2.31l0,107.415c0,1.386 -0.924,2.31 -2.31,2.31l-16.632,-0c-1.386,-0 -2.772,-0.924 -3.927,-2.31l-49.434,-66.297l0,66.297c0,1.386 -0.924,2.31 -2.31,2.31l-19.866,-0c-1.386,-0 -2.31,-0.924 -2.31,-2.31l0,-107.415c0,-1.617 0.693,-2.31 2.31,-2.31l17.787,-0c1.386,-0 2.772,0.924 3.696,2.31l48.51,64.68l0,-64.68c0,-1.617 0.693,-2.31 2.079,-2.31l20.097,-0Z" style="fill:#fff;fill-rule:nonzero;"/><path d="M2952.82,279.574c-9.009,9.702 -20.559,14.553 -35.112,14.784l-41.58,-0c-1.155,-0 -2.31,-1.155 -2.31,-2.31l0,-107.184c0,-1.155 1.155,-2.31 2.31,-2.31l42.273,-0c28.875,0.462 47.817,19.173 47.817,56.133c-0.231,17.556 -4.62,31.416 -13.398,40.887m-36.036,-6.93c16.632,-0 24.948,-11.319 24.948,-33.957c0,-22.869 -8.316,-34.419 -24.948,-34.419l-18.711,-0l0,68.376l18.711,-0Z" style="fill:#fff;fill-rule:nonzero;"/><path d="M2994.16,278.881c-11.088,-11.088 -16.632,-24.486 -16.632,-40.194c0,-15.939 5.544,-29.337 16.632,-40.656c11.088,-11.319 24.486,-16.863 40.194,-16.863c15.708,-0 29.106,5.544 40.194,16.863c11.088,11.088 16.401,24.717 16.401,40.656c0,15.939 -5.313,29.337 -16.401,40.194c-11.088,11.088 -24.486,16.863 -40.194,16.863c-15.708,-0 -29.106,-5.544 -40.194,-16.863m40.425,-4.851c9.471,-0 17.094,-3.465 23.1,-10.395c6.006,-6.93 9.009,-15.246 9.009,-24.948c0,-9.702 -3.003,-18.249 -9.009,-25.179c-6.006,-6.93 -13.86,-10.395 -23.1,-10.395c-9.471,-0 -17.094,3.465 -23.1,10.164c-6.237,6.93 -9.24,15.246 -9.24,25.179c0,9.702 3.003,18.018 9.24,24.948c6.006,6.93 13.629,10.626 23.1,10.626" style="fill:#fff;fill-rule:nonzero;"/><path d="M2007.56,328.777c-9.471,16.17 -18.711,32.34 -28.182,48.741c-1.848,-0.924 -3.696,-2.079 -5.313,-3.003c0.231,-0.462 0.462,-0.693 0.462,-0.924c7.392,-12.936 14.784,-25.872 22.407,-38.577c2.31,-3.927 4.62,-8.085 6.93,-12.012c0.231,-0.462 0.462,-0.693 0.231,-1.155l3.465,6.93Z" style="fill-rule:nonzero;"/><path d="M2096.5,321.385c-0.231,0.462 -0.231,0.924 -0,1.617c7.392,12.705 14.784,25.41 22.176,38.115c2.31,4.158 4.851,8.316 7.161,12.474c0.231,0.231 0.231,0.693 0.462,0.924c-1.848,0.924 -3.465,2.079 -5.082,3.003c-0.462,-0.462 -8.085,-13.629 -14.322,-24.255c-4.62,-8.085 -9.24,-16.17 -14.091,-24.486l3.696,-7.392Z" style="fill-rule:nonzero;"/><path d="M2092.8,168.463c0.231,-0.231 0.462,-0.462 0.462,-0.693c1.386,-2.31 2.541,-4.389 3.927,-6.699c0.231,-0.462 0.462,-0.693 0.231,-1.155c-0.924,-3.927 -0,-7.623 1.386,-11.088c1.155,-2.541 2.31,-5.082 3.696,-7.623c3.927,-6.699 8.085,-13.398 12.936,-19.635c4.62,-6.006 9.471,-11.55 15.015,-16.863c1.617,-1.617 3.465,-3.003 5.082,-4.62c0.231,-0.231 0.462,-0.231 0.693,-0.462c-0,0.462 -0,0.693 -0.231,0.924c-1.155,6.237 -2.772,12.243 -4.851,18.018c-3.465,10.395 -8.085,20.328 -13.629,29.799c-1.386,2.31 -3.003,4.851 -4.389,7.161c-1.386,2.079 -3.234,3.927 -5.082,5.313c-1.386,0.924 -2.772,1.848 -4.389,2.31c-0.462,0.231 -0.924,0.462 -1.155,0.924c-2.079,3.465 -3.927,6.93 -6.006,10.395c-0.231,0.462 -0.462,0.924 -0.231,1.386l-3.465,-7.392Z" style="fill-rule:nonzero;"/><path d="M2003.87,176.086c0.231,-0.462 0.231,-0.924 -0,-1.386c-2.079,-3.465 -4.158,-7.161 -6.237,-10.626c-0.231,-0.462 -0.462,-0.693 -0.924,-0.693c-3.465,-1.155 -6.237,-3.234 -8.547,-6.237c-1.848,-2.31 -3.465,-4.851 -5.082,-7.392c-2.772,-4.62 -5.313,-9.471 -7.623,-14.322c-5.082,-11.088 -9.009,-22.638 -11.55,-34.65l-0,-0.924c0.462,-0.231 0.462,0.231 0.693,0.231c3.465,3.003 6.93,6.237 9.933,9.702c4.389,4.62 8.316,9.471 12.243,14.784c4.851,6.699 9.24,13.629 12.936,20.79c1.386,2.541 2.31,5.313 3.003,8.085c0.462,2.079 0.462,4.158 -0,6.006c-0,0.693 -0,1.155 0.231,1.617c1.386,2.079 2.541,4.389 3.696,6.468c0.231,0.231 0.231,0.462 0.462,0.924l-3.234,7.623Z" style="fill-rule:nonzero;"/><path d="M2003.87,321.616c-3.234,-6.699 -5.775,-13.629 -8.085,-20.79c-2.772,-8.085 -4.851,-16.17 -6.468,-24.717c-0.693,-4.158 -1.386,-8.316 -1.848,-12.243c-0.231,-2.772 -0.693,-5.775 -0.693,-8.547c-0.231,-3.927 -0.231,-7.854 -0,-11.781c0.231,-3.696 0.462,-7.392 0.924,-11.319c1.155,-10.857 3.696,-21.252 6.93,-31.647c1.617,-4.851 3.234,-9.702 4.851,-14.553c1.386,-3.465 2.772,-6.699 4.389,-10.164l3.696,-7.392c0.231,-0.231 0.231,-0.462 0.462,-0.693c3.465,-6.468 7.392,-12.936 11.55,-18.942c4.158,-5.775 8.316,-11.55 13.167,-16.632c2.31,-2.31 4.851,-4.62 7.623,-6.699c1.848,-1.155 3.696,-2.31 5.775,-3.234c2.772,-0.924 5.313,-0.924 8.085,-0c3.003,1.155 5.544,3.003 7.854,4.851c3.696,3.234 7.161,6.699 10.164,10.395c6.468,7.854 12.243,16.401 17.325,25.41c0.924,1.386 1.617,3.003 2.541,4.389c0.231,0.231 0.231,0.462 0.462,0.924l3.696,7.392c3.234,6.699 5.775,13.629 8.085,20.559c2.772,8.547 5.082,17.325 6.699,26.103c0.693,4.158 1.386,8.547 1.848,12.705c0.693,6.006 0.693,12.012 0.693,18.018c-0,3.003 -0.462,5.775 -0.693,8.778c-0.462,4.851 -1.155,9.471 -2.079,14.091c-1.155,6.468 -2.772,12.936 -4.851,19.173c-1.617,5.082 -3.234,10.164 -5.082,15.246c-1.386,3.696 -3.003,7.161 -4.389,10.626l-3.696,7.392c-0.693,1.155 -1.155,2.079 -1.848,3.234c-4.158,7.623 -9.009,15.015 -14.091,21.945c-3.234,4.389 -6.699,8.547 -10.626,12.474c-2.772,2.772 -5.775,5.313 -9.009,7.161c-2.079,1.155 -4.158,2.079 -6.237,2.079c-1.386,-0 -2.541,-0.231 -3.927,-0.462c-2.541,-0.693 -4.62,-2.079 -6.93,-3.696c-3.465,-2.541 -6.699,-5.775 -9.471,-9.009c-7.623,-8.547 -13.86,-18.018 -19.635,-27.951c-0.924,-1.617 -1.848,-3.465 -3.003,-5.313c-0,-0.231 -0.231,-0.462 -0.462,-0.693l-3.696,-6.468Z" style="fill-rule:nonzero;"/><path d="M2107.36,253.009c-0,2.772 -0.462,5.544 -0.462,8.316c-0.462,4.62 -1.155,9.009 -1.848,13.629c-1.155,6.237 -2.541,12.474 -4.389,18.48c-1.386,4.851 -3.003,9.933 -4.62,14.784c-1.155,3.465 -2.541,6.699 -3.927,10.164l-3.465,7.161c-0.693,1.155 -1.155,2.079 -1.617,3.234c-3.696,7.161 -8.085,14.322 -12.705,21.021c-3.003,4.158 -6.006,8.085 -9.471,11.781c-2.541,2.541 -5.082,5.082 -8.085,6.93c-0.462,0.231 -1.155,0.231 -1.617,0.462c1.848,-5.313 3.696,-10.857 4.851,-16.632c1.155,-6.006 2.079,-12.243 2.541,-18.48c0.462,-4.158 0.462,-8.085 0.693,-12.243c-0,-4.389 -0,-9.009 -0.462,-13.398c-0.231,-2.772 -0.462,-5.544 -0.693,-8.085c-0.462,-4.62 -1.386,-9.24 -2.31,-13.86c-1.386,-6.699 -3.465,-13.398 -6.006,-19.866c-0,-0.231 -0.231,-0.462 -0.231,-0.693l-0.231,-0l-0,103.95c-0.693,0.231 -1.386,0.693 -2.079,0.693c-1.155,-0 -2.31,-0.231 -3.234,-0.462l-0,-104.412l-0.231,-0c-0.231,0.231 -0.231,0.693 -0.462,0.924c-1.848,4.62 -3.234,9.24 -4.62,13.86c-2.079,8.316 -3.465,16.863 -4.158,25.41c-0.462,4.158 -0.462,8.085 -0.693,12.243c-0,4.62 -0,9.24 0.462,13.86c0.231,3.234 0.462,6.237 0.924,9.471c0.693,4.851 1.386,9.471 2.541,14.091c0.924,4.62 2.541,9.009 4.158,13.398c-1.386,-0.693 -3.003,-1.386 -4.158,-2.541c-3.234,-2.541 -6.006,-5.313 -8.547,-8.547c-6.93,-8.085 -12.474,-17.325 -17.556,-26.565c-0.924,-1.617 -1.848,-3.234 -2.541,-4.851c-0,-0.231 -0.231,-0.462 -0.462,-0.693l-3.234,-6.93c-3.003,-6.468 -5.313,-13.167 -7.392,-19.866c-2.31,-7.623 -4.389,-15.477 -5.775,-23.562c-0.693,-3.927 -1.386,-7.854 -1.617,-11.781c-0.231,-2.772 -0.462,-5.544 -0.693,-8.085c-0.231,-3.696 -0.231,-7.623 -0,-11.319c0.231,-3.465 0.462,-7.161 0.924,-10.626c1.155,-10.395 3.234,-20.328 6.237,-30.261c1.386,-4.62 2.772,-9.24 4.389,-13.86c1.155,-3.234 2.541,-6.468 3.927,-9.702l3.234,-7.161c0.231,-0.231 0.231,-0.462 0.462,-0.693c3.234,-6.237 6.699,-12.243 10.395,-18.018c3.696,-5.544 7.623,-10.857 12.012,-15.939c2.079,-2.31 4.389,-4.389 6.699,-6.468c1.155,-0.924 2.541,-1.617 3.927,-2.31c-1.386,3.927 -2.772,7.854 -3.927,12.012c-1.848,7.623 -3.003,15.246 -3.696,22.869c-0.231,3.927 -0.462,7.623 -0.693,11.55l-0,6.468c0.231,3.465 0.231,6.93 0.462,10.395c0.231,2.772 0.462,5.544 0.924,8.316c0.693,4.389 1.386,9.009 2.541,13.398c1.386,6.006 3.003,11.781 5.313,17.325c0.231,0.462 0.231,0.924 0.462,1.155l0.231,-0l-0,-104.181c1.848,-0.462 3.696,-0.462 5.544,-0l-0,104.181l0.231,-0c-0,-0.231 0.231,-0.231 0.231,-0.462c2.31,-5.544 4.158,-11.319 5.544,-17.325c1.848,-7.623 3.003,-15.246 3.696,-22.869c0.462,-4.158 0.462,-8.085 0.693,-12.243l-0,-5.775c-0,-3.465 -0.231,-6.699 -0.462,-9.933c-0.462,-3.696 -0.693,-7.392 -1.155,-10.857c-0.924,-6.468 -2.31,-12.936 -4.389,-19.404c-0.462,-1.386 -0.924,-2.772 -1.617,-4.158c2.079,1.155 3.927,2.31 5.775,3.696c3.465,3.003 6.468,6.468 9.24,9.933c6.006,7.623 10.857,15.708 15.477,24.255c0.693,1.386 1.617,2.772 2.31,4.158c-0,0.231 0.231,0.462 0.462,0.693l3.234,6.93c3.003,6.237 5.082,12.936 7.161,19.635c2.541,8.085 4.62,16.401 6.006,24.948c0.693,3.927 1.155,8.085 1.617,12.243l-0,17.094" style="fill:#c01823;fill-rule:nonzero;"/><path d="M1999.94,311.452c-0.231,-0.693 -0.462,-1.386 -0.924,-2.079c-3.696,-10.395 -6.93,-21.252 -9.24,-32.109c-1.155,-6.006 -2.079,-12.012 -2.541,-18.018c-0.462,-4.851 -0.462,-9.933 -0.462,-14.784c0.231,-9.471 1.617,-18.942 3.696,-28.182c1.848,-7.854 3.927,-15.246 6.468,-22.869c0.693,-2.31 1.617,-4.389 2.31,-6.699c-0,-0.231 0.231,-0.462 0.462,-0.924c0.231,0.231 0.231,0.462 0.231,0.462c1.386,4.158 3.003,8.316 4.389,12.474c1.386,4.62 2.772,9.009 3.927,13.629c1.848,7.392 3.234,14.553 3.927,22.176c0.231,2.772 0.462,5.313 0.462,8.085c0.231,3.003 0.231,6.006 0.231,9.009c-0,3.465 -0.462,6.93 -0.693,10.395c-0.462,5.544 -1.386,10.857 -2.541,16.17c-1.386,6.237 -2.772,12.474 -4.851,18.711c-1.386,4.62 -3.003,9.24 -4.62,13.86c0.231,-0 -0,0.462 -0.231,0.693Z" style="fill-rule:nonzero;"/><path d="M2100.43,311.683c-0.231,-0.462 -0.231,-0.693 -0.462,-0.924c-2.772,-7.392 -5.313,-15.015 -7.392,-22.869c-1.617,-6.699 -3.234,-13.398 -4.158,-20.097c-0.462,-3.234 -0.693,-6.468 -0.924,-9.702c-0.462,-4.62 -0.462,-9.009 -0.231,-13.629c-0,-4.389 0.462,-8.778 1.155,-13.398c1.155,-9.933 3.465,-19.635 6.468,-29.106c1.617,-5.082 3.234,-9.933 5.082,-15.015c0.231,-0.462 0.231,-0.693 0.462,-1.155c0.231,0.231 0.231,0.462 0.462,0.693c4.158,11.319 7.623,22.869 9.933,34.881c1.155,5.775 1.848,11.319 2.31,17.094c0.462,4.851 0.462,9.702 0.462,14.553c-0.231,8.778 -1.386,17.325 -3.234,25.872c-2.079,9.471 -4.851,18.942 -8.085,28.182c-0.462,1.386 -1.155,3.003 -1.617,4.389c-0,-0.231 -0,-0.231 -0.231,0.231" style="fill-rule:nonzero;"/><path d="M2047.3,265.021c-0.231,0.462 -0.231,0.693 -0.462,0.924c-1.848,4.62 -3.465,9.24 -4.62,13.86c-2.079,8.316 -3.696,16.863 -4.389,25.41c-0.462,4.158 -0.462,8.085 -0.693,12.243c-0,4.62 -0,9.24 0.462,13.86c0.231,3.234 0.462,6.237 0.924,9.471c0.693,4.851 1.386,9.471 2.541,14.091c1.155,4.62 2.541,9.009 4.158,13.167c0.693,0.231 1.155,0.924 2.079,1.155l0.231,-0l-0.231,-104.181c-0,0.231 -0,-0 -0,-0" style="fill:#fff;fill-rule:nonzero;"/><path d="M2037.83,163.612c-0.231,3.927 -0.462,7.623 -0.693,11.55l-0,6.699c0.231,3.465 0.231,6.93 0.462,10.395c0.231,2.772 0.462,5.544 0.924,8.547c0.693,4.389 1.386,9.009 2.541,13.398c1.386,5.775 3.234,11.55 5.544,17.325c0.231,0.462 0.462,0.924 0.462,1.155l0.231,-0l-0,-104.412c-0.231,-0 -0.693,-0 -0.924,0.231c-0.462,0.231 -0.693,0.462 -1.155,0.693c-1.386,3.927 -3.003,7.854 -3.927,12.012c-1.617,7.161 -3.003,14.784 -3.465,22.407" style="fill:#fff;fill-rule:nonzero;"/><path d="M2053.3,232.219c-0,-0.231 0.231,-0.231 0.231,-0.462c2.31,-5.544 4.158,-11.319 5.544,-17.325c1.848,-7.623 3.003,-15.246 3.696,-22.869c0.462,-4.158 0.462,-8.085 0.693,-12.243l-0,-5.775c-0,-3.465 -0.231,-6.699 -0.462,-9.933c-0.462,-3.696 -0.693,-7.392 -1.386,-10.857c-0.924,-6.468 -2.541,-12.936 -4.389,-19.404c-0.462,-1.386 -1.155,-2.772 -1.617,-4.158c-0.462,-0.231 -0.924,-0.693 -1.386,-0.924c-0.231,-0.231 -0.693,-0 -0.924,-0.231l-0,104.181" style="fill:#fff;fill-rule:nonzero;"/><path d="M2062.77,333.397c0.462,-4.158 0.462,-8.085 0.693,-12.243c-0,-4.389 -0,-9.009 -0.462,-13.398c-0.231,-2.772 -0.462,-5.544 -0.693,-8.085c-0.462,-4.62 -1.386,-9.24 -2.31,-13.86c-1.617,-6.93 -3.465,-13.398 -6.237,-19.866c-0,-0.231 -0.231,-0.462 -0.231,-0.693l-0.231,-0l-0,103.95c0.693,-0.231 1.386,-0.462 2.079,-0.693c1.848,-5.313 3.927,-10.857 5.082,-16.632c0.924,-6.006 1.848,-12.243 2.31,-18.48" style="fill:#fff;fill-rule:nonzero;"/><path d="M2055.61,235.222c-1.386,-1.155 -3.003,-2.079 -4.851,-2.31c-2.31,-0.231 -4.158,0.693 -5.775,2.31c-2.079,1.848 -3.234,4.158 -4.158,6.699c-1.155,3.465 -1.155,6.93 -0.693,10.626c0.462,3.465 1.848,6.468 4.158,9.009c1.386,1.617 3.234,2.541 5.313,2.772c2.079,0.231 3.927,-0.462 5.544,-1.848c1.848,-1.386 3.003,-3.234 3.927,-5.544c1.155,-2.772 1.617,-5.544 1.617,-8.547c-0,-2.31 -0.231,-4.389 -0.924,-6.699c-0.924,-2.31 -2.079,-4.62 -4.158,-6.468" style="fill:#fff;fill-rule:nonzero;"/></g></g></g></svg>