<?xml version="1.0" encoding="UTF-8" standalone="no"?><!DOCTYPE svg PUBLIC "-//W3C//DTD SVG 1.1//EN" "http://www.w3.org/Graphics/SVG/1.1/DTD/svg11.dtd"><svg width="100%" height="100%" viewBox="0 0 4000 467" version="1.1" xmlns="http://www.w3.org/2000/svg" xmlns:xlink="http://www.w3.org/1999/xlink" xml:space="preserve" xmlns:serif="http://www.serif.com/" style="fill-rule:evenodd;clip-rule:evenodd;stroke-linejoin:round;stroke-miterlimit:2;"><rect id="web-logo-desktop" x="0" y="-0" width="4000" height="466.667" style="fill:none;"/><clipPath id="_clip1"><rect x="0" y="-0" width="4000" height="466.667"/></clipPath><g clip-path="url(#_clip1)"><rect x="1281.25" y="0.443" width="88.846" height="464.935" style="fill:#fefffe;"/><g><rect x="0" y="1.731" width="1791.06" height="464.935" style="fill:#fff;"/><path d="M3336.35,0.549l-1160.95,0l-32.733,466.118l1193.68,-0l0,-466.118Z" style="fill:#008941;"/><path id="Dokeza" d="M2132.3,-2.435l-2136.46,-0l0,473.268l2101.48,0l34.984,-473.268Z" style="fill:#c22710;"/><text x="1340.82px" y="311.703px" style="font-family:'Rubik-Medium', 'Rubik';font-weight:500;font-size:110.38px;fill:#fff;">po<tspan x="1473.17px 1563.13px 1626.49px 1671.74px " y="311.703px 311.703px 311.703px 311.703px ">were</tspan>d b<tspan x="1894.49px " y="311.703px ">y</tspan></text><g><path d="M922.329,178.197l-72.253,0c-2.318,0 -3.864,-1.524 -3.864,-3.809l0,-28.189c0,-2.666 1.16,-3.809 3.864,-3.809l130.596,-0c3.091,-0 3.863,3.047 2.318,5.714l-81.139,142.848l75.73,0c1.931,0 3.863,1.905 3.863,3.809l0,28.189c0,2.286 -1.159,3.809 -3.863,3.809l-133.3,0c-2.705,0 -4.637,-3.047 -3.478,-5.714l81.526,-142.848Z" style="fill:#fff;fill-rule:nonzero;"/><path d="M1100.84,140.104c1.545,0 3.091,1.143 3.864,3.81l78.048,179.036c0.773,2.286 -0.773,3.809 -3.091,3.809l-34.001,0c-1.546,0 -2.705,-1.142 -3.864,-3.809l-9.66,-22.856l-77.661,0l-10.046,22.856c-1.159,2.667 -2.318,3.809 -3.864,3.809l-34.387,0c-2.319,0 -3.478,-1.904 -2.705,-3.809l77.662,-179.036c0.772,-2.286 1.932,-3.81 3.863,-3.81l15.842,0Zm-31.297,124.183l46.366,0l-21.638,-50.283l-1.931,-4.19l-1.546,4.19l-21.251,50.283Z" style="fill:#fff;fill-rule:nonzero;"/><path d="M600.768,323.838l46.147,0l-77.173,-90.478l75.087,-88.936l-44.061,0l-66.222,80.454l-0,-80.454l-36.501,0l0,179.414l36.501,0l-0,-79.939l66.222,79.939Z" style="fill:#fff;fill-rule:nonzero;stroke:#fff;stroke-width:5.88px;"/><path d="M807.446,289.809c2.318,0 4.25,1.905 4.25,4.19l-0,27.808c-0,2.286 -1.932,3.81 -4.25,3.81l-117.845,-0c-1.932,-0 -3.864,-1.905 -3.864,-3.81l-0,-176.751c-0,-1.904 1.932,-3.809 3.864,-3.809l117.845,0c2.318,0 3.863,1.524 3.863,3.809l0,27.808c0,2.667 -1.545,3.809 -3.863,3.809l-81.14,0l0,38.474l54.093,0c2.705,0 3.864,1.143 3.864,3.81l-0,28.569c-0,2.286 -1.159,3.429 -3.864,3.429l-54.093,-0l0,38.854l81.14,0Z" style="fill:#fff;fill-rule:nonzero;"/><path d="M231.1,301.237c-15.068,15.999 -34.387,23.999 -58.729,24.38l-69.548,-0c-1.932,-0 -3.864,-1.905 -3.864,-3.81l0,-176.751c0,-1.904 1.932,-3.809 3.864,-3.809l70.707,0c48.297,0.762 79.98,31.617 79.98,92.566c-0.386,28.95 -7.727,51.806 -22.41,67.424m-60.274,-11.428c27.819,0 41.728,-18.665 41.728,-55.996c0,-37.712 -13.909,-56.759 -41.728,-56.759l-31.297,0l-0,112.755l31.297,0Z" style="fill:#fff;fill-rule:nonzero;"/><path d="M300.262,300.094c-18.546,-18.284 -27.819,-40.378 -27.819,-66.281c-0,-26.284 9.273,-48.378 27.819,-67.044c18.546,-18.665 40.956,-27.807 67.229,-27.807c26.274,-0 48.684,9.142 67.23,27.807c18.546,18.285 27.433,40.76 27.433,67.044c-0,26.284 -8.887,48.378 -27.433,66.281c-18.546,18.285 -40.956,27.808 -67.23,27.808c-26.273,0 -48.683,-9.142 -67.229,-27.808m67.616,-7.999c15.841,-0 28.592,-5.714 38.637,-17.142c10.046,-11.428 15.069,-25.141 15.069,-41.14c0,-15.999 -5.023,-30.094 -15.069,-41.521c-10.045,-11.428 -23.182,-17.142 -38.637,-17.142c-15.842,-0 -28.592,5.714 -38.638,16.761c-10.432,11.427 -15.455,25.141 -15.455,41.521c-0,15.999 5.023,29.712 15.455,41.14c10.046,11.428 22.796,17.523 38.638,17.523" style="fill:#fff;fill-rule:nonzero;"/></g></g><g id="Banner"><path d="M2237.52,-84.235l-47.937,635.137l1860.42,-4.167l-0.421,-628.458l-1812.06,-2.512Z" style="fill:#008941;fill-rule:nonzero;"/><g><path d="M2747.04,258.466l47.977,-94.699c1.254,-2.195 2.822,-3.135 4.703,-3.135l25.713,-0c1.882,-0 3.136,0.94 3.136,3.135l-0,145.811c-0,1.882 -0.941,3.136 -3.136,3.136l-26.654,0c-2.195,0 -3.135,-0.941 -3.135,-3.136l-0,-81.528l-41.705,81.528c-1.568,1.882 -3.136,3.136 -4.704,3.136l-3.136,0c-1.881,0 -3.449,-0.941 -4.703,-3.136l-41.705,-81.528l-0,81.528c-0,1.882 -1.255,3.136 -3.136,3.136l-26.654,0c-1.881,0 -3.135,-0.941 -3.135,-3.136l-0,-145.811c-0,-2.195 0.94,-3.135 3.135,-3.135l25.713,-0c1.882,-0 3.449,0.94 4.704,3.135l46.722,94.699Z" style="fill:#fff;fill-rule:nonzero;"/><path d="M2917.31,190.107l-58.638,0c-1.882,0 -3.136,-1.254 -3.136,-3.135l0,-23.205c0,-2.195 0.941,-3.135 3.136,-3.135l105.987,-0c2.509,-0 3.136,2.508 1.882,4.703l-65.851,117.59l61.461,-0c1.567,-0 3.135,1.568 3.135,3.135l0,23.205c0,1.881 -0.94,3.136 -3.135,3.136l-108.183,-0c-2.195,-0 -3.763,-2.509 -2.822,-4.704l66.164,-117.59Z" style="fill:#fff;fill-rule:nonzero;"/><path d="M3062.18,158.75c1.254,0 2.509,0.941 3.136,3.136l63.342,147.379c0.627,1.881 -0.628,3.136 -2.509,3.136l-27.594,-0c-1.255,-0 -2.195,-0.941 -3.136,-3.136l-7.839,-18.815l-63.028,0l-8.153,18.815c-0.941,2.195 -1.882,3.136 -3.136,3.136l-27.908,-0c-1.881,-0 -2.822,-1.568 -2.195,-3.136l63.028,-147.379c0.627,-1.882 1.568,-3.136 3.136,-3.136l12.856,0Zm-25.399,102.225l37.629,-0l-17.561,-41.392l-1.567,-3.449l-1.255,3.449l-17.246,41.392Z" style="fill:#fff;fill-rule:nonzero;"/><path d="M3244.68,282.925c1.882,-0 3.136,0.94 3.136,3.449l-0,22.891c-0,2.195 -0.941,3.136 -3.136,3.136l-92.817,-0c-1.568,-0 -3.136,-1.568 -3.136,-3.136l0,-145.184c0,-2.509 0.941,-3.449 3.136,-3.449l26.967,-0c1.882,-0 3.136,1.254 3.136,3.449l-0,118.844l62.714,-0Z" style="fill:#fff;fill-rule:nonzero;"/><path d="M3367.91,282.925c1.882,-0 3.449,1.568 3.449,3.449l0,22.891c0,1.881 -1.567,3.136 -3.449,3.136l-95.639,-0c-1.568,-0 -3.136,-1.568 -3.136,-3.136l-0,-145.498c-0,-1.568 1.568,-3.135 3.136,-3.135l95.639,-0c1.882,-0 3.136,1.254 3.136,3.135l-0,22.891c-0,2.195 -1.254,3.136 -3.136,3.136l-65.85,-0l-0,31.671l43.9,-0c2.195,-0 3.136,0.94 3.136,3.135l-0,23.518c-0,1.882 -0.941,2.822 -3.136,2.822l-43.9,0l-0,31.985l65.85,-0Z" style="fill:#fff;fill-rule:nonzero;"/><path d="M3523.44,160.632c1.881,-0 3.136,1.567 3.136,3.135l-0,145.811c-0,1.882 -1.255,3.136 -3.136,3.136l-22.577,0c-1.882,0 -3.763,-1.254 -5.331,-3.136l-67.104,-89.995l-0,89.995c-0,1.882 -1.255,3.136 -3.136,3.136l-26.967,0c-1.882,0 -3.136,-1.254 -3.136,-3.136l-0,-145.811c-0,-2.195 0.941,-3.135 3.136,-3.135l24.145,-0c1.881,-0 3.763,1.254 5.017,3.135l65.85,87.801l0,-87.801c0,-2.195 0.941,-3.135 2.822,-3.135l27.281,-0Z" style="fill:#fff;fill-rule:nonzero;"/><path d="M3662.36,292.332c-12.23,13.17 -27.908,19.755 -47.663,20.069l-56.443,-0c-1.568,-0 -3.136,-1.568 -3.136,-3.136l-0,-145.498c-0,-1.568 1.568,-3.135 3.136,-3.135l57.383,-0c39.197,0.627 64.91,26.026 64.91,76.198c-0.314,23.831 -6.272,42.645 -18.187,55.502m-48.918,-9.407c22.578,-0 33.866,-15.365 33.866,-46.095c0,-31.044 -11.288,-46.723 -33.866,-46.723l-25.399,0l-0,92.818l25.399,-0Z" style="fill:#fff;fill-rule:nonzero;"/><path d="M3718.48,291.391c-15.051,-15.051 -22.577,-33.238 -22.577,-54.561c-0,-21.637 7.526,-39.824 22.577,-55.189c15.051,-15.365 33.239,-22.891 54.562,-22.891c21.323,0 39.51,7.526 54.561,22.891c15.052,15.051 22.264,33.552 22.264,55.189c-0,21.636 -7.212,39.823 -22.264,54.561c-15.051,15.052 -33.238,22.891 -54.561,22.891c-21.323,-0 -39.511,-7.526 -54.562,-22.891m54.875,-6.585c12.857,0 23.205,-4.703 31.357,-14.111c8.153,-9.407 12.23,-20.695 12.23,-33.865c-0,-13.17 -4.077,-24.773 -12.23,-34.18c-8.152,-9.407 -18.814,-14.111 -31.357,-14.111c-12.856,0 -23.204,4.704 -31.357,13.798c-8.467,9.407 -12.543,20.695 -12.543,34.179c0,13.17 4.076,24.459 12.543,33.866c8.153,9.407 18.501,14.424 31.357,14.424" style="fill:#fff;fill-rule:nonzero;"/><path d="M2379.22,359.123c-12.857,21.95 -25.4,43.9 -38.256,66.164c-2.509,-1.255 -5.017,-2.823 -7.212,-4.077c0.313,-0.627 0.627,-0.941 0.627,-1.254c10.034,-17.56 20.068,-35.12 30.416,-52.367c3.136,-5.33 6.272,-10.975 9.408,-16.305c0.313,-0.628 0.627,-0.941 0.313,-1.568l4.704,9.407Z" style="fill-rule:nonzero;"/><path d="M2499.94,349.089c-0.314,0.627 -0.314,1.254 0,2.195c10.034,17.246 20.069,34.492 30.103,51.739c3.136,5.644 6.585,11.289 9.721,16.933c0.313,0.313 0.313,0.941 0.627,1.254c-2.509,1.254 -4.704,2.822 -6.899,4.077c-0.627,-0.628 -10.975,-18.501 -19.441,-32.926c-6.272,-10.975 -12.543,-21.95 -19.128,-33.238l5.017,-10.034Z" style="fill-rule:nonzero;"/><path d="M2494.93,141.504c0.313,-0.314 0.627,-0.627 0.627,-0.941c1.881,-3.136 3.449,-5.958 5.331,-9.094c0.313,-0.627 0.627,-0.94 0.313,-1.568c-1.254,-5.33 0,-10.347 1.882,-15.051c1.568,-3.449 3.135,-6.899 5.017,-10.348c5.331,-9.093 10.975,-18.187 17.56,-26.654c6.271,-8.152 12.856,-15.678 20.382,-22.89c2.195,-2.195 4.704,-4.077 6.899,-6.272c0.313,-0.313 0.627,-0.313 0.94,-0.627c0,0.627 0,0.941 -0.313,1.254c-1.568,8.467 -3.763,16.62 -6.585,24.459c-4.704,14.111 -10.975,27.594 -18.501,40.451c-1.881,3.136 -4.076,6.585 -5.958,9.721c-1.881,2.822 -4.39,5.33 -6.898,7.212c-1.882,1.254 -3.763,2.508 -5.958,3.135c-0.627,0.314 -1.255,0.628 -1.568,1.255c-2.822,4.703 -5.331,9.407 -8.153,14.111c-0.314,0.627 -0.627,1.254 -0.314,1.881l-4.703,-10.034Z" style="fill-rule:nonzero;"/><path d="M2374.2,151.852c0.313,-0.628 0.313,-1.255 -0,-1.882c-2.823,-4.703 -5.645,-9.721 -8.467,-14.424c-0.313,-0.627 -0.627,-0.941 -1.254,-0.941c-4.704,-1.568 -8.467,-4.39 -11.602,-8.466c-2.509,-3.136 -4.704,-6.585 -6.899,-10.035c-3.763,-6.271 -7.212,-12.856 -10.348,-19.441c-6.898,-15.052 -12.229,-30.73 -15.678,-47.036l-0,-1.254c0.627,-0.314 0.627,0.313 0.94,0.313c4.704,4.077 9.407,8.467 13.484,13.17c5.958,6.272 11.288,12.857 16.619,20.069c6.585,9.094 12.543,18.501 17.56,28.221c1.882,3.45 3.136,7.213 4.077,10.975c0.627,2.823 0.627,5.645 -0,8.153c-0,0.941 -0,1.568 0.313,2.195c1.882,2.822 3.45,5.958 5.017,8.78c0.314,0.314 0.314,0.628 0.628,1.255l-4.39,10.348Z" style="fill-rule:nonzero;"/><path d="M2374.2,349.402c-4.39,-9.094 -7.84,-18.501 -10.975,-28.221c-3.763,-10.975 -6.586,-21.95 -8.781,-33.553c-0.94,-5.644 -1.881,-11.288 -2.508,-16.619c-0.314,-3.763 -0.941,-7.839 -0.941,-11.602c-0.313,-5.331 -0.313,-10.662 0,-15.992c0.314,-5.018 0.627,-10.035 1.254,-15.365c1.568,-14.738 5.018,-28.849 9.408,-42.96c2.195,-6.585 4.39,-13.17 6.585,-19.755c1.881,-4.703 3.763,-9.093 5.958,-13.797l5.017,-10.034c0.313,-0.314 0.313,-0.627 0.627,-0.941c4.703,-8.78 10.034,-17.56 15.678,-25.713c5.645,-7.839 11.289,-15.679 17.874,-22.577c3.136,-3.136 6.585,-6.272 10.348,-9.094c2.509,-1.568 5.017,-3.136 7.839,-4.39c3.763,-1.254 7.212,-1.254 10.975,0c4.077,1.568 7.526,4.077 10.662,6.585c5.017,4.39 9.721,9.094 13.797,14.111c8.78,10.661 16.619,22.264 23.518,34.493c1.254,1.881 2.195,4.076 3.449,5.958c0.314,0.313 0.314,0.627 0.627,1.254l5.017,10.034c4.39,9.094 7.84,18.501 10.975,27.908c3.763,11.603 6.899,23.518 9.094,35.434c0.941,5.644 1.882,11.602 2.509,17.246c0.94,8.153 0.94,16.306 0.94,24.459c0,4.077 -0.627,7.839 -0.94,11.916c-0.627,6.585 -1.568,12.856 -2.822,19.128c-1.568,8.78 -3.763,17.56 -6.585,26.026c-2.196,6.899 -4.391,13.797 -6.899,20.696c-1.882,5.017 -4.077,9.721 -5.958,14.424l-5.017,10.035c-0.941,1.568 -1.568,2.822 -2.509,4.39c-5.644,10.348 -12.229,20.382 -19.128,29.789c-4.39,5.958 -9.093,11.602 -14.424,16.933c-3.763,3.763 -7.839,7.212 -12.229,9.721c-2.822,1.568 -5.645,2.822 -8.467,2.822c-1.881,-0 -3.449,-0.314 -5.33,-0.627c-3.45,-0.941 -6.272,-2.822 -9.408,-5.017c-4.703,-3.45 -9.093,-7.84 -12.856,-12.23c-10.348,-11.602 -18.814,-24.458 -26.654,-37.942c-1.254,-2.195 -2.508,-4.704 -4.076,-7.212c-0,-0.314 -0.314,-0.627 -0.627,-0.941l-5.017,-8.78Z" style="fill-rule:nonzero;"/><path d="M2514.68,256.271c-0,3.763 -0.627,7.526 -0.627,11.289c-0.627,6.271 -1.568,12.229 -2.509,18.5c-1.568,8.467 -3.449,16.933 -5.958,25.086c-1.881,6.585 -4.076,13.484 -6.271,20.069c-1.568,4.703 -3.449,9.093 -5.331,13.797l-4.703,9.721c-0.941,1.568 -1.568,2.822 -2.195,4.39c-5.018,9.721 -10.975,19.441 -17.247,28.535c-4.076,5.644 -8.153,10.975 -12.856,15.992c-3.45,3.449 -6.899,6.899 -10.975,9.407c-0.628,0.314 -1.568,0.314 -2.195,0.627c2.508,-7.212 5.017,-14.737 6.585,-22.577c1.567,-8.153 2.822,-16.619 3.449,-25.086c0.627,-5.644 0.627,-10.975 0.941,-16.619c-0,-5.958 -0,-12.229 -0.628,-18.187c-0.313,-3.763 -0.627,-7.526 -0.94,-10.975c-0.627,-6.272 -1.882,-12.543 -3.136,-18.814c-1.881,-9.094 -4.704,-18.188 -8.153,-26.968c0,-0.313 -0.313,-0.627 -0.313,-0.94l-0.314,-0l0,141.107c-0.941,0.314 -1.881,0.941 -2.822,0.941c-1.568,-0 -3.136,-0.314 -4.39,-0.627l-0,-141.735l-0.314,0c-0.313,0.314 -0.313,0.941 -0.627,1.254c-2.508,6.272 -4.39,12.543 -6.271,18.815c-2.822,11.288 -4.704,22.89 -5.645,34.493c-0.627,5.644 -0.627,10.975 -0.94,16.619c-0,6.271 -0,12.543 0.627,18.814c0.313,4.39 0.627,8.467 1.254,12.857c0.941,6.585 1.882,12.856 3.449,19.128c1.255,6.271 3.45,12.229 5.645,18.187c-1.882,-0.941 -4.077,-1.882 -5.645,-3.449c-4.39,-3.45 -8.152,-7.213 -11.602,-11.603c-9.407,-10.975 -16.933,-23.518 -23.831,-36.06c-1.255,-2.195 -2.509,-4.39 -3.45,-6.585c0,-0.314 -0.313,-0.628 -0.627,-0.941l-4.39,-9.407c-4.076,-8.78 -7.212,-17.874 -10.034,-26.968c-3.136,-10.347 -5.958,-21.009 -7.839,-31.984c-0.941,-5.331 -1.882,-10.661 -2.195,-15.992c-0.314,-3.763 -0.627,-7.526 -0.941,-10.975c-0.314,-5.017 -0.314,-10.348 -0,-15.365c0.314,-4.704 0.627,-9.721 1.254,-14.425c1.568,-14.11 4.39,-27.594 8.467,-41.078c1.881,-6.271 3.763,-12.542 5.958,-18.814c1.567,-4.39 3.449,-8.78 5.33,-13.17l4.39,-9.721c0.314,-0.313 0.314,-0.627 0.627,-0.94c4.39,-8.467 9.094,-16.62 14.111,-24.459c5.017,-7.526 10.348,-14.738 16.306,-21.636c2.822,-3.136 5.958,-5.958 9.094,-8.78c1.567,-1.255 3.449,-2.195 5.33,-3.136c-1.881,5.331 -3.763,10.661 -5.33,16.306c-2.509,10.347 -4.077,20.695 -5.018,31.043c-0.313,5.331 -0.627,10.348 -0.94,15.679l-0,8.78c0.313,4.703 0.313,9.407 0.627,14.111c0.313,3.762 0.627,7.525 1.254,11.288c0.941,5.958 1.882,12.23 3.449,18.187c1.882,8.153 4.077,15.993 7.213,23.518c0.313,0.627 0.313,1.255 0.627,1.568l0.313,0l0,-141.421c2.509,-0.627 5.017,-0.627 7.526,0l0,141.421l0.314,0c-0,-0.313 0.313,-0.313 0.313,-0.627c3.136,-7.526 5.644,-15.365 7.526,-23.518c2.508,-10.348 4.076,-20.696 5.017,-31.044c0.627,-5.644 0.627,-10.975 0.941,-16.619l-0,-7.839c-0,-4.704 -0.314,-9.094 -0.627,-13.484c-0.628,-5.017 -0.941,-10.034 -1.568,-14.738c-1.255,-8.78 -3.136,-17.56 -5.958,-26.34c-0.627,-1.881 -1.254,-3.763 -2.195,-5.644c2.822,1.568 5.331,3.136 7.839,5.017c4.704,4.077 8.78,8.78 12.543,13.484c8.153,10.348 14.738,21.323 21.009,32.925c0.941,1.881 2.195,3.763 3.136,5.644c0,0.314 0.314,0.627 0.627,0.941l4.39,9.407c4.077,8.466 6.899,17.56 9.721,26.654c3.449,10.975 6.271,22.263 8.153,33.865c0.941,5.331 1.568,10.975 2.195,16.62l-0,23.204" style="fill:#c01823;fill-rule:nonzero;"/><path d="M2368.87,335.605c-0.314,-0.941 -0.627,-1.882 -1.254,-2.822c-5.018,-14.111 -9.408,-28.849 -12.543,-43.587c-1.568,-8.153 -2.823,-16.306 -3.45,-24.458c-0.627,-6.585 -0.627,-13.484 -0.627,-20.069c0.314,-12.857 2.195,-25.713 5.017,-38.256c2.509,-10.661 5.331,-20.696 8.78,-31.044c0.941,-3.135 2.195,-5.957 3.136,-9.093c0,-0.314 0.314,-0.627 0.627,-1.254c0.314,0.313 0.314,0.627 0.314,0.627c1.881,5.644 4.076,11.288 5.958,16.933c1.881,6.271 3.763,12.229 5.33,18.5c2.509,10.035 4.39,19.755 5.331,30.103c0.314,3.763 0.627,7.212 0.627,10.975c0.314,4.077 0.314,8.153 0.314,12.23c-0,4.703 -0.627,9.407 -0.941,14.11c-0.627,7.526 -1.881,14.738 -3.449,21.95c-1.882,8.467 -3.763,16.933 -6.585,25.4c-1.882,6.271 -4.077,12.543 -6.272,18.814c0.314,0 0,0.627 -0.313,0.941Z" style="fill-rule:nonzero;"/><path d="M2505.27,335.918c-0.314,-0.627 -0.314,-0.94 -0.627,-1.254c-3.763,-10.034 -7.213,-20.382 -10.035,-31.043c-2.195,-9.094 -4.39,-18.188 -5.644,-27.281c-0.627,-4.39 -0.941,-8.78 -1.254,-13.17c-0.627,-6.272 -0.627,-12.23 -0.314,-18.501c0,-5.958 0.627,-11.916 1.568,-18.187c1.568,-13.484 4.704,-26.654 8.78,-39.51c2.195,-6.899 4.39,-13.484 6.899,-20.383c0.313,-0.627 0.313,-0.94 0.627,-1.567c0.313,0.313 0.313,0.627 0.627,0.94c5.644,15.365 10.348,31.044 13.484,47.35c1.567,7.839 2.508,15.365 3.135,23.204c0.627,6.585 0.627,13.17 0.627,19.755c-0.313,11.916 -1.881,23.518 -4.39,35.12c-2.822,12.857 -6.585,25.713 -10.975,38.256c-0.627,1.881 -1.568,4.076 -2.195,5.958c0,-0.314 0,-0.314 -0.313,0.313" style="fill-rule:nonzero;"/><path d="M2433.15,272.577c-0.313,0.627 -0.313,0.941 -0.627,1.254c-2.509,6.272 -4.704,12.543 -6.271,18.815c-2.823,11.288 -5.018,22.89 -5.958,34.492c-0.627,5.645 -0.627,10.975 -0.941,16.62c-0,6.271 -0,12.543 0.627,18.814c0.314,4.39 0.627,8.467 1.254,12.857c0.941,6.585 1.882,12.856 3.45,19.128c1.568,6.271 3.449,12.229 5.644,17.873c0.941,0.314 1.568,1.254 2.822,1.568l0.314,-0l-0.314,-141.421c0,0.313 0,-0 0,-0" style="fill:#fff;fill-rule:nonzero;"/><path d="M2420.3,134.919c-0.314,5.33 -0.627,10.348 -0.941,15.678l-0,9.094c0.314,4.703 0.314,9.407 0.627,14.111c0.314,3.762 0.627,7.525 1.254,11.602c0.941,5.958 1.882,12.229 3.45,18.187c1.881,7.839 4.39,15.679 7.525,23.518c0.314,0.627 0.628,1.254 0.628,1.568l0.313,-0l0,-141.735c-0.313,0 -0.941,0 -1.254,0.314c-0.627,0.313 -0.941,0.627 -1.568,0.94c-1.881,5.331 -4.076,10.662 -5.331,16.306c-2.195,9.721 -4.076,20.069 -4.703,30.417" style="fill:#fff;fill-rule:nonzero;"/><path d="M2441.3,228.05c0,-0.314 0.314,-0.314 0.314,-0.628c3.135,-7.525 5.644,-15.365 7.525,-23.517c2.509,-10.348 4.077,-20.696 5.017,-31.044c0.628,-5.644 0.628,-10.975 0.941,-16.619l0,-7.84c0,-4.703 -0.313,-9.093 -0.627,-13.483c-0.627,-5.018 -0.941,-10.035 -1.881,-14.738c-1.255,-8.78 -3.45,-17.56 -5.958,-26.34c-0.627,-1.882 -1.568,-3.763 -2.195,-5.645c-0.627,-0.313 -1.255,-0.94 -1.882,-1.254c-0.313,-0.313 -0.94,0 -1.254,-0.313l0,141.421" style="fill:#fff;fill-rule:nonzero;"/><path d="M2454.16,365.394c0.628,-5.644 0.628,-10.975 0.941,-16.619c0,-5.958 0,-12.229 -0.627,-18.187c-0.314,-3.763 -0.627,-7.526 -0.941,-10.975c-0.627,-6.272 -1.881,-12.543 -3.135,-18.815c-2.195,-9.407 -4.704,-18.187 -8.467,-26.967c0,-0.313 -0.313,-0.627 -0.313,-0.941l-0.314,0l0,141.108c0.941,-0.314 1.881,-0.627 2.822,-0.941c2.509,-7.212 5.331,-14.738 6.899,-22.577c1.254,-8.153 2.508,-16.619 3.135,-25.086" style="fill:#fff;fill-rule:nonzero;"/><path d="M2444.44,232.126c-1.882,-1.568 -4.077,-2.822 -6.585,-3.136c-3.136,-0.313 -5.645,0.941 -7.84,3.136c-2.822,2.509 -4.39,5.644 -5.644,9.094c-1.568,4.703 -1.568,9.407 -0.941,14.424c0.628,4.704 2.509,8.78 5.645,12.229c1.881,2.195 4.39,3.45 7.212,3.763c2.822,0.314 5.331,-0.627 7.526,-2.508c2.508,-1.882 4.076,-4.39 5.33,-7.526c1.568,-3.763 2.195,-7.526 2.195,-11.602c0,-3.136 -0.313,-5.958 -1.254,-9.094c-1.254,-3.136 -2.822,-6.271 -5.644,-8.78" style="fill:#fff;fill-rule:nonzero;"/></g></g></g></svg>