<svg class="d-none d-xl-block p-0" viewBox="0 0 2500 350" xmlns="http://www.w3.org/2000/svg" fill-rule="evenodd" clip-rule="evenodd" stroke-linejoin="round" stroke-miterlimit="2">
  <path fill="none" d="M0 0h2500v350H0z"/>
  <clipPath id="a">
    <path d="M0 0h2500v350H0z"/>
  </clipPath>
  <g clip-path="url(#a)">
    <path fill="#fefffe" d="M1561.72.649h75v350h-75z"/>
    <path fill="#fff" d="M0 1.298h1343.3V350H0z"/>
    <path d="M2502.26.412h-876.964L1600.746 350h901.514V.412z" fill="#008941"/>
    <path d="M1599.22-1.827H-3.13v354.952h1576.11l26.238-354.952z" fill="#c22710"/>
    <text x="986.867" y="229.439" font-family="'Rubik-Medium','Rubik'" font-weight="500" font-size="82.785" fill="#fff">
      po<tspan x="1086.13px 1153.6px 1201.12px 1235.06px" y="229.439px 229.439px 229.439px 229.439px">were</tspan>d b<tspan x="1402.12" y="229.439">y</tspan>
    </text>
    <g fill="#fff" fill-rule="nonzero">
      <path d="M691.747 133.648h-54.19c-1.739 0-2.898-1.143-2.898-2.857v-21.142c0-1.999.87-2.857 2.898-2.857h97.947c2.318 0 2.898 2.286 1.738 4.286l-60.854 107.136h56.797c1.449 0 2.898 1.428 2.898 2.857v21.142c0 1.714-.869 2.856-2.898 2.856H633.21c-2.028 0-3.477-2.285-2.608-4.285l61.145-107.136zM825.626 105.078c1.159 0 2.318.857 2.898 2.857l58.536 134.278c.58 1.714-.579 2.856-2.318 2.856h-25.501c-1.159 0-2.029-.857-2.898-2.856l-7.244-17.142h-58.247l-7.534 17.142c-.869 1.999-1.739 2.856-2.898 2.856h-25.791c-1.738 0-2.608-1.428-2.028-2.856l58.246-134.278c.58-1.714 1.449-2.857 2.898-2.857h11.881zm-23.472 93.137h34.774L820.7 160.503l-1.449-3.142-1.159 3.142-15.938 37.712z"/>
      <path d="M450.576 242.879h34.61l-57.879-67.859 56.315-66.702h-33.046l-49.667 60.34v-60.34h-27.375v134.561h27.375v-59.955l49.667 59.955z" stroke="#fff" stroke-width="4.41"/>
      <path d="M605.584 217.357c1.739 0 3.188 1.428 3.188 3.143v20.855c0 1.715-1.449 2.857-3.188 2.857H517.2c-1.448 0-2.897-1.428-2.897-2.857V108.792c0-1.428 1.449-2.857 2.897-2.857h88.384c1.739 0 2.898 1.143 2.898 2.857v20.856c0 2-1.159 2.857-2.898 2.857H544.73v28.855h40.569c2.029 0 2.898.858 2.898 2.857v21.428c0 1.714-.869 2.571-2.898 2.571H544.73v29.141h60.854zM173.325 225.928c-11.301 11.999-25.79 17.999-44.047 18.284H77.117c-1.449 0-2.897-1.428-2.897-2.857V108.792c0-1.428 1.448-2.857 2.897-2.857h53.031c36.222.572 59.985 23.713 59.985 69.425-.29 21.712-5.796 38.854-16.808 50.568m-45.206-8.571c20.864 0 31.297-13.999 31.297-41.997 0-28.284-10.433-42.569-31.297-42.569h-23.472v84.566h23.472zM225.196 225.071c-13.909-13.714-20.864-30.284-20.864-49.711 0-19.713 6.955-36.284 20.864-50.283 13.91-13.999 30.717-20.856 50.423-20.856 19.705 0 36.512 6.857 50.422 20.856 13.909 13.713 20.574 30.57 20.574 50.283s-6.665 36.283-20.574 49.711c-13.91 13.713-30.717 20.856-50.422 20.856-19.706 0-36.513-6.857-50.423-20.856m50.712-6c11.881 0 21.444-4.285 28.979-12.856 7.534-8.571 11.301-18.856 11.301-30.855 0-12-3.767-22.57-11.301-31.141-7.535-8.571-17.387-12.857-28.979-12.857-11.881 0-21.444 4.286-28.978 12.571-7.824 8.571-11.591 18.856-11.591 31.141 0 11.999 3.767 22.284 11.591 30.855 7.534 8.571 17.097 13.142 28.978 13.142"/>
    </g>
    <g fill-rule="nonzero">
      <path d="M1625.66 25.89l-24.05 318.654h898.388l-.211-315.303-874.127-3.351z" fill="#008941"/>
      <path d="M1881.29 197.827l24.071-47.512c.629-1.101 1.416-1.573 2.36-1.573h12.9c.944 0 1.573.472 1.573 1.573v73.155c0 .944-.472 1.573-1.573 1.573h-13.372c-1.102 0-1.574-.472-1.574-1.573v-40.904l-20.923 40.904c-.787.944-1.574 1.573-2.36 1.573h-1.574c-.943 0-1.73-.472-2.359-1.573l-20.924-40.904v40.904c0 .944-.629 1.573-1.573 1.573h-13.373c-.944 0-1.573-.472-1.573-1.573v-73.155c0-1.101.472-1.573 1.573-1.573h12.901c.944 0 1.73.472 2.359 1.573l23.441 47.512zM1966.72 163.53h-29.419c-.944 0-1.573-.629-1.573-1.573v-11.642c0-1.101.472-1.573 1.573-1.573h53.175c1.259 0 1.573 1.259.944 2.36l-33.038 58.996h30.835c.787 0 1.574.786 1.574 1.573v11.642c0 .944-.472 1.573-1.574 1.573h-54.276c-1.101 0-1.888-1.259-1.416-2.36l33.195-58.996zM2039.4 147.798c.629 0 1.259.472 1.573 1.573l31.779 73.942c.315.944-.314 1.573-1.258 1.573h-13.845c-.629 0-1.101-.472-1.573-1.573l-3.933-9.44h-31.622l-4.09 9.44c-.472 1.101-.944 1.573-1.573 1.573h-14.002c-.944 0-1.416-.787-1.101-1.573l31.622-73.942c.314-.944.786-1.573 1.573-1.573h6.45zm-12.743 51.287h18.879l-8.81-20.766-.787-1.731-.629 1.731-8.653 20.766zM2130.96 210.098c.943 0 1.573.472 1.573 1.73v11.485c0 1.101-.472 1.573-1.573 1.573h-46.568c-.786 0-1.573-.787-1.573-1.573v-72.84c0-1.259.472-1.731 1.573-1.731h13.53c.944 0 1.573.629 1.573 1.731v59.625h31.465zM2192.79 210.098c.944 0 1.731.786 1.731 1.73v11.485c0 .944-.787 1.573-1.731 1.573h-47.983c-.787 0-1.573-.787-1.573-1.573v-72.998c0-.786.786-1.573 1.573-1.573h47.983c.944 0 1.573.629 1.573 1.573V161.8c0 1.101-.629 1.573-1.573 1.573h-33.038v15.89h22.026c1.101 0 1.573.472 1.573 1.573v11.799c0 .944-.472 1.416-1.573 1.416h-22.026v16.047h33.038zM2270.82 148.742c.944 0 1.573.787 1.573 1.573v73.155c0 .944-.629 1.573-1.573 1.573h-11.327c-.944 0-1.888-.629-2.675-1.573l-33.667-45.151v45.151c0 .944-.629 1.573-1.573 1.573h-13.53c-.944 0-1.573-.629-1.573-1.573v-73.155c0-1.101.472-1.573 1.573-1.573h12.114c.944 0 1.888.629 2.517 1.573l33.038 44.05v-44.05c0-1.101.472-1.573 1.416-1.573h13.687zM2340.51 214.817c-6.136 6.608-14.002 9.912-23.913 10.069h-28.318c-.787 0-1.574-.787-1.574-1.573v-72.998c0-.786.787-1.573 1.574-1.573h28.79c19.665.315 32.565 13.058 32.565 38.229-.157 11.957-3.146 21.396-9.124 27.846m-24.543-4.719c11.327 0 16.991-7.709 16.991-23.127 0-15.575-5.664-23.441-16.991-23.441h-12.743v46.568h12.743zM2368.68 214.345c-7.551-7.551-11.327-16.676-11.327-27.374 0-10.855 3.776-19.98 11.327-27.688 7.552-7.709 16.676-11.485 27.374-11.485s19.823 3.776 27.374 11.485c7.552 7.551 11.17 16.833 11.17 27.688 0 10.856-3.618 19.98-11.17 27.374-7.551 7.552-16.676 11.485-27.374 11.485s-19.822-3.776-27.374-11.485m27.532-3.303c6.45 0 11.641-2.36 15.732-7.08 4.09-4.72 6.135-10.383 6.135-16.991 0-6.607-2.045-12.428-6.135-17.148-4.091-4.719-9.44-7.079-15.732-7.079-6.451 0-11.642 2.36-15.733 6.922-4.247 4.72-6.293 10.383-6.293 17.148 0 6.608 2.046 12.271 6.293 16.991 4.091 4.719 9.282 7.237 15.733 7.237" fill="#fff"/>
      <path d="M1696.75 248.327c-6.451 11.012-12.743 22.025-19.194 33.195-1.258-.629-2.517-1.416-3.618-2.045.157-.315.315-.472.315-.63 5.034-8.81 10.068-17.62 15.26-26.272 1.573-2.675 3.146-5.507 4.72-8.181.157-.315.314-.472.157-.787l2.36 4.72zM1757.32 243.293c-.158.314-.158.629 0 1.101l15.103 25.958c1.573 2.832 3.303 5.664 4.877 8.495.157.158.157.472.314.63-1.258.629-2.36 1.416-3.461 2.045-.315-.315-5.506-9.282-9.754-16.519a2154.213 2154.213 0 00-9.596-16.676l2.517-5.034zM1754.81 139.145c.157-.157.314-.314.314-.472.944-1.573 1.731-2.989 2.675-4.562.157-.314.314-.472.157-.786-.629-2.675 0-5.192.944-7.552.787-1.73 1.573-3.461 2.517-5.192 2.675-4.562 5.506-9.124 8.81-13.372 3.147-4.09 6.45-7.866 10.226-11.484 1.101-1.102 2.36-2.046 3.461-3.147.157-.157.315-.157.472-.315 0 .315 0 .472-.157.63a78.253 78.253 0 01-3.304 12.271c-2.36 7.079-5.506 13.844-9.282 20.294-.944 1.574-2.045 3.304-2.989 4.877-.944 1.416-2.203 2.675-3.461 3.619-.944.629-1.888 1.258-2.989 1.573-.315.157-.63.315-.787.629-1.416 2.36-2.674 4.72-4.09 7.08-.158.314-.315.629-.158.944l-2.359-5.035zM1694.24 144.337a1.005 1.005 0 000-.944c-1.416-2.36-2.832-4.877-4.248-7.237-.157-.314-.315-.472-.629-.472-2.36-.786-4.248-2.202-5.821-4.247-1.259-1.574-2.36-3.304-3.461-5.035-1.888-3.146-3.619-6.45-5.192-9.754-3.461-7.551-6.136-15.417-7.866-23.598v-.629c.314-.158.314.157.472.157 2.36 2.045 4.719 4.248 6.765 6.608 2.989 3.146 5.663 6.45 8.338 10.068 3.303 4.563 6.293 9.282 8.81 14.159.944 1.731 1.573 3.619 2.045 5.507.315 1.415.315 2.831 0 4.09 0 .472 0 .787.157 1.101.944 1.416 1.731 2.989 2.517 4.405.158.157.158.315.315.629l-2.202 5.192z"/>
      <path d="M1694.24 243.45c-2.203-4.562-3.934-9.282-5.507-14.159-1.888-5.506-3.304-11.013-4.405-16.833-.472-2.832-.944-5.664-1.258-8.339-.158-1.887-.472-3.933-.472-5.82a67.975 67.975 0 010-8.024c.157-2.517.314-5.034.629-7.709.787-7.394 2.517-14.473 4.72-21.553l3.303-9.911a130.68 130.68 0 012.99-6.922l2.517-5.035c.157-.157.157-.314.314-.472 2.36-4.405 5.035-8.81 7.866-12.9 2.832-3.933 5.664-7.866 8.968-11.327 1.573-1.573 3.304-3.147 5.191-4.562 1.259-.787 2.518-1.574 3.933-2.203 1.888-.629 3.619-.629 5.507 0 2.045.787 3.775 2.045 5.349 3.304 2.517 2.202 4.877 4.562 6.922 7.079 4.405 5.349 8.338 11.17 11.799 17.306.629.944 1.101 2.045 1.731 2.989.157.157.157.314.314.629l2.517 5.034c2.203 4.563 3.933 9.282 5.507 14.002 1.887 5.821 3.461 11.799 4.562 17.777.472 2.832.944 5.821 1.259 8.653.472 4.091.472 8.181.472 12.271 0 2.046-.315 3.933-.472 5.979a94.081 94.081 0 01-1.416 9.596 93.406 93.406 0 01-3.304 13.058c-1.101 3.461-2.203 6.922-3.461 10.383-.944 2.517-2.045 4.877-2.989 7.237l-2.517 5.034c-.472.787-.787 1.416-1.259 2.203-2.832 5.191-6.136 10.226-9.597 14.945-2.202 2.99-4.562 5.821-7.237 8.496-1.887 1.888-3.933 3.618-6.135 4.877-1.416.786-2.832 1.416-4.248 1.416-.944 0-1.73-.158-2.674-.315-1.731-.472-3.147-1.416-4.72-2.517-2.36-1.731-4.562-3.933-6.45-6.136-5.192-5.821-9.439-12.271-13.372-19.036-.63-1.101-1.259-2.359-2.046-3.618 0-.157-.157-.315-.314-.472l-2.517-4.405z"/>
      <path d="M1764.72 196.725c0 1.888-.315 3.776-.315 5.664-.314 3.146-.786 6.135-1.258 9.282-.787 4.248-1.731 8.495-2.99 12.586-.943 3.303-2.045 6.765-3.146 10.068-.787 2.36-1.731 4.563-2.674 6.922l-2.36 4.877a14.424 14.424 0 00-1.102 2.203c-2.517 4.877-5.506 9.754-8.652 14.316-2.045 2.832-4.091 5.507-6.45 8.024-1.731 1.73-3.462 3.461-5.507 4.719-.314.158-.786.158-1.101.315 1.259-3.618 2.517-7.394 3.304-11.327.786-4.091 1.416-8.338 1.73-12.586.315-2.832.315-5.506.472-8.338 0-2.989 0-6.136-.314-9.125-.158-1.888-.315-3.775-.472-5.506-.315-3.146-.944-6.293-1.574-9.439-.943-4.563-2.359-9.125-4.09-13.53 0-.157-.157-.315-.157-.472h-.158v70.795c-.472.157-.943.472-1.415.472-.787 0-1.574-.157-2.203-.315v-71.109h-.157c-.158.157-.158.472-.315.629-1.259 3.146-2.202 6.293-3.146 9.439a107.295 107.295 0 00-2.832 17.306c-.315 2.832-.315 5.506-.472 8.338 0 3.146 0 6.293.315 9.439.157 2.203.314 4.248.629 6.45.472 3.304.944 6.451 1.73 9.597.63 3.146 1.731 6.136 2.832 9.125-.944-.472-2.045-.944-2.832-1.731a33.966 33.966 0 01-5.821-5.821c-4.719-5.506-8.495-11.799-11.956-18.092-.629-1.101-1.259-2.202-1.731-3.304 0-.157-.157-.314-.314-.472l-2.203-4.719c-2.045-4.405-3.618-8.968-5.034-13.53-1.573-5.192-2.989-10.54-3.933-16.047-.472-2.674-.944-5.349-1.101-8.023-.158-1.888-.315-3.776-.472-5.506a62.748 62.748 0 010-7.709c.157-2.36.314-4.877.629-7.237.787-7.08 2.202-13.844 4.248-20.609.944-3.147 1.888-6.293 2.989-9.44.786-2.202 1.73-4.405 2.674-6.607l2.203-4.877c.157-.157.157-.315.314-.472a155.877 155.877 0 017.08-12.271c2.517-3.776 5.192-7.394 8.181-10.855 1.416-1.574 2.989-2.99 4.562-4.405.787-.63 1.731-1.102 2.674-1.574-.943 2.675-1.887 5.349-2.674 8.181-1.259 5.192-2.045 10.383-2.517 15.575-.157 2.674-.315 5.192-.472 7.866v4.405c.157 2.36.157 4.72.315 7.08.157 1.887.314 3.775.629 5.663.472 2.989.944 6.136 1.73 9.125.944 4.09 2.046 8.023 3.619 11.799.157.315.157.629.314.787h.158v-70.953a7.682 7.682 0 013.775 0v70.953h.158c0-.158.157-.158.157-.315a73.76 73.76 0 003.776-11.799c1.258-5.192 2.045-10.383 2.517-15.575.315-2.832.315-5.506.472-8.338v-3.933c0-2.36-.157-4.562-.315-6.765-.314-2.517-.472-5.034-.786-7.394-.63-4.405-1.574-8.81-2.989-13.215-.315-.944-.63-1.888-1.102-2.832 1.416.787 2.675 1.573 3.933 2.517 2.36 2.045 4.405 4.405 6.293 6.765 4.091 5.192 7.394 10.698 10.541 16.519.472.944 1.101 1.888 1.573 2.832 0 .157.157.314.315.472l2.202 4.719c2.045 4.248 3.461 8.81 4.877 13.373 1.731 5.506 3.147 11.17 4.091 16.99.472 2.675.786 5.507 1.101 8.338v11.642" fill="#c01823"/>
      <path d="M1691.56 236.528c-.157-.472-.315-.944-.629-1.416-2.517-7.08-4.72-14.474-6.293-21.868-.787-4.09-1.416-8.181-1.731-12.271-.314-3.304-.314-6.765-.314-10.069.157-6.45 1.101-12.9 2.517-19.193a175.495 175.495 0 014.405-15.575c.472-1.573 1.101-2.989 1.573-4.562 0-.157.157-.315.315-.629a.486.486 0 01.157.314c.944 2.832 2.045 5.664 2.989 8.496.944 3.146 1.888 6.135 2.675 9.282 1.258 5.034 2.202 9.911 2.674 15.103.157 1.887.315 3.618.315 5.506.157 2.045.157 4.09.157 6.135 0 2.36-.315 4.72-.472 7.08-.315 3.776-.944 7.394-1.73 11.012-.944 4.248-1.888 8.496-3.304 12.744-.944 3.146-2.045 6.292-3.147 9.439.158 0 0 .314-.157.472zM1760 236.685c-.157-.315-.157-.472-.314-.629-1.888-5.034-3.619-10.226-5.035-15.575-1.101-4.562-2.202-9.125-2.832-13.687-.314-2.203-.472-4.405-.629-6.608-.315-3.146-.315-6.135-.157-9.282 0-2.989.314-5.978.786-9.124.787-6.765 2.36-13.373 4.405-19.823a261.288 261.288 0 013.462-10.226c.157-.314.157-.472.314-.786.157.157.157.314.315.472 2.832 7.708 5.191 15.574 6.765 23.755.786 3.933 1.258 7.709 1.573 11.642.315 3.304.315 6.608.315 9.911-.158 5.979-.944 11.799-2.203 17.62-1.416 6.451-3.304 12.901-5.506 19.194-.315.944-.787 2.045-1.102 2.989 0-.158 0-.158-.157.157"/>
      <path d="M1723.81 204.906c-.157.315-.157.472-.315.629-1.258 3.147-2.359 6.293-3.146 9.44-1.416 5.663-2.517 11.484-2.989 17.305-.315 2.832-.315 5.506-.472 8.338 0 3.147 0 6.293.315 9.439.157 2.203.314 4.248.629 6.451.472 3.303.944 6.45 1.73 9.596a74.827 74.827 0 002.832 8.968c.472.157.787.629 1.416.786h.157l-.157-70.952c0 .157 0 0 0 0M1717.36 135.842c-.157 2.674-.315 5.191-.472 7.866v4.562c.157 2.36.157 4.72.315 7.08.157 1.887.314 3.775.629 5.821.472 2.989.944 6.135 1.73 9.124a85.497 85.497 0 003.776 11.799c.157.315.315.63.315.787h.157v-71.11c-.157 0-.472 0-.629.158-.315.157-.472.314-.787.472-.944 2.674-2.045 5.349-2.674 8.18-1.102 4.877-2.045 10.069-2.36 15.261M1727.9 182.566c0-.157.158-.157.158-.314a73.656 73.656 0 003.775-11.799c1.259-5.192 2.046-10.384 2.518-15.575.314-2.832.314-5.507.472-8.338v-3.933c0-2.36-.158-4.563-.315-6.765-.315-2.517-.472-5.035-.944-7.394-.629-4.405-1.731-8.81-2.989-13.216-.315-.943-.787-1.887-1.101-2.831-.315-.158-.63-.472-.944-.63-.158-.157-.472 0-.63-.157v70.952M1734.35 251.473c.314-2.831.314-5.506.472-8.338 0-2.989 0-6.135-.315-9.124a759.2 759.2 0 00-.472-5.507c-.315-3.146-.944-6.293-1.573-9.439-1.101-4.72-2.36-9.125-4.248-13.53 0-.157-.157-.314-.157-.472h-.158v70.795l1.416-.472c1.259-3.618 2.675-7.394 3.461-11.327.63-4.09 1.259-8.338 1.574-12.586M1729.48 184.612c-.944-.787-2.046-1.416-3.304-1.574-1.573-.157-2.832.472-3.933 1.574-1.416 1.258-2.203 2.831-2.832 4.562-.787 2.36-.787 4.72-.472 7.237.315 2.36 1.259 4.405 2.832 6.135.944 1.101 2.202 1.731 3.618 1.888 1.416.157 2.675-.315 3.776-1.258 1.259-.944 2.045-2.203 2.674-3.776.787-1.888 1.102-3.776 1.102-5.821 0-1.573-.158-2.989-.63-4.562-.629-1.574-1.415-3.147-2.831-4.405" fill="#fff"/>
    </g>
  </g>
</svg>
