<?xml version="1.0" encoding="UTF-8" standalone="no"?><!DOCTYPE svg PUBLIC "-//W3C//DTD SVG 1.1//EN" "http://www.w3.org/Graphics/SVG/1.1/DTD/svg11.dtd"><svg width="100%" height="100%" viewBox="0 0 1163 467" version="1.1" xmlns="http://www.w3.org/2000/svg" xmlns:xlink="http://www.w3.org/1999/xlink" xml:space="preserve" xmlns:serif="http://www.serif.com/" style="fill-rule:evenodd;clip-rule:evenodd;stroke-linejoin:round;stroke-miterlimit:2;"><rect id="web-logo-mobile" x="0" y="0" width="1162.5" height="466.667" style="fill:none;"/><clipPath id="_clip1"><rect x="0" y="0" width="1162.5" height="466.667"/></clipPath><g clip-path="url(#_clip1)"><rect x="602.406" y="0.443" width="88.846" height="464.935" style="fill:#fefffe;"/><g><rect x="0" y="1.731" width="1162.5" height="464.935" style="fill:#fff;"/><path d="M1168.23,-2.578l-501.611,0l-34.08,472.372l535.691,-0l0,-472.372Z" style="fill:#008941;"/><path id="Dokeza" d="M603.13,-2.435l-607.297,-0l0,473.268l572.312,0l34.985,-473.268Z" style="fill:#c22710;"/></g><g><g><path d="M118.886,111.923l2.656,-0c7.211,-0 13.694,2.742 19.449,8.226c5.756,5.484 8.633,12.324 8.633,20.519c0,8.069 -2.877,14.72 -8.633,19.952c-5.755,5.232 -12.871,7.848 -21.346,7.848c-9.234,-0 -16.919,-3.688 -23.054,-11.063c-6.135,-7.376 -9.202,-17.872 -9.202,-31.488c-0,-12.481 2.688,-24.175 8.064,-35.081c5.376,-10.905 11.954,-19.542 19.733,-25.908c7.78,-6.367 14.705,-9.551 20.777,-9.551c3.795,0 6.862,1.23 9.202,3.688c2.34,2.459 3.511,5.516 3.511,9.172c-0,5.674 -2.404,9.771 -7.211,12.293c-6.704,3.656 -12.017,7.942 -15.938,12.859c-3.921,4.917 -6.135,11.095 -6.641,18.534Z" style="fill:#fff;fill-rule:nonzero;"/><path d="M441.379,112.679l-2.846,0c-7.084,0 -13.503,-2.868 -19.259,-8.605c-5.755,-5.736 -8.633,-12.513 -8.633,-20.329c-0,-8.069 2.878,-14.814 8.633,-20.236c5.756,-5.421 12.871,-8.132 21.346,-8.132c5.819,0 11.258,1.671 16.318,5.012c5.06,3.341 8.981,8.195 11.764,14.562c2.783,6.367 4.174,14.152 4.174,23.355c0,12.482 -2.656,24.176 -7.969,35.081c-5.313,10.906 -11.796,19.542 -19.448,25.909c-7.653,6.367 -14.579,9.55 -20.777,9.55c-3.922,0 -7.115,-1.229 -9.582,-3.688c-2.467,-2.458 -3.7,-5.452 -3.7,-8.983c-0,-5.673 2.593,-9.833 7.779,-12.481c6.705,-3.908 11.954,-8.195 15.749,-12.86c3.795,-4.665 5.945,-10.716 6.451,-18.155Z" style="fill:#fff;fill-rule:nonzero;"/></g><path d="M373.371,349.724c-22.54,23.895 -51.437,35.842 -87.847,36.411l-104.029,0c-2.89,0 -5.779,-2.844 -5.779,-5.689l-0,-263.981c-0,-2.844 2.889,-5.689 5.779,-5.689l105.763,-0c72.242,1.138 119.633,47.221 119.633,138.249c-0.578,43.238 -11.558,77.373 -33.52,100.699m-90.159,-17.068c41.612,0 62.418,-27.877 62.418,-83.631c-0,-56.324 -20.806,-84.77 -62.418,-84.77l-46.813,-0l0,168.401l46.813,0Z" style="fill:#fff;fill-rule:nonzero;"/></g><g id="Banner"><g><path d="M860.754,339.864c-11.472,18.941 -22.663,37.882 -34.135,57.094c-2.238,-1.083 -4.477,-2.436 -6.435,-3.518c0.279,-0.541 0.559,-0.812 0.559,-1.082c8.954,-15.153 17.907,-30.306 27.14,-45.189c2.798,-4.6 5.596,-9.47 8.394,-14.07c0.28,-0.541 0.56,-0.812 0.28,-1.353l4.197,8.118Z" style="fill-rule:nonzero;"/><path d="M968.476,331.205c-0.28,0.541 -0.28,1.082 -0,1.894c8.953,14.882 17.906,29.764 26.86,44.647c2.798,4.87 5.876,9.741 8.674,14.612c0.279,0.27 0.279,0.811 0.559,1.082c-2.238,1.082 -4.197,2.435 -6.155,3.518c-0.56,-0.542 -9.793,-15.965 -17.348,-28.412c-5.596,-9.471 -11.191,-18.941 -17.067,-28.682l4.477,-8.659Z" style="fill-rule:nonzero;"/><path d="M963.999,152.076c0.28,-0.271 0.559,-0.542 0.559,-0.812c1.679,-2.706 3.078,-5.141 4.757,-7.847c0.28,-0.541 0.56,-0.812 0.28,-1.353c-1.119,-4.6 -0,-8.93 1.679,-12.988c1.398,-2.977 2.797,-5.953 4.476,-8.93c4.757,-7.847 9.793,-15.694 15.669,-23c5.596,-7.035 11.471,-13.529 18.187,-19.753c1.958,-1.894 4.196,-3.517 6.155,-5.411c0.28,-0.271 0.56,-0.271 0.839,-0.542c0,0.542 0,0.812 -0.279,1.083c-1.399,7.306 -3.358,14.341 -5.876,21.106c-4.197,12.176 -9.793,23.811 -16.508,34.905c-1.679,2.706 -3.637,5.683 -5.316,8.389c-1.679,2.435 -3.917,4.6 -6.156,6.223c-1.678,1.083 -3.357,2.165 -5.316,2.706c-0.559,0.271 -1.119,0.541 -1.399,1.082c-2.518,4.059 -4.756,8.118 -7.274,12.177c-0.28,0.541 -0.56,1.082 -0.28,1.623l-4.197,-8.658Z" style="fill-rule:nonzero;"/><path d="M856.277,161.005c0.28,-0.541 0.28,-1.082 0,-1.624c-2.518,-4.058 -5.036,-8.388 -7.554,-12.447c-0.28,-0.541 -0.56,-0.811 -1.119,-0.811c-4.197,-1.353 -7.555,-3.789 -10.353,-7.306c-2.238,-2.706 -4.197,-5.683 -6.155,-8.659c-3.358,-5.412 -6.436,-11.094 -9.234,-16.776c-6.155,-12.989 -10.912,-26.518 -13.989,-40.589l-0,-1.082c0.559,-0.271 0.559,0.271 0.839,0.271c4.197,3.517 8.394,7.305 12.031,11.364c5.316,5.412 10.073,11.094 14.829,17.318c5.876,7.847 11.192,15.965 15.669,24.353c1.679,2.976 2.798,6.223 3.637,9.47c0.56,2.436 0.56,4.871 0,7.036c0,0.811 0,1.353 0.28,1.894c1.679,2.435 3.078,5.141 4.477,7.576c0.28,0.271 0.28,0.541 0.56,1.083l-3.918,8.929Z" style="fill-rule:nonzero;"/><path d="M856.277,331.475c-3.917,-7.847 -6.995,-15.964 -9.792,-24.353c-3.358,-9.47 -5.876,-18.941 -7.835,-28.952c-0.839,-4.871 -1.679,-9.742 -2.238,-14.342c-0.28,-3.247 -0.84,-6.764 -0.84,-10.011c-0.279,-4.6 -0.279,-9.2 0,-13.8c0.28,-4.33 0.56,-8.659 1.12,-13.259c1.399,-12.718 4.476,-24.894 8.394,-37.071c1.958,-5.682 3.917,-11.364 5.875,-17.047c1.679,-4.059 3.358,-7.847 5.316,-11.906l4.477,-8.658c0.28,-0.271 0.28,-0.542 0.56,-0.812c4.197,-7.577 8.953,-15.153 13.989,-22.188c5.037,-6.765 10.073,-13.53 15.949,-19.483c2.798,-2.706 5.876,-5.411 9.233,-7.847c2.239,-1.353 4.477,-2.706 6.995,-3.788c3.358,-1.082 6.435,-1.082 9.793,0c3.637,1.353 6.715,3.518 9.513,5.682c4.477,3.789 8.674,7.847 12.311,12.177c7.834,9.2 14.829,19.212 20.985,29.764c1.119,1.624 1.958,3.518 3.077,5.142c0.28,0.27 0.28,0.541 0.56,1.082l4.477,8.659c3.917,7.847 6.995,15.965 9.793,24.082c3.357,10.012 6.155,20.294 8.114,30.577c0.839,4.87 1.678,10.011 2.238,14.882c0.839,7.035 0.839,14.07 0.839,21.106c0,3.517 -0.559,6.764 -0.839,10.282c-0.56,5.682 -1.399,11.094 -2.518,16.506c-1.399,7.576 -3.358,15.153 -5.876,22.459c-1.958,5.953 -3.917,11.906 -6.155,17.859c-1.679,4.329 -3.638,8.388 -5.316,12.447l-4.477,8.658c-0.84,1.353 -1.399,2.436 -2.239,3.789c-5.036,8.929 -10.912,17.588 -17.067,25.705c-3.917,5.142 -8.114,10.012 -12.871,14.612c-3.357,3.247 -6.995,6.224 -10.912,8.388c-2.518,1.353 -5.036,2.436 -7.554,2.436c-1.679,-0 -3.078,-0.271 -4.757,-0.542c-3.078,-0.811 -5.596,-2.435 -8.394,-4.329c-4.197,-2.976 -8.114,-6.765 -11.471,-10.553c-9.234,-10.012 -16.788,-21.106 -23.783,-32.741c-1.119,-1.894 -2.238,-4.059 -3.637,-6.223c-0,-0.271 -0.28,-0.542 -0.56,-0.812l-4.477,-7.577Z" style="fill-rule:nonzero;"/><path d="M981.626,251.111c-0,3.247 -0.56,6.494 -0.56,9.741c-0.559,5.412 -1.399,10.553 -2.238,15.965c-1.399,7.305 -3.078,14.611 -5.316,21.647c-1.679,5.682 -3.637,11.635 -5.596,17.317c-1.399,4.059 -3.078,7.847 -4.757,11.906l-4.197,8.388c-0.839,1.353 -1.398,2.436 -1.958,3.789c-4.477,8.388 -9.793,16.776 -15.389,24.623c-3.637,4.871 -7.275,9.471 -11.471,13.8c-3.078,2.976 -6.156,5.953 -9.793,8.118c-0.56,0.27 -1.399,0.27 -1.959,0.541c2.238,-6.224 4.477,-12.718 5.876,-19.483c1.399,-7.035 2.518,-14.341 3.078,-21.647c0.559,-4.87 0.559,-9.47 0.839,-14.341c-0,-5.141 -0,-10.553 -0.56,-15.694c-0.279,-3.247 -0.559,-6.494 -0.839,-9.47c-0.56,-5.412 -1.679,-10.824 -2.798,-16.236c-1.679,-7.847 -4.197,-15.694 -7.275,-23.27c0,-0.271 -0.279,-0.541 -0.279,-0.812l-0.28,0l-0,121.765c-0.84,0.27 -1.679,0.811 -2.518,0.811c-1.399,0 -2.798,-0.27 -3.918,-0.541l0,-122.306l-0.279,0c-0.28,0.271 -0.28,0.812 -0.56,1.083c-2.238,5.412 -3.917,10.823 -5.596,16.235c-2.518,9.741 -4.197,19.753 -5.036,29.765c-0.56,4.87 -0.56,9.47 -0.84,14.341c0,5.412 0,10.823 0.56,16.235c0.28,3.788 0.56,7.306 1.119,11.094c0.84,5.683 1.679,11.094 3.078,16.506c1.119,5.412 3.078,10.553 5.036,15.694c-1.679,-0.812 -3.637,-1.623 -5.036,-2.976c-3.917,-2.977 -7.275,-6.224 -10.353,-10.012c-8.393,-9.471 -15.109,-20.294 -21.264,-31.118c-1.119,-1.894 -2.238,-3.788 -3.078,-5.682c0,-0.271 -0.28,-0.541 -0.559,-0.812l-3.918,-8.117c-3.637,-7.577 -6.435,-15.424 -8.953,-23.271c-2.798,-8.929 -5.316,-18.129 -6.995,-27.6c-0.839,-4.6 -1.679,-9.2 -1.958,-13.8c-0.28,-3.247 -0.56,-6.494 -0.84,-9.47c-0.28,-4.33 -0.28,-8.93 0,-13.259c0.28,-4.059 0.56,-8.388 1.119,-12.447c1.399,-12.177 3.917,-23.812 7.555,-35.447c1.679,-5.412 3.357,-10.824 5.316,-16.235c1.399,-3.789 3.078,-7.577 4.756,-11.365l3.918,-8.388c0.279,-0.271 0.279,-0.542 0.559,-0.812c3.917,-7.306 8.114,-14.341 12.591,-21.106c4.477,-6.494 9.233,-12.718 14.549,-18.671c2.519,-2.705 5.317,-5.141 8.115,-7.576c1.398,-1.082 3.077,-1.894 4.756,-2.706c-1.679,4.6 -3.358,9.2 -4.756,14.071c-2.239,8.929 -3.638,17.858 -4.477,26.788c-0.28,4.6 -0.56,8.929 -0.84,13.529l0,7.577c0.28,4.059 0.28,8.117 0.56,12.176c0.28,3.247 0.56,6.494 1.119,9.741c0.84,5.141 1.679,10.553 3.078,15.694c1.679,7.036 3.637,13.8 6.435,20.294c0.28,0.542 0.28,1.083 0.56,1.353l0.28,0l-0,-122.035c2.238,-0.541 4.476,-0.541 6.715,0l-0,122.035l0.28,0c-0,-0.27 0.279,-0.27 0.279,-0.541c2.798,-6.494 5.037,-13.259 6.715,-20.294c2.239,-8.929 3.638,-17.859 4.477,-26.788c0.56,-4.871 0.56,-9.471 0.84,-14.341l-0,-6.765c-0,-4.059 -0.28,-7.847 -0.56,-11.635c-0.56,-4.33 -0.839,-8.659 -1.399,-12.718c-1.119,-7.576 -2.798,-15.153 -5.316,-22.729c-0.56,-1.624 -1.119,-3.247 -1.959,-4.871c2.518,1.353 4.757,2.706 6.995,4.33c4.197,3.517 7.834,7.576 11.192,11.635c7.275,8.929 13.15,18.4 18.746,28.412c0.84,1.623 1.959,3.247 2.798,4.87c0,0.271 0.28,0.541 0.56,0.812l3.917,8.118c3.637,7.306 6.156,15.153 8.674,23c3.077,9.47 5.596,19.211 7.274,29.223c0.84,4.6 1.399,9.471 1.959,14.341l-0,20.024" style="fill:#c01823;fill-rule:nonzero;"/><path d="M851.521,319.569c-0.28,-0.811 -0.56,-1.623 -1.119,-2.435c-4.477,-12.176 -8.394,-24.894 -11.192,-37.612c-1.399,-7.035 -2.518,-14.07 -3.078,-21.105c-0.56,-5.683 -0.56,-11.636 -0.56,-17.318c0.28,-11.094 1.959,-22.188 4.477,-33.012c2.239,-9.2 4.757,-17.859 7.834,-26.788c0.84,-2.706 1.959,-5.141 2.798,-7.847c0,-0.271 0.28,-0.541 0.56,-1.082c0.28,0.27 0.28,0.541 0.28,0.541c1.679,4.87 3.637,9.741 5.316,14.612c1.679,5.411 3.358,10.553 4.756,15.964c2.239,8.659 3.918,17.047 4.757,25.977c0.28,3.247 0.56,6.223 0.56,9.47c0.279,3.518 0.279,7.036 0.279,10.553c0,4.059 -0.559,8.118 -0.839,12.177c-0.56,6.494 -1.679,12.717 -3.078,18.941c-1.679,7.306 -3.357,14.612 -5.875,21.917c-1.679,5.412 -3.638,10.824 -5.596,16.236c0.279,-0 -0,0.541 -0.28,0.811Z" style="fill-rule:nonzero;"/><path d="M973.232,319.84c-0.28,-0.541 -0.28,-0.812 -0.56,-1.082c-3.357,-8.659 -6.435,-17.589 -8.953,-26.789c-1.959,-7.847 -3.917,-15.694 -5.036,-23.541c-0.56,-3.788 -0.84,-7.576 -1.119,-11.364c-0.56,-5.412 -0.56,-10.553 -0.28,-15.965c-0,-5.141 0.559,-10.282 1.399,-15.694c1.399,-11.635 4.197,-23 7.834,-34.094c1.959,-5.953 3.917,-11.635 6.155,-17.588c0.28,-0.542 0.28,-0.812 0.56,-1.353c0.28,0.27 0.28,0.541 0.56,0.811c5.036,13.259 9.233,26.789 12.031,40.859c1.399,6.765 2.238,13.259 2.798,20.024c0.559,5.682 0.559,11.364 0.559,17.047c-0.279,10.282 -1.678,20.294 -3.917,30.306c-2.518,11.094 -5.875,22.188 -9.793,33.011c-0.559,1.624 -1.399,3.518 -1.958,5.141c-0,-0.27 -0,-0.27 -0.28,0.271" style="fill-rule:nonzero;"/><path d="M908.879,265.181c-0.28,0.541 -0.28,0.812 -0.56,1.083c-2.238,5.411 -4.197,10.823 -5.595,16.235c-2.519,9.741 -4.477,19.753 -5.317,29.765c-0.559,4.87 -0.559,9.47 -0.839,14.341c-0,5.411 -0,10.823 0.56,16.235c0.279,3.788 0.559,7.306 1.119,11.094c0.839,5.682 1.679,11.094 3.078,16.506c1.399,5.412 3.077,10.553 5.036,15.423c0.839,0.271 1.399,1.083 2.518,1.353l0.28,0l-0.28,-122.035c0,0.271 0,0 0,0" style="fill:#fff;fill-rule:nonzero;"/><path d="M897.407,146.393c-0.279,4.6 -0.559,8.93 -0.839,13.53l-0,7.847c0.28,4.059 0.28,8.117 0.56,12.176c0.279,3.247 0.559,6.494 1.119,10.012c0.839,5.141 1.679,10.553 3.078,15.694c1.678,6.765 3.917,13.529 6.715,20.294c0.279,0.541 0.559,1.082 0.559,1.353l0.28,0l0,-122.306c-0.28,0 -0.839,0 -1.119,0.271c-0.56,0.271 -0.84,0.541 -1.399,0.812c-1.679,4.6 -3.637,9.2 -4.757,14.07c-1.958,8.388 -3.637,17.318 -4.197,26.247" style="fill:#fff;fill-rule:nonzero;"/><path d="M916.154,226.758c-0,-0.271 0.28,-0.271 0.28,-0.541c2.797,-6.494 5.036,-13.259 6.715,-20.294c2.238,-8.93 3.637,-17.859 4.476,-26.789c0.56,-4.87 0.56,-9.47 0.84,-14.341l-0,-6.764c-0,-4.059 -0.28,-7.848 -0.56,-11.636c-0.559,-4.329 -0.839,-8.659 -1.679,-12.717c-1.119,-7.577 -3.077,-15.153 -5.316,-22.73c-0.559,-1.623 -1.399,-3.247 -1.958,-4.87c-0.56,-0.271 -1.12,-0.812 -1.679,-1.083c-0.28,-0.27 -0.839,0 -1.119,-0.27l-0,122.035" style="fill:#fff;fill-rule:nonzero;"/><path d="M927.625,345.275c0.56,-4.87 0.56,-9.47 0.84,-14.341c-0,-5.141 -0,-10.553 -0.56,-15.694c-0.28,-3.247 -0.559,-6.494 -0.839,-9.471c-0.56,-5.411 -1.679,-10.823 -2.798,-16.235c-1.959,-8.117 -4.197,-15.694 -7.555,-23.27c0,-0.271 -0.279,-0.542 -0.279,-0.812l-0.28,-0l-0,121.764c0.839,-0.27 1.678,-0.541 2.518,-0.811c2.238,-6.224 4.756,-12.718 6.155,-19.483c1.12,-7.035 2.239,-14.341 2.798,-21.647" style="fill:#fff;fill-rule:nonzero;"/><path d="M918.952,230.275c-1.679,-1.352 -3.638,-2.435 -5.876,-2.705c-2.798,-0.271 -5.036,0.811 -6.995,2.705c-2.518,2.165 -3.917,4.871 -5.036,7.848c-1.399,4.058 -1.399,8.117 -0.84,12.447c0.56,4.058 2.239,7.576 5.037,10.552c1.678,1.895 3.917,2.977 6.435,3.248c2.518,0.27 4.757,-0.542 6.715,-2.165c2.238,-1.624 3.637,-3.788 4.757,-6.494c1.399,-3.247 1.958,-6.494 1.958,-10.012c0,-2.706 -0.28,-5.141 -1.119,-7.847c-1.119,-2.706 -2.518,-5.412 -5.036,-7.577" style="fill:#fff;fill-rule:nonzero;"/></g></g></g></svg>