<?xml version="1.0" encoding="UTF-8" standalone="no"?><!DOCTYPE svg PUBLIC "-//W3C//DTD SVG 1.1//EN" "http://www.w3.org/Graphics/SVG/1.1/DTD/svg11.dtd"><svg width="100%" height="100%" viewBox="0 0 288 288" version="1.1" xmlns="http://www.w3.org/2000/svg" xmlns:xlink="http://www.w3.org/1999/xlink" xml:space="preserve" style="fill-rule:evenodd;clip-rule:evenodd;stroke-linejoin:round;stroke-miterlimit:1.41421;"><rect id="Artboard2" x="0" y="0" width="288" height="288" style="fill:none;"/><clipPath id="_clip1"><rect x="0" y="0" width="288" height="288"/></clipPath><g clip-path="url(#_clip1)"><g id="Banner"><g id="background"><path d="M16.511,0l-0.606,288l38.778,0l0.607,-288l-38.779,0Z" style="fill:#009f57;fill-rule:nonzero;"/><path d="M0,288l288,0l0,-288l-288,0l0,288Z" style="fill:#c32810;fill-rule:nonzero;"/></g></g><path d="M89.236,208.868l-2.927,13.358l100.681,22.065l3.712,-16.938c5.228,-23.858 0.201,-49.963 -39.882,-58.748c-35.543,-7.789 -54.211,6.625 -61.584,40.263m133.992,24.113l-10.667,48.672c-1.045,4.768 -2.861,7.372 -9.068,6.012l-150.544,-32.993c-5.253,-1.152 -7.323,-3.1 -5.911,-9.541l8.262,-37.7c12.969,-59.175 41.184,-93.237 104.655,-79.327c57.255,12.548 73.888,56.439 63.273,104.877" style="fill:#fff;fill-rule:nonzero;"/><path d="M37.945,268.998l0.008,1.645c0.023,4.467 -1.658,8.491 -5.043,12.074c-3.385,3.583 -7.619,5.387 -12.703,5.413c-5.007,0.025 -9.142,-1.737 -12.406,-5.286c-3.264,-3.549 -4.91,-7.949 -4.936,-13.199c-0.029,-5.721 2.235,-10.493 6.792,-14.316c4.557,-3.824 11.059,-5.757 19.507,-5.8c7.744,-0.039 15.007,1.59 21.79,4.886c6.783,3.296 12.162,7.344 16.137,12.143c3.974,4.8 5.971,9.08 5.99,12.841c0.012,2.351 -0.741,4.255 -2.259,5.713c-1.518,1.457 -3.411,2.192 -5.68,2.203c-3.52,0.018 -6.07,-1.458 -7.649,-4.428c-2.289,-4.142 -4.966,-7.42 -8.029,-9.833c-3.062,-2.414 -6.902,-3.766 -11.519,-4.056Z" style="fill:#fff;fill-rule:nonzero;"/><path d="M253.171,269.705l-0.458,-1.702c-1.14,-4.238 -0.454,-8.541 2.056,-12.908c2.511,-4.368 6.108,-7.182 10.792,-8.441c4.834,-1.301 9.339,-0.666 13.513,1.903c4.174,2.57 6.943,6.389 8.307,11.46c0.936,3.481 0.811,7.004 -0.377,10.569c-1.188,3.566 -3.465,6.694 -6.832,9.385c-3.367,2.69 -7.807,4.777 -13.321,6.261c-7.479,2.011 -14.912,2.307 -22.301,0.886c-7.389,-1.421 -13.607,-3.907 -18.653,-7.46c-5.046,-3.552 -8.068,-7.182 -9.065,-10.89c-0.631,-2.346 -0.409,-4.455 0.667,-6.326c1.077,-1.872 2.672,-3.093 4.787,-3.662c3.399,-0.914 6.309,-0.033 8.73,2.643c3.421,3.381 6.834,5.83 10.239,7.349c3.406,1.518 7.378,1.829 11.916,0.933Z" style="fill:#fff;fill-rule:nonzero;"/></g></svg>