<svg viewBox="0 0 128 72" xmlns="http://www.w3.org/2000/svg" fill-rule="evenodd" clip-rule="evenodd" stroke-linejoin="round" stroke-miterlimit="1.414" class="dz-mzalendo-dokeza-logo__small">>
  <path fill="none" d="M0 0h127.198v72H0z"/>
  <clipPath id="a">
    <path d="M0 0h127.198v72H0z"/>
  </clipPath>
  <g clip-path="url(#a)">
    <path fill="#c22710" d="M65.877 0h61.955v72H65.877z"/>
    <clipPath id="b">
      <path d="M-.14-.042H71.9v72.04H-.14z"/>
    </clipPath>
    <g clip-path="url(#b)">
      <path d="M8.044-.323L4.913 71.998h49.692L57.736-.323H8.044z" fill="#009f57" fill-rule="nonzero"/>
      <path d="M-6.027-.323v72.321H9.852L12.983-.323h-19.01z" fill-rule="nonzero"/>
      <path d="M58.353 71.998h19.153V-.323H61.484l-3.131 72.321z" fill="#c32810" fill-rule="nonzero"/>
      <g>
        <path d="M16.576-.323h-3.381l-3.131 72.321h3.702L16.897-.323h-.321zM58.487-.323h-.539l-3.131 72.321h3.748L61.696-.323h-3.209z" fill="#fff" fill-rule="nonzero"/>
      </g>
      <g>
        <path d="M41.442 26.077c.182.33.36.672.528 1.018.157.319.305.638.442.95-1.228 2.913-1.85 5.918-1.85 8.934 0 3.016.622 6.021 1.85 8.934-.132.301-.274.607-.431.928-.168.346-.346.688-.527 1.018-1.649 3.003-4.495 6.039-5.572 6.039-1.078 0-3.924-3.036-5.573-6.039-.181-.33-.358-.672-.527-1.018-.157-.321-.298-.627-.43-.928 1.227-2.913 1.849-5.918 1.849-8.934 0-3.016-.622-6.021-1.849-8.934.137-.312.285-.631.441-.95.169-.346.347-.688.528-1.018 1.688-3.068 4.528-6.03 5.561-6.03 1.033 0 3.872 2.962 5.56 6.03" fill="#c32810" fill-rule="nonzero"/>
        <path d="M33.998 27.169c0-3.043.449-5.648 1.112-6.847.169-.116.334-.208.472-.264v14.554c-.9-.629-1.584-3.721-1.584-7.443M37.765 27.169c0-3.043-.449-5.648-1.111-6.847-.17-.116-.334-.208-.473-.264v14.554c.901-.629 1.584-3.721 1.584-7.443M37.765 46.775c0 3.043-.449 5.648-1.111 6.847-.17.115-.334.208-.473.264V39.332c.901.629 1.584 3.721 1.584 7.443M33.998 46.775c0 3.043.449 5.648 1.112 6.847.169.115.334.208.472.264V39.332c-.9.629-1.584 3.721-1.584 7.443M37.347 36.972c0-1.194-.656-2.162-1.465-2.162s-1.466.968-1.466 2.162.657 2.162 1.466 2.162c.809 0 1.465-.968 1.465-2.162" fill="#fff" fill-rule="nonzero"/>
        <path d="M41.442 26.068c.182.33.36.672.528 1.018.157.319.305.638.442.951-1.228 2.913-1.85 5.918-1.85 8.934 0 3.016.622 6.021 1.85 8.933-.132.301-.274.607-.431.928-.168.347-.346.689-.527 1.019-1.649 3.003-4.495 6.047-5.572 6.047-1.078 0-3.924-3.044-5.573-6.047-.181-.33-.358-.672-.527-1.019-.157-.321-.298-.627-.43-.928 1.227-2.912 1.849-5.917 1.849-8.933s-.622-6.021-1.849-8.934c.137-.313.285-.632.441-.951.169-.346.347-.688.528-1.018 1.688-3.068 4.528-6.021 5.561-6.021 1.033 0 3.872 2.953 5.56 6.021m-5.561 28.549c1.266 0 3.926-2.366 6.081-6.2l3.851 6.661.849-.49-4.159-7.194c.042-.082.087-.161.127-.244.187-.383.352-.744.506-1.102l.061-.143-.042-.098c1.205-2.883 1.819-5.854 1.819-8.836 0-2.983-.614-5.955-1.819-8.837l.042-.099-.061-.142c-.158-.369-.332-.747-.517-1.125-.034-.07-.073-.137-.107-.207l.664-1.153c.592-.022 1.272-.487 1.558-.982.372-.645 3.621-7.48 2.977-7.853-.645-.372-4.941 5.859-5.313 6.505-.286.494-.348 1.315-.071 1.839l-.357.619c-2.156-3.84-4.823-6.212-6.089-6.212h.001c-1.266 0-3.932 2.372-6.089 6.212l-.357-.619c.278-.524.215-1.345-.071-1.839-.372-.646-4.667-6.877-5.312-6.505-.645.373 2.604 7.208 2.977 7.853.285.495.965.96 1.557.982l.665 1.153c-.035.07-.073.137-.108.207-.185.378-.359.756-.517 1.125l-.061.142.042.099c-1.204 2.882-1.819 5.854-1.819 8.837 0 2.982.615 5.953 1.819 8.836l-.042.098.061.143c.154.358.32.719.506 1.102.041.083.085.162.127.244l-4.158 7.194.849.49 3.85-6.661c2.155 3.834 4.815 6.2 6.081 6.2h-.001z" fill-rule="nonzero"/>
      </g>
    </g>
    <g>
      <path d="M91.559 29.336h-2.564V48.66h3.251c4.58 0 9.159-1.968 9.159-9.662 0-6.822-3.389-9.662-9.846-9.662m.962 25.507h-9.342c-.915 0-1.465-.228-1.465-1.419V24.529c0-1.009.274-1.466 1.511-1.466h7.235c11.358 0 18.729 3.8 18.729 15.983 0 10.989-7.371 15.797-16.668 15.797M75.548 23.041h.308c.838 0 1.591.319 2.259.957.669.638 1.003 1.434 1.003 2.387 0 .939-.334 1.712-1.003 2.321-.668.608-1.495.913-2.479.913-1.073 0-1.965-.429-2.678-1.287-.712-.858-1.068-2.079-1.068-3.663 0-1.452.312-2.812.936-4.081.625-1.268 1.389-2.273 2.292-3.014.904-.74 1.708-1.11 2.413-1.11.441 0 .797.143 1.069.429.272.286.408.641.408 1.066 0 .66-.279 1.137-.838 1.43-.778.426-1.395.924-1.851 1.496-.455.572-.712 1.291-.771 2.156zM113.005 23.129h-.331c-.823 0-1.568-.334-2.237-1.001-.668-.667-1.003-1.455-1.003-2.365 0-.938.335-1.723 1.003-2.353.669-.631 1.495-.946 2.479-.946.676 0 1.308.194 1.896.583.587.388 1.043.953 1.366 1.693.323.741.485 1.647.485 2.717 0 1.452-.309 2.812-.926 4.081-.617 1.269-1.37 2.273-2.259 3.014-.888.74-1.693 1.111-2.413 1.111-.455 0-.826-.143-1.113-.429-.286-.286-.429-.635-.429-1.045 0-.66.301-1.144.903-1.452.779-.455 1.389-.953 1.829-1.496.441-.543.691-1.247.75-2.112z" fill="#fff" fill-rule="nonzero"/>
    </g>
  </g>
</svg>
